<?xml version="1.0" encoding="utf-8"?>
<!-- Generator: Adobe Illustrator 18.0.0, SVG Export Plug-In . SVG Version: 6.00 Build 0)  -->
<!DOCTYPE svg PUBLIC "-//W3C//DTD SVG 1.1//EN" "http://www.w3.org/Graphics/SVG/1.1/DTD/svg11.dtd">
<svg version="1.1" id="图形" xmlns="http://www.w3.org/2000/svg" xmlns:xlink="http://www.w3.org/1999/xlink" x="0px" y="0px"
	 viewBox="15.167 -16.333 1000.636 1000.678" enable-background="new 15.167 -16.333 1000.636 1000.678" xml:space="preserve">
<g>
	<path fill-rule="evenodd" clip-rule="evenodd" fill="#272536" d="M764.029,467.853H672.62c-50.892,0-89.303-13.311-114.139-39.574
		c-36.059-38.108-33.444-93.003-33.37-95.297V150.211c0-15.941-12.935-28.876-28.877-28.876H111.197
		c-15.942,0-28.878,12.935-28.878,28.876v577.531c0,1.655,0.226,3.233,0.49,4.812c-0.264,1.579-0.49,3.159-0.49,4.812v77.006
		c0,10.451,5.604,19.512,13.914,24.588c5.076,8.309,14.137,13.913,24.592,13.913h798.948c15.944,0,28.878-12.934,28.878-28.877
		v-96.254v-68.358C948.651,517.522,829.135,472.12,764.029,467.853L764.029,467.853z M140.076,179.089h327.299l0.039,151.996
		c-0.207,3.234-4.569,79.561,48.543,136.279c36.192,38.654,88.89,58.243,156.664,58.243l89.491-0.057
		c5.264,0.338,128.784,9.964,128.784,133.835v39.481H140.076V179.089L140.076,179.089z M890.897,795.119H140.076v-38.501h750.819
		v38.501H890.897L890.897,795.119z M389.992,212.757c-14.571,0-26.379,11.807-26.379,26.376c0,14.589,11.808,26.377,26.379,26.377
		c14.587,0,26.378-11.787,26.378-26.377C416.37,224.564,404.581,212.757,389.992,212.757L389.992,212.757z M389.992,299.801
		c-14.571,0-26.379,11.787-26.379,26.377c0,14.569,11.808,26.355,26.379,26.355c14.587,0,26.378-11.786,26.378-26.355
		C416.37,311.589,404.581,299.801,389.992,299.801L389.992,299.801z M389.992,386.825c-14.571,0-26.379,11.807-26.379,26.395
		c0,14.551,11.808,26.359,26.379,26.359c14.587,0,26.378-11.808,26.378-26.359C416.37,398.632,404.581,386.825,389.992,386.825
		L389.992,386.825z"/>
</g>
</svg>
