<?xml version="1.0" encoding="utf-8"?>
<!-- Generator: Adobe Illustrator 18.0.0, SVG Export Plug-In . SVG Version: 6.00 Build 0)  -->
<!DOCTYPE svg PUBLIC "-//W3C//DTD SVG 1.1//EN" "http://www.w3.org/Graphics/SVG/1.1/DTD/svg11.dtd">
<svg version="1.1" id="图形" xmlns="http://www.w3.org/2000/svg" xmlns:xlink="http://www.w3.org/1999/xlink" x="0px" y="0px"
	 viewBox="0 0 500 500" style="enable-background:new 0 0 500 500;" xml:space="preserve">
<style type="text/css">
	.st0{fill:#272536;}
</style>
<g>
	<path class="st0" d="M389.4,225.6h-45.7c-25.4,0-44.6-6.7-57-19.8c-18-19-16.7-46.5-16.7-47.6V66.9c0-8-6.5-14.4-14.4-14.4H63.2
		c-8,0-14.4,6.5-14.4,14.4v288.6c0,0.8,0.1,1.6,0.2,2.4c-0.1,0.8-0.2,1.6-0.2,2.4v38.5c0,5.2,2.8,9.7,7,12.3c2.5,4.2,7.1,7,12.3,7
		h399.2c8,0,14.4-6.5,14.4-14.4v-48.1v-34.2C481.6,250.4,421.9,227.7,389.4,225.6L389.4,225.6z M77.6,81.3h163.5l0,75.9
		c-0.1,1.6-2.3,39.8,24.3,68.1c18.1,19.3,44.4,29.1,78.3,29.1l44.7,0c2.6,0.2,64.3,5,64.3,66.9V341H77.6V81.3L77.6,81.3z
		 M452.7,389.1H77.6v-19.2h375.2L452.7,389.1L452.7,389.1L452.7,389.1z M202.5,98.1c-7.3,0-13.2,5.9-13.2,13.2
		c0,7.3,5.9,13.2,13.2,13.2c7.3,0,13.2-5.9,13.2-13.2C215.6,104,209.8,98.1,202.5,98.1L202.5,98.1z M202.5,141.6
		c-7.3,0-13.2,5.9-13.2,13.2c0,7.3,5.9,13.2,13.2,13.2c7.3,0,13.2-5.9,13.2-13.2C215.6,147.5,209.8,141.6,202.5,141.6L202.5,141.6z
		 M202.5,185.1c-7.3,0-13.2,5.9-13.2,13.2c0,7.3,5.9,13.2,13.2,13.2c7.3,0,13.2-5.9,13.2-13.2C215.6,191,209.8,185.1,202.5,185.1
		L202.5,185.1z"/>
</g>
</svg>
