<?xml version="1.0" encoding="utf-8"?>
<!-- Generator: Adobe Illustrator 18.0.0, SVG Export Plug-In . SVG Version: 6.00 Build 0)  -->
<!DOCTYPE svg PUBLIC "-//W3C//DTD SVG 1.1//EN" "http://www.w3.org/Graphics/SVG/1.1/DTD/svg11.dtd">
<svg version="1.1" id="图形" xmlns="http://www.w3.org/2000/svg" xmlns:xlink="http://www.w3.org/1999/xlink" x="0px" y="0px"
	 viewBox="15.167 -16.333 1000.636 1000.678" enable-background="new 15.167 -16.333 1000.636 1000.678" xml:space="preserve">
<g>
	<path fill-rule="evenodd" clip-rule="evenodd" fill="#272536" d="M821.764,891.86h-612.56c-31.263,0-56.7-25.435-56.7-56.7V230.354
		c0-31.265,25.437-56.701,56.7-56.701h92.378c12.524,0,22.68,10.156,22.68,22.681c0,12.524-10.156,22.68-22.68,22.68h-92.378
		c-6.146,0-11.34,5.193-11.34,11.34v604.805c0,6.146,5.194,11.34,11.34,11.34h612.56c6.146,0,11.34-5.193,11.34-11.34V230.354
		c0-6.146-5.193-11.34-11.34-11.34h-89.259c-12.525,0-22.681-10.155-22.681-22.68c0-12.525,10.156-22.68,22.681-22.68h89.259
		c31.263,0,56.701,25.434,56.701,56.701v604.804C878.465,866.425,853.027,891.86,821.764,891.86L821.764,891.86z"/>
	<path fill-rule="evenodd" clip-rule="evenodd" fill="#272536" d="M724.283,349.354c-3.915,0-7.83-1.014-11.341-3.04l-201.264-116.2
		c-7.016-4.05-11.34-11.537-11.34-19.641c0-8.103,4.324-15.59,11.34-19.64l201.265-116.2c7.022-4.053,15.659-4.053,22.68,0
		c7.016,4.051,11.341,11.537,11.341,19.641v232.401c0,8.103-4.325,15.59-11.341,19.64
		C732.112,348.34,728.197,349.354,724.283,349.354L724.283,349.354z M568.378,210.473l133.224,76.917V133.556L568.378,210.473
		L568.378,210.473z"/>
	<path fill-rule="evenodd" clip-rule="evenodd" fill="#272536" d="M306.686,349.354c-3.915,0-7.829-1.014-11.34-3.04
		c-7.016-4.05-11.34-11.536-11.34-19.64v-232.4c0-8.103,4.324-15.59,11.34-19.641c7.022-4.053,15.66-4.053,22.68,0l201.265,116.201
		c7.016,4.05,11.34,11.536,11.34,19.64c0,8.104-4.324,15.59-11.34,19.641L318.026,346.314
		C314.515,348.34,310.601,349.354,306.686,349.354L306.686,349.354z M329.366,133.556v153.833l133.224-76.917L329.366,133.556
		L329.366,133.556z"/>
	<path fill-rule="evenodd" clip-rule="evenodd" fill="#272536" d="M724.283,116.953H306.686c-12.525,0-22.68-10.155-22.68-22.68
		s10.155-22.68,22.68-22.68h417.596c12.524,0,22.68,10.155,22.68,22.68S736.807,116.953,724.283,116.953L724.283,116.953z"/>
	<polygon fill-rule="evenodd" clip-rule="evenodd" fill="#272536" points="491.413,479.86 539.555,479.86 539.555,528.002 
		491.413,528.002 491.413,479.86 	"/>
	<polygon fill-rule="evenodd" clip-rule="evenodd" fill="#272536" points="491.413,354.412 539.555,354.412 539.555,402.553 
		491.413,402.553 491.413,354.412 	"/>
</g>
</svg>
