<?xml version="1.0" encoding="utf-8"?>
<!-- Generator: Adobe Illustrator 18.0.0, SVG Export Plug-In . SVG Version: 6.00 Build 0)  -->
<!DOCTYPE svg PUBLIC "-//W3C//DTD SVG 1.1//EN" "http://www.w3.org/Graphics/SVG/1.1/DTD/svg11.dtd">
<svg version="1.1" id="图形" xmlns="http://www.w3.org/2000/svg" xmlns:xlink="http://www.w3.org/1999/xlink" x="0px" y="0px"
	 viewBox="0 0 500 500" style="enable-background:new 0 0 500 500;" xml:space="preserve">
<style type="text/css">
	.st0{fill:#272536;}
</style>
<g>
	<path class="st0" d="M418.2,437.5H112.1c-15.6,0-28.3-12.7-28.3-28.3V106.9c0-15.6,12.7-28.3,28.3-28.3h46.2
		c6.3,0,11.3,5.1,11.3,11.3c0,6.3-5.1,11.3-11.3,11.3h-46.2c-3.1,0-5.7,2.6-5.7,5.7v302.2c0,3.1,2.6,5.7,5.7,5.7h306.1
		c3.1,0,5.7-2.6,5.7-5.7V106.9c0-3.1-2.6-5.7-5.7-5.7h-44.6c-6.3,0-11.3-5.1-11.3-11.3c0-6.3,5.1-11.3,11.3-11.3h44.6
		c15.6,0,28.3,12.7,28.3,28.3v302.2C446.5,424.7,433.8,437.5,418.2,437.5L418.2,437.5z"/>
	<path class="st0" d="M369.5,166.4c-2,0-3.9-0.5-5.7-1.5l-100.6-58.1c-3.5-2-5.7-5.8-5.7-9.8c0-4,2.2-7.8,5.7-9.8l100.6-58.1
		c3.5-2,7.8-2,11.3,0c3.5,2,5.7,5.8,5.7,9.8v116.1c0,4-2.2,7.8-5.7,9.8C373.4,165.9,371.5,166.4,369.5,166.4L369.5,166.4z M291.6,97
		l66.6,38.4V58.6L291.6,97L291.6,97z"/>
	<path class="st0" d="M160.8,166.4c-2,0-3.9-0.5-5.7-1.5c-3.5-2-5.7-5.8-5.7-9.8V38.9c0-4,2.2-7.8,5.7-9.8c3.5-2,7.8-2,11.3,0
		l100.6,58.1c3.5,2,5.7,5.8,5.7,9.8s-2.2,7.8-5.7,9.8l-100.6,58.1C164.8,165.9,162.8,166.4,160.8,166.4L160.8,166.4z M172.2,58.6
		v76.9L238.7,97L172.2,58.6L172.2,58.6z"/>
	<path class="st0" d="M369.5,50.3H160.8c-6.3,0-11.3-5.1-11.3-11.3s5.1-11.3,11.3-11.3h208.7c6.3,0,11.3,5.1,11.3,11.3
		S375.8,50.3,369.5,50.3L369.5,50.3z"/>
	<polygon class="st0" points="253.1,231.6 277.2,231.6 277.2,255.7 253.1,255.7 	"/>
	<polygon class="st0" points="253.1,168.9 277.2,168.9 277.2,193 253.1,193 	"/>
</g>
</svg>
