<?xml version="1.0" encoding="utf-8"?>
<!-- Generator: Adobe Illustrator 18.0.0, SVG Export Plug-In . SVG Version: 6.00 Build 0)  -->
<!DOCTYPE svg PUBLIC "-//W3C//DTD SVG 1.1//EN" "http://www.w3.org/Graphics/SVG/1.1/DTD/svg11.dtd">
<svg version="1.1" id="图形" xmlns="http://www.w3.org/2000/svg" xmlns:xlink="http://www.w3.org/1999/xlink" x="0px" y="0px"
	 viewBox="0 0 500 500" style="enable-background:new 0 0 500 500;" xml:space="preserve">
<style type="text/css">
	.st0{fill:#272536;}
</style>
<g>
	<path class="st0" d="M419.1,212.6c-1.1-52.5-8.5-155.2-49.8-155.2c-40.4,0-48.6,97.3-49.8,155.3c-0.2,9.3,7.2,17.1,16.5,17.3
		c9.3,0.3,17.1-7.2,17.3-16.5c1.3-58.8,9.4-97.6,16-114.6c6.7,17.2,14.8,56.5,16,116c-23.5,25.5-60.6,58.8-110.8,83.7h-17.9
		c-53.1-26.3-91.4-62-114.7-87.9c1.4-57.1,9.3-95,15.9-111.8c6.6,17,14.8,55.9,16,114.6c0.2,9.3,7.8,16.8,17.3,16.5
		c9.3-0.2,16.7-7.9,16.5-17.3c-1.2-58-9.4-155.3-49.8-155.3c-42.3,0-49,107.8-49.9,159C87.5,236.5,76,263.7,76,292.8
		c0,59.3,48.3,107.6,107.6,107.6c29.4,0,57.2-11.9,77.5-33h8.8c20.3,21.1,48.1,33,77.5,33c59.3,0,107.6-48.3,107.6-107.6
		C455,261.8,442,233,419.1,212.6L419.1,212.6z M347.3,366.6c-22,0-42.8-9.8-56.9-26.9c-3.2-3.9-8-6.1-13-6.1h-23.9
		c-5,0-9.8,2.3-13,6.1c-14.1,17.1-34.8,26.9-56.9,26.9c-40.7,0-73.8-33.1-73.8-73.8c0-17.9,6.3-34.8,17.8-48
		c26.3,27.2,65.6,60.7,117.7,85.8c2.3,1.1,4.8,1.7,7.4,1.7h25.8c2.5,0,5.1-0.6,7.4-1.7c52-25.1,91.4-58.6,117.7-85.8
		c11.4,13.3,17.8,30.1,17.8,48C421.2,333.5,388,366.6,347.3,366.6L347.3,366.6z"/>
</g>
</svg>
