<?xml version="1.0" encoding="utf-8"?>
<!-- Generator: Adobe Illustrator 18.0.0, SVG Export Plug-In . SVG Version: 6.00 Build 0)  -->
<!DOCTYPE svg PUBLIC "-//W3C//DTD SVG 1.1//EN" "http://www.w3.org/Graphics/SVG/1.1/DTD/svg11.dtd">
<svg version="1.1" id="图形" xmlns="http://www.w3.org/2000/svg" xmlns:xlink="http://www.w3.org/1999/xlink" x="0px" y="0px"
	 viewBox="15.167 -16.333 1000.636 1000.678" enable-background="new 15.167 -16.333 1000.636 1000.678" xml:space="preserve">
<g>
	<path fill-rule="evenodd" clip-rule="evenodd" fill="#272536" d="M823.462,441.835c-2.199-104.98-17.071-310.668-99.667-310.668
		c-80.913,0-97.201,194.718-99.7,310.788c-0.408,18.678,14.404,34.151,33.093,34.547c18.568,0.551,34.14-14.416,34.548-33.093
		c2.543-117.651,18.853-195.341,32.102-229.421c13.448,34.387,29.69,113.075,31.99,232.14
		c-47.097,50.943-121.286,117.627-221.753,167.484h-35.903C391.989,560.918,315.221,489.481,268.716,437.65
		c2.883-114.365,18.703-190.085,31.833-223.661c13.237,34.084,29.547,111.78,32.091,229.421
		c0.396,18.677,15.693,33.655,34.547,33.093c18.69-0.396,33.501-15.869,33.094-34.547c-2.499-116.071-18.788-310.788-99.677-310.788
		c-84.602,0-98.165,215.801-99.823,318.145c-40.856,40.292-63.867,94.721-63.867,153.002c0,118.764,96.622,215.39,215.395,215.39
		c58.853,0,114.479-23.876,155.017-66.045h17.598c40.55,42.158,96.176,66.045,155.017,66.045c118.763,0,215.39-96.627,215.39-215.39
		C895.331,540.325,869.295,482.725,823.462,441.835L823.462,441.835z M679.942,750.04c-44.084,0-85.57-19.592-113.807-53.765
		c-6.432-7.775-15.991-12.279-26.078-12.279h-47.863c-10.087,0-19.658,4.504-26.078,12.279
		c-28.226,34.173-69.711,53.765-113.807,53.765c-81.462,0-147.737-66.264-147.737-147.727c0-35.846,12.687-69.578,35.539-96.109
		c52.685,54.447,131.383,121.439,235.52,171.702c4.592,2.224,9.614,3.37,14.714,3.37h51.562c5.099,0,10.122-1.145,14.714-3.37
		c104.116-50.263,182.824-117.255,235.52-171.702c22.841,26.52,35.528,60.263,35.528,96.109
		C827.668,683.776,761.404,750.04,679.942,750.04L679.942,750.04z"/>
</g>
</svg>
