<?xml version="1.0" encoding="utf-8"?>
<!-- Generator: Adobe Illustrator 18.0.0, SVG Export Plug-In . SVG Version: 6.00 Build 0)  -->
<!DOCTYPE svg PUBLIC "-//W3C//DTD SVG 1.1//EN" "http://www.w3.org/Graphics/SVG/1.1/DTD/svg11.dtd">
<svg version="1.1" id="图形" xmlns="http://www.w3.org/2000/svg" xmlns:xlink="http://www.w3.org/1999/xlink" x="0px" y="0px"
	 viewBox="15.167 -16.333 1000.636 1000.678" enable-background="new 15.167 -16.333 1000.636 1000.678" xml:space="preserve">
<g>
	<path fill-rule="evenodd" clip-rule="evenodd" fill="#C9C9C9" d="M906.814,779.262l-54.008-446.078
		c-4.805-33.846-35.972-60.346-70.898-60.346h-70.444c0-0.139,0.034-0.278,0.034-0.418c0-108.747-86.079-193.994-196.051-193.994
		c-109.933,0-196.085,85.246-196.085,193.994c0,0.14,0.072,0.278,0.072,0.418h-70.481c-34.858,0-65.989,26.466-70.968,60.871
		l-53.8,445.027c-3.308,23.121,2.82,45.581,16.785,61.632c12.536,14.492,30.087,22.461,49.449,22.461h650.062
		c19.359,0,36.911-7.968,49.514-22.461C903.923,824.32,910.052,801.859,906.814,779.262L906.814,779.262L906.814,779.262z
		 M368.394,272.421c0-81.275,64.594-144.966,147.052-144.966c82.461,0,147.089,63.69,147.089,144.966
		c0,0.139,0.072,0.278,0.072,0.418H368.323C368.323,272.699,368.394,272.56,368.394,272.421L368.394,272.421L368.394,272.421z
		 M248.952,321.868h532.954c10.518,0,20.965,8.533,22.286,17.69l11.21,92.456L515.446,532.682L215.489,431.976l11.074-91.86
		C227.99,330.401,238.47,321.868,248.952,321.868L248.952,321.868L248.952,321.868z M852.91,808.231
		c-3.205,3.728-7.348,5.605-12.431,5.605H190.416c-5.05,0-9.264-1.878-12.466-5.571c-4.598-5.329-6.549-13.616-5.155-23.121
		l36.669-303.476l298.181,100.115c2.542,0.834,5.153,1.254,7.799,1.254c2.646,0,5.294-0.417,7.799-1.254l298.151-100.08
		l36.772,303.931C859.528,794.652,857.541,802.907,852.91,808.231L852.91,808.231L852.91,808.231z M466.416,445.801h98.06
		c13.55,0,24.516-10.969,24.516-24.512c0-13.548-10.967-24.551-24.516-24.551h-98.059c-13.547,0-24.514,11.004-24.514,24.551
		C441.903,434.832,452.87,445.801,466.416,445.801L466.416,445.801L466.416,445.801z"/>
</g>
</svg>
