<?xml version="1.0" encoding="utf-8"?>
<!-- Generator: Adobe Illustrator 18.0.0, SVG Export Plug-In . SVG Version: 6.00 Build 0)  -->
<!DOCTYPE svg PUBLIC "-//W3C//DTD SVG 1.1//EN" "http://www.w3.org/Graphics/SVG/1.1/DTD/svg11.dtd">
<svg version="1.1" id="图形" xmlns="http://www.w3.org/2000/svg" xmlns:xlink="http://www.w3.org/1999/xlink" x="0px" y="0px"
	 viewBox="0 0 500 500" style="enable-background:new 0 0 500 500;" xml:space="preserve">
<style type="text/css">
	.st0{fill:#C9C9C9;}
</style>
<g>
	<path class="st0" d="M460.7,381.2l-27-222.9c-2.4-16.9-18-30.2-35.4-30.2h-35.2c0-0.1,0-0.1,0-0.2c0-54.3-43-96.9-98-96.9
		c-54.9,0-98,42.6-98,96.9c0,0.1,0,0.1,0,0.2H132c-17.4,0-33,13.2-35.5,30.4L69.6,380.9c-1.7,11.6,1.4,22.8,8.4,30.8
		c6.3,7.2,15,11.2,24.7,11.2h324.8c9.7,0,18.4-4,24.7-11.2C459.3,403.7,462.3,392.5,460.7,381.2L460.7,381.2L460.7,381.2z
		 M191.7,127.9c0-40.6,32.3-72.4,73.5-72.4c41.2,0,73.5,31.8,73.5,72.4c0,0.1,0,0.1,0,0.2h-147C191.6,128.1,191.7,128,191.7,127.9
		L191.7,127.9L191.7,127.9z M132,152.7h266.3c5.3,0,10.5,4.3,11.1,8.8l5.6,46.2L265.1,258l-149.9-50.3l5.5-45.9
		C121.5,156.9,126.8,152.7,132,152.7L132,152.7L132,152.7z M433.8,395.7c-1.6,1.9-3.7,2.8-6.2,2.8H102.7c-2.5,0-4.6-0.9-6.2-2.8
		c-2.3-2.7-3.3-6.8-2.6-11.6l18.3-151.6l149,50c1.3,0.4,2.6,0.6,3.9,0.6c1.3,0,2.6-0.2,3.9-0.6l149-50l18.4,151.9
		C437.1,388.9,436.1,393,433.8,395.7L433.8,395.7L433.8,395.7z M240.6,214.6h49c6.8,0,12.2-5.5,12.2-12.2c0-6.8-5.5-12.3-12.2-12.3
		h-49c-6.8,0-12.2,5.5-12.2,12.3C228.4,209.1,233.9,214.6,240.6,214.6L240.6,214.6L240.6,214.6z"/>
</g>
</svg>
