<?xml version="1.0" encoding="utf-8"?>
<!-- Generator: Adobe Illustrator 18.0.0, SVG Export Plug-In . SVG Version: 6.00 Build 0)  -->
<!DOCTYPE svg PUBLIC "-//W3C//DTD SVG 1.1//EN" "http://www.w3.org/Graphics/SVG/1.1/DTD/svg11.dtd">
<svg version="1.1" id="图形" xmlns="http://www.w3.org/2000/svg" xmlns:xlink="http://www.w3.org/1999/xlink" x="0px" y="0px"
	 viewBox="15.167 -16.333 1000.636 1000.678" enable-background="new 15.167 -16.333 1000.636 1000.678" xml:space="preserve">
<g>
	<path fill-rule="evenodd" clip-rule="evenodd" fill="#272536" d="M379.376,446.222c-56.262,0-103.766-37.469-103.766-81.805
		c0-40.658,50.529-77.65,106.015-77.65c96.203,0,106.57,55.469,106.57,79.312C488.195,420.774,423.263,446.222,379.376,446.222
		L379.376,446.222 M381.498,333.564c-33.128,0-57.34,21.151-57.34,32.143c0,14.355,21.681,35.202,55.684,35.202
		c29.415,0,59.402-17.152,59.402-33.977C439.244,336.829,398.857,333.564,381.498,333.564L381.498,333.564 M514.988,917.745
		c-169.527,0-279.714-113.551-284.34-118.385c-6.347-6.603-7.681-17.706-3.195-26.184l30.623-58.094l-52.283,35.051
		c-6.295,4.182-13.925,3.302-19.364-2.13c-2.575-2.596-26.047-27.603-55.238-111.93c-30.051-86.473-22.802-143.882-22.514-146.274
		c1.048-7.371,5.249-13.484,11.16-15.991l57.911-24.667l-54.474-18.61c-8.106-2.756-13.309-12.088-12.308-22.046
		c7.062-69.741,41.116-141.777,93.448-197.631c34.679-37.017,140.14-149.686,310.573-149.686
		c170.384,0,275.897,112.67,310.578,149.686c52.377,55.907,86.387,127.948,93.445,197.656c0.954,9.932-4.243,19.264-12.304,22.021
		l-54.475,18.61l57.91,24.667c5.916,2.502,10.16,8.649,11.16,15.991c0.289,2.391,7.491,59.803-22.515,146.274
		c-29.195,84.33-52.661,109.334-55.234,111.895c-5.439,5.467-13.115,6.347-19.367,2.165l-53.326-33.061l31.667,56.104
		c4.484,8.48,3.152,19.576-3.194,26.184C794.703,804.196,684.517,917.745,514.988,917.745L514.988,917.745 M287.679,770.846
		c29.028,26.556,111.468,92.031,229.364,92.031c117.893,0,197.349-61.494,226.374-88.049l-56.871-107.405
		c-3.871-7.702-6.933-25.349,2.289-33.946c10.66-9.936,22.722-6.349,32.951-0.733l92.746,46.274
		c7.468-12.38,15.514-19.807,30.769-65.775c17.333-52.232,19.558-80.579,19.38-98.828l-90.776-43.391
		c-6.491-2.91-15.555-12.077-15.555-23.313c0-11.406,9.862-23.06,16.533-25.411l84.819-34.225
		c-8.802-53.226-35.385-100.427-74.459-143.957c-30.1-33.541-121.59-135.563-268.2-135.563
		c-146.655,0-238.146,102.022-268.2,135.563c-39.03,43.501-65.657,93.694-74.505,146.943l84.867,30.244
		c6.663,2.352,19.476,13.999,19.476,27.401c0,15.716-13.999,24.384-20.489,27.294l-88.834,38.415
		c-0.133,18.192,2.046,46.544,19.429,98.828c15.203,45.888,21.217,51.32,28.776,63.785l88.218-49.541
		c6.311-4.458,27.992-10.458,38.203-2.344c13.168,10.463,6.862,27.51,2.951,35.211L287.679,770.846L287.679,770.846
		 M648.685,446.222c-43.838,0-108.764-25.448-108.764-80.143c0-23.844,10.36-79.312,106.519-79.312
		c55.53,0,106.064,36.993,106.064,77.65C752.504,409.528,705.915,446.222,648.685,446.222L648.685,446.222 M647.267,334.668
		c-17.077,0-56.782,3.214-56.782,32.828c0,16.555,29.506,33.43,58.41,33.43c33.49,0,53.997-20.507,53.997-34.634
		C702.891,355.477,679.862,334.668,647.267,334.668L647.267,334.668 M563.305,583.123h-97.503c-14.489,0-33.375-12.771-40.39-25.564
		c-7.93-14.458-5.806-32.926,0.63-48.688c6.251-15.307,22.001-41.729,28.787-48.431c5.961-6.014,22.999-13.685,35.273-3.4
		c9.141,7.658,6.885,24.84,1.138,33.636c-12.123,18.553-14.821,25.66-16.829,30.605c-1.394,3.434-2.903,10.653-0.889,14.282
		c0.595,1.135,3.47,4.598,10.805,4.598h57.466c7.339,0,9.218-3.49,9.812-4.623c2.018-3.603,1.404-10.722,0.105-14.231
		c-3.41-9.208-5.36-15.974-12.89-29.636c-4.084-7.409-6.903-26.817,4.037-33.88c16.58-10.703,29.441,1.669,35.401,7.626
		c6.744,6.702,16.319,28.859,21.822,44.451c3.941,11.19,7.388,36.222-0.501,50.678C592.564,573.395,577.795,583.123,563.305,583.123
		L563.305,583.123 M514.056,761.072c-53.786,0-90.475-27.305-105.513-50.706c-9.861-15.343-10.134-28.417-8.575-36.668
		c1.606-8.476,6.606-20.467,21.551-29.438c14.766-8.944,57.5-18.946,92.537-18.946c35.033,0,77.773,10.002,92.535,18.971
		c14.904,8.976,19.944,20.937,21.55,29.413c1.561,8.279,1.287,21.325-8.617,36.693C604.485,733.767,567.846,761.072,514.056,761.072
		L514.056,761.072 M512.301,669.536c-26.65,0-46.502,8.092-53.475,12.298c-4,2.417-5.212,4.591-5.286,5.235
		c-0.148,0.667,0.255,2.88,2.644,6.606c7.191,11.173,19.504,22.404,56.871,22.404c37.328,0,50.431-11.231,57.623-22.404
		c2.386-3.726,2.789-5.939,2.642-6.606c-0.109-0.643-1.319-2.818-5.284-5.207C561.025,677.628,538.947,669.536,512.301,669.536
		L512.301,669.536 M512.301,669.536"/>
</g>
</svg>
