<?xml version="1.0" encoding="utf-8"?>
<!-- Generator: Adobe Illustrator 18.0.0, SVG Export Plug-In . SVG Version: 6.00 Build 0)  -->
<!DOCTYPE svg PUBLIC "-//W3C//DTD SVG 1.1//EN" "http://www.w3.org/Graphics/SVG/1.1/DTD/svg11.dtd">
<svg version="1.1" id="图形" xmlns="http://www.w3.org/2000/svg" xmlns:xlink="http://www.w3.org/1999/xlink" x="0px" y="0px"
	 viewBox="0 0 500 500" style="enable-background:new 0 0 500 500;" xml:space="preserve">
<style type="text/css">
	.st0{fill:#272536;}
</style>
<g>
	<path class="st0" d="M414.4,362.9h-295c-8.8,0-16.2-6.3-17.7-14.9L59,105.5c-1.3-7.4,2.2-14.9,8.8-18.7c6.6-3.8,14.8-3,20.6,1.9
		l90,76.6l73.5-113.7c6.6-10.3,23.6-10.3,30.1,0l73.5,113.7l90-76.6c5.8-4.9,14-5.6,20.6-1.9c6.6,3.8,10.1,11.3,8.8,18.7
		l-42.7,242.7C430.6,356.7,423.2,362.9,414.4,362.9L414.4,362.9 M134.5,327h264.8l31.5-178.6l-67.6,57.5c-4,3.3-9.1,4.8-14.2,4.1
		c-5.1-0.8-9.7-3.7-12.5-8L266.9,94.4L197.4,202c-2.9,4.4-7.4,7.3-12.5,8c-5.2,0.8-10.3-0.8-14.2-4.1L103,148.4L134.5,327L134.5,327
		 M414.4,421h-295c-9.9,0-18-8.1-18-18c0-9.9,8.1-18,18-18h295c9.9,0,18,8.1,18,18C432.4,412.9,424.3,421,414.4,421L414.4,421"/>
</g>
</svg>
