<?xml version="1.0" encoding="utf-8"?>
<!-- Generator: Adobe Illustrator 18.0.0, SVG Export Plug-In . SVG Version: 6.00 Build 0)  -->
<!DOCTYPE svg PUBLIC "-//W3C//DTD SVG 1.1//EN" "http://www.w3.org/Graphics/SVG/1.1/DTD/svg11.dtd">
<svg version="1.1" id="图形" xmlns="http://www.w3.org/2000/svg" xmlns:xlink="http://www.w3.org/1999/xlink" x="0px" y="0px"
	 viewBox="15.167 -16.333 1000.636 1000.678" enable-background="new 15.167 -16.333 1000.636 1000.678" xml:space="preserve">
<g>
	<path fill-rule="evenodd" clip-rule="evenodd" fill="#272536" d="M514.485,918.079c-207.383,0-369.831-106.969-369.831-243.528
		c0-136.56,162.446-243.529,369.831-243.529s369.831,106.969,369.831,243.529C884.315,811.11,721.87,918.079,514.485,918.079
		L514.485,918.079z M514.485,503.053c-161.427,0-297.798,78.538-297.798,171.497s136.372,171.497,297.798,171.497
		s297.798-78.538,297.798-171.497S675.911,503.053,514.485,503.053L514.485,503.053z"/>
	<path fill-rule="evenodd" clip-rule="evenodd" fill="#272536" d="M514.485,807.629c-142.761,0-250.423-57.213-250.423-133.078
		c0-75.854,107.661-133.055,250.423-133.055s250.423,57.201,250.423,133.055C764.908,750.416,657.246,807.629,514.485,807.629
		L514.485,807.629z M514.485,601.522c-116.231,0-190.396,43.249-190.396,73.028c0,29.785,74.165,73.051,190.396,73.051
		s190.396-43.267,190.396-73.051C704.881,644.771,630.716,601.522,514.485,601.522L514.485,601.522z"/>
	<path fill-rule="evenodd" clip-rule="evenodd" fill="#272536" d="M774.779,460.355c-10.775,0-21.42-4.807-28.513-13.986
		c-12.169-15.739-9.273-38.355,6.461-50.525c27.176-21.004,59.557-55.642,59.557-101.37c0-92.965-136.372-171.51-297.798-171.51
		s-297.798,78.544-297.798,171.51c0,45.728,32.38,80.367,59.557,101.37c15.734,12.169,18.63,34.786,6.46,50.525
		c-12.169,15.739-34.796,18.624-50.518,6.466c-56.438-43.637-87.53-99.877-87.53-158.361c0-136.565,162.446-243.541,369.831-243.541
		s369.831,106.975,369.831,243.541c0,58.484-31.091,114.724-87.53,158.361C790.23,457.898,782.47,460.355,774.779,460.355
		L774.779,460.355z"/>
</g>
</svg>
