<?xml version="1.0" encoding="utf-8"?>
<!-- Generator: Adobe Illustrator 18.0.0, SVG Export Plug-In . SVG Version: 6.00 Build 0)  -->
<!DOCTYPE svg PUBLIC "-//W3C//DTD SVG 1.1//EN" "http://www.w3.org/Graphics/SVG/1.1/DTD/svg11.dtd">
<svg version="1.1" id="图形" xmlns="http://www.w3.org/2000/svg" xmlns:xlink="http://www.w3.org/1999/xlink" x="0px" y="0px"
	 viewBox="0 0 500 500" style="enable-background:new 0 0 500 500;" xml:space="preserve">
<style type="text/css">
	.st0{fill:#272536;}
</style>
<g>
	<path class="st0" d="M264.7,450.6c-103.6,0-184.8-53.4-184.8-121.7c0-68.2,81.2-121.7,184.8-121.7s184.8,53.4,184.8,121.7
		C449.5,397.1,368.3,450.6,264.7,450.6L264.7,450.6z M264.7,243.2c-80.7,0-148.8,39.2-148.8,85.7s68.1,85.7,148.8,85.7
		s148.8-39.2,148.8-85.7S345.3,243.2,264.7,243.2L264.7,243.2z"/>
	<path class="st0" d="M264.7,395.4c-71.3,0-125.1-28.6-125.1-66.5c0-37.9,53.8-66.5,125.1-66.5s125.1,28.6,125.1,66.5
		C389.8,366.8,336,395.4,264.7,395.4L264.7,395.4z M264.7,292.4c-58.1,0-95.1,21.6-95.1,36.5c0,14.9,37.1,36.5,95.1,36.5
		s95.1-21.6,95.1-36.5C359.8,314,322.7,292.4,264.7,292.4L264.7,292.4z"/>
	<path class="st0" d="M394.7,221.8c-5.4,0-10.7-2.4-14.2-7c-6.1-7.9-4.6-19.2,3.2-25.2c13.6-10.5,29.8-27.8,29.8-50.7
		c0-46.5-68.1-85.7-148.8-85.7S115.9,92.5,115.9,139c0,22.8,16.2,40.2,29.8,50.7c7.9,6.1,9.3,17.4,3.2,25.2
		c-6.1,7.9-17.4,9.3-25.2,3.2c-28.2-21.8-43.7-49.9-43.7-79.1c0-68.2,81.2-121.7,184.8-121.7S449.5,70.7,449.5,139
		c0,29.2-15.5,57.3-43.7,79.1C402.4,220.6,398.6,221.8,394.7,221.8L394.7,221.8z"/>
</g>
</svg>
