<?xml version="1.0" encoding="utf-8"?>
<!-- Generator: Adobe Illustrator 18.0.0, SVG Export Plug-In . SVG Version: 6.00 Build 0)  -->
<!DOCTYPE svg PUBLIC "-//W3C//DTD SVG 1.1//EN" "http://www.w3.org/Graphics/SVG/1.1/DTD/svg11.dtd">
<svg version="1.1" id="图形" xmlns="http://www.w3.org/2000/svg" xmlns:xlink="http://www.w3.org/1999/xlink" x="0px" y="0px"
	 viewBox="15.167 -16.333 1000.636 1000.678" enable-background="new 15.167 -16.333 1000.636 1000.678" xml:space="preserve">
<g>
	<path fill-rule="evenodd" clip-rule="evenodd" fill="#272536" d="M806.132,909.493h-52.901
		c-58.411,0-105.649-47.34-105.649-105.699V486.695c0-39.028,21.412-72.752,52.851-91.045v-41.105
		c0-43.759,35.546-79.303,79.3-79.303c43.86,0,79.251,35.546,79.251,79.303v41.105c31.387,18.294,52.901,52.017,52.901,91.045
		v317.099C911.885,862.152,864.597,909.493,806.132,909.493L806.132,909.493L806.132,909.493 M812.369,354.545
		c0-14.655-19.332-38.973-33.934-38.973c-14.548,0-33.932,24.37-33.932,38.973v26.45h67.917v-26.45H812.369L812.369,354.545
		 M879.041,486.695c0-29.154-23.643-74.156-52.902-74.156h-91.773c-29.1,0-52.797,45.002-52.797,74.156v317.099
		c0,29.259,23.697,69.167,52.797,69.167h91.773c29.259,0,52.902-39.963,52.902-69.167V486.695L879.041,486.695L879.041,486.695
		 M779.735,803.794c-14.604,0-23.905-11.849-23.905-26.449v-52.802c0-14.55,9.302-26.502,23.905-26.502
		c14.654,0,23.905,11.901,23.905,26.502v52.802C803.64,791.945,794.389,803.794,779.735,803.794L779.735,803.794L779.735,803.794
		 M489.032,909.493H224.786c-58.36,0-105.701-47.34-105.701-105.699V486.695c0-100.972,77.12-185.052,171.697-206.1
		c-4.314-9.716-6.911-20.369-6.911-31.75c0-34.4,28.271-67.71,57.893-73.998V117.58c-44.327,1.921-95.62,19.486-126.541,47.392
		l-0.414-0.521c-4.314,3.016-9.198,5.199-14.862,5.199c-14.603,0-26.403-5.56-26.403-20.163c0-11.382,8.471-13.353,18.552-17.098
		c27.963-22.604,60.334-39.859,96.4-48.227c4.678-3.949,10.341-6.495,16.787-6.495H411.03c14.603,0,25.154,4.314,25.154,18.915
		c0,11.694-7.64,15.02-18.139,18.499l-1.714,0.159l-39.23,1.452v58.154c30.605,11.015,52.848,39.597,52.848,73.998
		c0,11.328-2.545,21.982-6.861,31.75c94.578,20.994,171.698,105.129,171.698,206.05v317.098
		C594.735,862.152,547.342,909.493,489.032,909.493L489.032,909.493L489.032,909.493 M356.934,216.157
		c-14.652,0-33.517,8.161-33.982,32.686c-0.263,14.551,10.288,32.69,33.982,32.69c20.839,0.051,31.441-18.139,31.441-32.638
		C388.374,234.24,376.007,213.04,356.934,216.157L356.934,216.157L356.934,216.157 M560.748,698.039V486.695
		c0-87.613-89.85-177.364-177.412-177.364h-52.853c-87.615,0-177.412,89.802-177.412,177.364v317.099
		c0,29.259,42.458,70.413,71.663,70.413h264.248c29.206,0,71.716-41.21,71.716-70.413V698.039H560.748L560.748,698.039
		 M429.897,795.009H283.87c-29.205,0-52.795-14.86-52.795-44.12V592.341c0-29.204,23.643-44.119,52.795-44.119h146.028
		c29.205,0,52.848,14.915,52.848,44.119v158.547c0,29.26-17.407,44.12-46.612,44.12h-6.237V795.009 M423.506,592.341H290.262
		c-14.605,0-26.399,11.851-26.399,26.399c0,14.652,11.796,26.506,26.399,26.506h133.189c14.654,0,26.453-11.854,26.453-26.506
		c0-14.549-25.619-26.399-40.22-26.399H423.506L423.506,592.341 M421.009,698.039H291.562c-14.654,0-26.45,11.901-26.45,26.502
		c0,14.501,11.796,31.34,26.45,31.34h129.447c14.655,0,26.454-16.789,26.454-31.34c0-14.549-23.125-26.502-37.729-26.502H421.009
		L421.009,698.039 M421.009,698.039"/>
</g>
</svg>
