<?xml version="1.0" encoding="utf-8"?>
<!-- Generator: Adobe Illustrator 18.0.0, SVG Export Plug-In . SVG Version: 6.00 Build 0)  -->
<!DOCTYPE svg PUBLIC "-//W3C//DTD SVG 1.1//EN" "http://www.w3.org/Graphics/SVG/1.1/DTD/svg11.dtd">
<svg version="1.1" id="图形" xmlns="http://www.w3.org/2000/svg" xmlns:xlink="http://www.w3.org/1999/xlink" x="0px" y="0px"
	 viewBox="15.167 -16.333 1000.636 1000.678" enable-background="new 15.167 -16.333 1000.636 1000.678" xml:space="preserve">
<g>
	<path fill-rule="evenodd" clip-rule="evenodd" fill="#272536" d="M814.16,742.695H223.811c-17.522,0-32.396-12.513-35.455-29.754
		l-85.504-485.514c-2.646-14.883,4.444-29.896,17.516-37.405c13.208-7.506,29.614-5.976,41.152,3.754l180.19,153.361
		l147.105-227.607c13.21-20.573,47.132-20.573,60.34,0l147.098,227.466l180.052-153.361c11.543-9.87,28.09-11.257,41.158-3.754
		c13.209,7.51,20.157,22.524,17.515,37.405l-85.364,485.79C846.556,730.183,831.675,742.695,814.16,742.695L814.16,742.695
		 M253.985,670.81h530.002l62.988-357.461L711.691,428.469c-7.928,6.673-18.218,9.593-28.509,8.207
		c-10.283-1.534-19.325-7.371-25.025-15.989L518.982,205.319L379.811,420.687c-5.706,8.757-14.742,14.597-25.031,15.989
		c-10.423,1.526-20.712-1.534-28.502-8.207L190.997,313.348L253.985,670.81L253.985,670.81 M253.985,670.81 M814.16,858.929H223.811
		c-19.884,0-36.012-16.126-36.012-36.01s16.128-36.01,36.012-36.01h590.35c19.883,0,36.012,16.126,36.012,36.01
		S834.042,858.929,814.16,858.929L814.16,858.929 M814.16,858.929 M90.3,120.971 M32.667,120.971 M520.684,29.258 M463.053,29.258
		 M947.998,117.688 M890.365,117.688"/>
</g>
</svg>
