<?xml version="1.0" encoding="utf-8"?>
<!-- Generator: Adobe Illustrator 18.0.0, SVG Export Plug-In . SVG Version: 6.00 Build 0)  -->
<!DOCTYPE svg PUBLIC "-//W3C//DTD SVG 1.1//EN" "http://www.w3.org/Graphics/SVG/1.1/DTD/svg11.dtd">
<svg version="1.1" id="图形" xmlns="http://www.w3.org/2000/svg" xmlns:xlink="http://www.w3.org/1999/xlink" x="0px" y="0px"
	 viewBox="0 0 500 500" style="enable-background:new 0 0 500 500;" xml:space="preserve">
<style type="text/css">
	.st0{fill:#272536;}
</style>
<g>
	<path class="st0" d="M197.2,214.8c-28.1,0-51.8-18.7-51.8-40.9c0-20.3,25.2-38.8,53-38.8c48.1,0,53.2,27.7,53.2,39.6
		C251.5,202.1,219.1,214.8,197.2,214.8L197.2,214.8 M198.2,158.5c-16.6,0-28.7,10.6-28.7,16.1c0,7.2,10.8,17.6,27.8,17.6
		c14.7,0,29.7-8.6,29.7-17C227.1,160.1,206.9,158.5,198.2,158.5L198.2,158.5 M264.9,450.4c-84.7,0-139.8-56.7-142.1-59.2
		c-3.2-3.3-3.8-8.8-1.6-13.1l15.3-29l-26.1,17.5c-3.1,2.1-7,1.6-9.7-1.1c-1.3-1.3-13-13.8-27.6-55.9c-15-43.2-11.4-71.9-11.2-73.1
		c0.5-3.7,2.6-6.7,5.6-8l28.9-12.3l-27.2-9.3c-4.1-1.4-6.6-6-6.1-11c3.5-34.8,20.5-70.8,46.7-98.7c17.3-18.5,70-74.8,155.2-74.8
		c85.1,0,137.9,56.3,155.2,74.8c26.2,27.9,43.2,63.9,46.7,98.8c0.5,5-2.1,9.6-6.1,11l-27.2,9.3l28.9,12.3c3,1.3,5.1,4.3,5.6,8
		c0.1,1.2,3.7,29.9-11.2,73.1c-14.6,42.1-26.3,54.6-27.6,55.9c-2.7,2.7-6.6,3.2-9.7,1.1l-26.6-16.5l15.8,28
		c2.2,4.2,1.6,9.8-1.6,13.1C404.7,393.7,349.6,450.4,264.9,450.4L264.9,450.4 M151.3,377c14.5,13.3,55.7,46,114.6,46
		c58.9,0,98.6-30.7,113.1-44l-28.4-53.7c-1.9-3.8-3.5-12.7,1.1-17c5.3-5,11.4-3.2,16.5-0.4l46.3,23.1c3.7-6.2,7.8-9.9,15.4-32.9
		c8.7-26.1,9.8-40.3,9.7-49.4l-45.4-21.7c-3.2-1.5-7.8-6-7.8-11.6c0-5.7,4.9-11.5,8.3-12.7l42.4-17.1c-4.4-26.6-17.7-50.2-37.2-71.9
		c-15-16.8-60.8-67.7-134-67.7c-73.3,0-119,51-134,67.7c-19.5,21.7-32.8,46.8-37.2,73.4l42.4,15.1c3.3,1.2,9.7,7,9.7,13.7
		c0,7.9-7,12.2-10.2,13.6l-44.4,19.2c-0.1,9.1,1,23.3,9.7,49.4c7.6,22.9,10.6,25.6,14.4,31.9l44.1-24.8c3.2-2.2,14-5.2,19.1-1.2
		c6.6,5.2,3.4,13.7,1.5,17.6L151.3,377L151.3,377 M331.7,214.8c-21.9,0-54.3-12.7-54.3-40c0-11.9,5.2-39.6,53.2-39.6
		c27.7,0,53,18.5,53,38.8C383.6,196.5,360.3,214.8,331.7,214.8L331.7,214.8 M331,159c-8.5,0-28.4,1.6-28.4,16.4
		c0,8.3,14.7,16.7,29.2,16.7c16.7,0,27-10.2,27-17.3C358.8,169.4,347.3,159,331,159L331,159 M289.1,283.2h-48.7
		c-7.2,0-16.7-6.4-20.2-12.8c-4-7.2-2.9-16.5,0.3-24.3c3.1-7.6,11-20.9,14.4-24.2c3-3,11.5-6.8,17.6-1.7c4.6,3.8,3.4,12.4,0.6,16.8
		c-6.1,9.3-7.4,12.8-8.4,15.3c-0.7,1.7-1.5,5.3-0.4,7.1c0.3,0.6,1.7,2.3,5.4,2.3h28.7c3.7,0,4.6-1.7,4.9-2.3c1-1.8,0.7-5.4,0.1-7.1
		c-1.7-4.6-2.7-8-6.4-14.8c-2-3.7-3.4-13.4,2-16.9c8.3-5.3,14.7,0.8,17.7,3.8c3.4,3.3,8.2,14.4,10.9,22.2c2,5.6,3.7,18.1-0.3,25.3
		C303.7,278.3,296.3,283.2,289.1,283.2L289.1,283.2 M264.5,372.1c-26.9,0-45.2-13.6-52.7-25.3c-4.9-7.7-5.1-14.2-4.3-18.3
		c0.8-4.2,3.3-10.2,10.8-14.7c7.4-4.5,28.7-9.5,46.2-9.5c17.5,0,38.9,5,46.2,9.5c7.4,4.5,10,10.5,10.8,14.7
		c0.8,4.1,0.6,10.7-4.3,18.3C309.6,358.5,291.3,372.1,264.5,372.1L264.5,372.1 M263.6,326.4c-13.3,0-23.2,4-26.7,6.1
		c-2,1.2-2.6,2.3-2.6,2.6c-0.1,0.3,0.1,1.4,1.3,3.3c3.6,5.6,9.7,11.2,28.4,11.2c18.7,0,25.2-5.6,28.8-11.2c1.2-1.9,1.4-3,1.3-3.3
		c-0.1-0.3-0.7-1.4-2.6-2.6C287.9,330.4,276.9,326.4,263.6,326.4L263.6,326.4"/>
</g>
</svg>
