<?xml version="1.0" encoding="utf-8"?>
<!-- Generator: Adobe Illustrator 18.0.0, SVG Export Plug-In . SVG Version: 6.00 Build 0)  -->
<!DOCTYPE svg PUBLIC "-//W3C//DTD SVG 1.1//EN" "http://www.w3.org/Graphics/SVG/1.1/DTD/svg11.dtd">
<svg version="1.1" id="图形" xmlns="http://www.w3.org/2000/svg" xmlns:xlink="http://www.w3.org/1999/xlink" x="0px" y="0px"
	 viewBox="15.167 -16.333 1000.636 1000.678" enable-background="new 15.167 -16.333 1000.636 1000.678" xml:space="preserve">
<g>
	<path fill-rule="evenodd" clip-rule="evenodd" fill="#272536" d="M889.88,512.801h-28.795h-57.59H371.531H227.516V224.852
		c0-47.719,38.666-86.385,86.384-86.385h57.59v57.59h143.974V80.836H371.531h-86.426c-63.611,0-115.179,51.569-115.179,115.18
		v316.785h-28.795c-15.892,0-28.795,12.902-28.795,28.794c0,15.893,12.902,28.795,28.795,28.795h28.795v57.59
		c0,80.282,47.268,149.013,115.179,181.453c0,14.008,0,77.742,0,77.742h57.59v-60.498c9.503,1.352,18.924,2.908,28.795,2.908h287.99
		c9.871,0,19.292-1.515,28.795-2.908v60.498h57.589v-77.742c67.912-32.44,115.18-101.171,115.18-181.453v-57.59h28.795
		c15.892,0,28.795-12.902,28.795-28.795C918.675,525.703,905.772,512.801,889.88,512.801L889.88,512.801z M803.454,616.47
		c0,85.893-69.632,155.525-155.525,155.525H383.041c-85.893,0-155.525-69.632-155.525-155.525v-46.08H371.49h431.964V616.47
		L803.454,616.47z"/>
	<polygon fill-rule="evenodd" clip-rule="evenodd" fill="#272536" points="371.531,253.647 400.326,253.647 400.326,311.236 
		371.531,311.236 371.531,253.647 	"/>
	<polygon fill-rule="evenodd" clip-rule="evenodd" fill="#272536" points="429.121,253.647 457.916,253.647 457.916,311.236 
		429.121,311.236 429.121,253.647 	"/>
	<polygon fill-rule="evenodd" clip-rule="evenodd" fill="#272536" points="486.71,253.647 515.505,253.647 515.505,311.236 
		486.71,311.236 486.71,253.647 	"/>
	<polygon fill-rule="evenodd" clip-rule="evenodd" fill="#272536" points="371.531,340.031 400.326,340.031 400.326,397.621 
		371.531,397.621 371.531,340.031 	"/>
	<polygon fill-rule="evenodd" clip-rule="evenodd" fill="#272536" points="429.121,340.031 457.916,340.031 457.916,397.621 
		429.121,397.621 429.121,340.031 	"/>
	<polygon fill-rule="evenodd" clip-rule="evenodd" fill="#272536" points="486.71,340.031 515.505,340.031 515.505,397.621 
		486.71,397.621 486.71,340.031 	"/>
</g>
</svg>
