<?xml version="1.0" encoding="utf-8"?>
<!-- Generator: Adobe Illustrator 18.0.0, SVG Export Plug-In . SVG Version: 6.00 Build 0)  -->
<!DOCTYPE svg PUBLIC "-//W3C//DTD SVG 1.1//EN" "http://www.w3.org/Graphics/SVG/1.1/DTD/svg11.dtd">
<svg version="1.1" id="图形" xmlns="http://www.w3.org/2000/svg" xmlns:xlink="http://www.w3.org/1999/xlink" x="0px" y="0px"
	 viewBox="15.167 -16.333 1000.636 1000.678" enable-background="new 15.167 -16.333 1000.636 1000.678" xml:space="preserve">
<g>
	<path fill-rule="evenodd" clip-rule="evenodd" fill="#272536" d="M798.056,108.886h-53.59c-34.981,0-98.051,22.376-123.192,53.589
		h-64.367V135.68c0-44.378-36.006-80.382-80.383-80.382c-44.378,0-80.382,36.005-80.382,80.382v26.795h-80.383
		c-14.758,0-26.794,11.984-26.794,26.794c0,14.809,12.036,26.794,26.794,26.794h80.383v14.344
		c-32.033,18.532-53.589,53.166-53.589,92.832c0,10.424,1.495,20.498,4.273,30.028c-97.738,47.989-165.038,148.497-165.038,264.709
		c0,162.755,131.982,294.737,294.737,294.737c162.753,0,294.736-131.982,294.736-294.737c0-116.212-67.301-216.72-165.034-264.708
		c2.775-9.529,4.27-19.604,4.27-30.028c0-39.667-21.556-74.3-53.588-92.833v-14.344h64.366
		c25.141,31.212,88.211,53.588,123.193,53.588h53.589c44.377,0,80.382-36.004,80.382-80.382
		C878.437,144.891,842.433,108.886,798.056,108.886L798.056,108.886z M476.524,108.886c14.758,0,26.795,11.983,26.795,26.794
		c0,14.813-12.038,26.795-26.795,26.795c-14.756,0-26.794-11.984-26.794-26.795C449.729,120.87,461.767,108.886,476.524,108.886
		L476.524,108.886z M422.936,269.651h107.177c14.758,0,26.794,11.985,26.794,26.795c0,14.809-12.038,26.794-26.794,26.794H422.936
		c-14.756,0-26.794-11.985-26.794-26.794C396.142,281.636,408.177,269.651,422.936,269.651L422.936,269.651z M618.5,423.053
		c0.059,0.043,0.116,0.086,0.176,0.127c4.456,3.258,8.796,6.665,13.014,10.213c0.112,0.094,0.222,0.189,0.333,0.282
		c3.045,2.571,6.025,5.214,8.937,7.932c0.148,0.137,0.298,0.275,0.445,0.414c0.936,0.878,1.866,1.763,2.787,2.654
		c0.121,0.117,0.241,0.238,0.363,0.354c2.786,2.708,5.508,5.482,8.161,8.322c0.256,0.272,0.508,0.545,0.763,0.819
		c0.817,0.884,1.634,1.771,2.439,2.666c0.067,0.075,0.134,0.151,0.198,0.225c1.616,1.803,3.205,3.632,4.767,5.483
		c0.251,0.296,0.502,0.59,0.752,0.888c0.714,0.855,1.421,1.716,2.125,2.58c0.32,0.394,0.636,0.791,0.953,1.188
		c2.197,2.734,4.33,5.517,6.406,8.348c0.362,0.496,0.726,0.99,1.085,1.487c0.592,0.821,1.182,1.646,1.763,2.473
		c0.375,0.534,0.743,1.071,1.114,1.609c0.957,1.386,1.9,2.781,2.828,4.187c0.402,0.608,0.808,1.217,1.205,1.83
		c0.509,0.784,1.006,1.574,1.503,2.364c0.411,0.647,0.816,1.296,1.218,1.948c0.477,0.772,0.953,1.543,1.42,2.321
		c0.504,0.838,1,1.683,1.494,2.529c0.649,1.106,1.288,2.218,1.918,3.336c0.447,0.79,0.892,1.579,1.328,2.374
		c0.404,0.737,0.804,1.475,1.201,2.213c0.437,0.816,0.868,1.637,1.296,2.458c0.356,0.685,0.718,1.368,1.068,2.057
		c0.697,1.368,1.38,2.745,2.051,4.127c0.319,0.656,0.629,1.32,0.942,1.978c0.433,0.912,0.859,1.827,1.281,2.748
		c0.312,0.681,0.625,1.364,0.931,2.05c0.484,1.077,0.954,2.158,1.42,3.244c0.283,0.661,0.569,1.323,0.846,1.985
		c0.551,1.315,1.091,2.634,1.618,3.961c0.252,0.632,0.497,1.269,0.745,1.903c0.403,1.043,0.798,2.086,1.188,3.134
		c0.226,0.608,0.456,1.216,0.678,1.826c0.563,1.549,1.113,3.105,1.644,4.668c0.152,0.447,0.295,0.898,0.443,1.343
		c0.409,1.229,0.81,2.458,1.199,3.694c0.191,0.606,0.38,1.214,0.567,1.821c0.373,1.218,0.735,2.443,1.093,3.67
		c0.136,0.476,0.277,0.948,0.414,1.425c0.463,1.64,0.906,3.286,1.336,4.94c0.131,0.508,0.256,1.017,0.385,1.525
		c0.314,1.251,0.623,2.507,0.919,3.766c0.13,0.566,0.263,1.131,0.393,1.695c0.355,1.557,0.698,3.123,1.022,4.692
		c0.035,0.177,0.075,0.35,0.114,0.528c0.35,1.723,0.678,3.455,0.994,5.194c0.097,0.535,0.19,1.074,0.283,1.611
		c0.233,1.328,0.453,2.658,0.661,3.992c0.079,0.497,0.161,0.992,0.234,1.487c0.266,1.762,0.515,3.528,0.742,5.304
		c0.042,0.332,0.079,0.667,0.12,0.999c0.184,1.489,0.354,2.978,0.512,4.475c0.056,0.541,0.111,1.088,0.164,1.631
		c0.145,1.483,0.278,2.968,0.394,4.457c0.027,0.355,0.062,0.71,0.09,1.066c0.137,1.813,0.251,3.633,0.347,5.457
		c0.023,0.462,0.042,0.93,0.065,1.395c0.067,1.428,0.121,2.86,0.163,4.294c0.016,0.532,0.032,1.059,0.043,1.59
		c0.043,1.851,0.072,3.706,0.072,5.569c0,133.188-107.962,241.15-241.148,241.15c-133.187,0-241.149-107.962-241.149-241.15
		c0-1.863,0.027-3.719,0.07-5.569c0.013-0.531,0.029-1.058,0.044-1.59c0.043-1.434,0.097-2.865,0.164-4.294
		c0.021-0.465,0.041-0.932,0.065-1.395c0.096-1.824,0.21-3.644,0.347-5.457c0.026-0.357,0.06-0.712,0.088-1.067
		c0.12-1.488,0.25-2.971,0.396-4.45c0.054-0.549,0.109-1.096,0.166-1.642c0.157-1.494,0.327-2.982,0.512-4.467
		c0.041-0.333,0.078-0.669,0.12-1.001c0.227-1.775,0.477-3.542,0.742-5.304c0.074-0.495,0.154-0.988,0.232-1.482
		c0.209-1.335,0.429-2.668,0.662-3.995c0.093-0.538,0.186-1.079,0.283-1.615c0.316-1.737,0.642-3.468,0.996-5.19
		c0.037-0.177,0.075-0.35,0.114-0.528c0.324-1.57,0.667-3.135,1.022-4.693c0.128-0.565,0.261-1.128,0.393-1.692
		c0.298-1.261,0.605-2.517,0.92-3.769c0.128-0.507,0.253-1.016,0.385-1.523c0.428-1.654,0.874-3.301,1.336-4.942
		c0.135-0.477,0.276-0.947,0.414-1.419c0.355-1.23,0.719-2.456,1.094-3.677c0.186-0.607,0.374-1.213,0.564-1.815
		c0.388-1.236,0.79-2.467,1.199-3.695c0.149-0.446,0.294-0.899,0.445-1.346c0.533-1.564,1.083-3.122,1.646-4.671
		c0.221-0.608,0.448-1.214,0.674-1.819c0.392-1.049,0.79-2.099,1.194-3.141c0.246-0.633,0.49-1.267,0.743-1.898
		c0.531-1.33,1.071-2.658,1.625-3.977c0.274-0.655,0.555-1.305,0.835-1.958c0.467-1.09,0.942-2.176,1.425-3.259
		c0.305-0.682,0.616-1.362,0.927-2.04c0.422-0.923,0.852-1.838,1.285-2.754c0.313-0.66,0.621-1.322,0.939-1.977
		c0.673-1.385,1.357-2.766,2.054-4.134c0.348-0.684,0.706-1.363,1.061-2.044c0.431-0.825,0.864-1.651,1.304-2.47
		c0.396-0.737,0.791-1.47,1.195-2.205c0.442-0.802,0.892-1.602,1.341-2.397c0.62-1.1,1.25-2.195,1.886-3.284
		c0.503-0.857,1.005-1.716,1.518-2.567c0.465-0.773,0.939-1.541,1.414-2.309c0.405-0.656,0.814-1.311,1.227-1.965
		c0.495-0.784,0.992-1.57,1.495-2.348c0.405-0.627,0.82-1.248,1.231-1.872c0.917-1.388,1.848-2.768,2.793-4.138
		c0.375-0.541,0.749-1.088,1.128-1.628c0.58-0.823,1.166-1.644,1.756-2.463c0.362-0.501,0.727-0.999,1.094-1.499
		c2.072-2.827,4.205-5.605,6.395-8.336c0.322-0.4,0.641-0.799,0.963-1.198c0.702-0.862,1.408-1.721,2.119-2.572
		c0.255-0.305,0.512-0.606,0.767-0.906c1.55-1.838,3.127-3.654,4.729-5.443c0.075-0.085,0.151-0.17,0.225-0.255
		c0.801-0.89,1.611-1.771,2.423-2.65c0.263-0.282,0.526-0.565,0.789-0.846c2.642-2.827,5.349-5.587,8.123-8.285
		c0.133-0.127,0.263-0.257,0.394-0.384c0.915-0.886,1.838-1.764,2.769-2.635c0.158-0.148,0.317-0.295,0.474-0.443
		c2.902-2.705,5.868-5.338,8.9-7.899c0.12-0.103,0.241-0.204,0.361-0.305c4.211-3.542,8.544-6.943,12.991-10.193
		c0.067-0.049,0.135-0.099,0.202-0.148c12.433-9.069,25.766-16.977,39.84-23.567c0.001,0,0.002,0,0.002-0.001
		c31.009-14.52,65.611-22.647,102.116-22.647C529.605,376.828,578.671,393.993,618.5,423.053L618.5,423.053z M798.056,216.063
		c-44.327,2.407-133.972-11.985-133.972-26.794c0-14.811,89.594-26.794,133.972-26.794c29.305,0,26.794,11.984,26.794,26.794
		C824.85,204.078,829.036,214.389,798.056,216.063L798.056,216.063z"/>
</g>
</svg>
