<?xml version="1.0" encoding="utf-8"?>
<!-- Generator: Adobe Illustrator 18.0.0, SVG Export Plug-In . SVG Version: 6.00 Build 0)  -->
<!DOCTYPE svg PUBLIC "-//W3C//DTD SVG 1.1//EN" "http://www.w3.org/Graphics/SVG/1.1/DTD/svg11.dtd">
<svg version="1.1" id="图形" xmlns="http://www.w3.org/2000/svg" xmlns:xlink="http://www.w3.org/1999/xlink" x="0px" y="0px"
	 viewBox="0 0 500 500" style="enable-background:new 0 0 500 500;" xml:space="preserve">
<style type="text/css">
	.st0{fill:#272536;}
</style>
<g>
	<path class="st0" d="M410.4,446.3H384c-29.2,0-52.8-23.7-52.8-52.8V235c0-19.5,10.7-36.4,26.4-45.5V169c0-21.9,17.8-39.6,39.6-39.6
		c21.9,0,39.6,17.8,39.6,39.6v20.5c15.7,9.1,26.4,26,26.4,45.5v158.4C463.2,422.6,439.6,446.3,410.4,446.3L410.4,446.3L410.4,446.3
		 M413.5,169c0-7.3-9.7-19.5-17-19.5c-7.3,0-17,12.2-17,19.5v13.2h33.9L413.5,169L413.5,169L413.5,169 M446.8,235
		c0-14.6-11.8-37.1-26.4-37.1h-45.9c-14.5,0-26.4,22.5-26.4,37.1v158.4c0,14.6,11.8,34.6,26.4,34.6h45.9c14.6,0,26.4-20,26.4-34.6
		V235L446.8,235L446.8,235 M397.2,393.5c-7.3,0-11.9-5.9-11.9-13.2v-26.4c0-7.3,4.6-13.2,11.9-13.2c7.3,0,11.9,5.9,11.9,13.2v26.4
		C409.1,387.5,404.5,393.5,397.2,393.5L397.2,393.5L397.2,393.5 M251.9,446.3h-132c-29.2,0-52.8-23.7-52.8-52.8V235
		c0-50.5,38.5-92.5,85.8-103c-2.2-4.9-3.5-10.2-3.5-15.9c0-17.2,14.1-33.8,28.9-37V50.6c-22.1,1-47.8,9.7-63.2,23.7l-0.2-0.3
		c-2.2,1.5-4.6,2.6-7.4,2.6c-7.3,0-13.2-2.8-13.2-10.1c0-5.7,4.2-6.7,9.3-8.5c14-11.3,30.1-19.9,48.2-24.1c2.3-2,5.2-3.2,8.4-3.2
		H213c7.3,0,12.6,2.2,12.6,9.5c0,5.8-3.8,7.5-9.1,9.2l-0.9,0.1L196,50.1v29.1c15.3,5.5,26.4,19.8,26.4,37c0,5.7-1.3,11-3.4,15.9
		c47.3,10.5,85.8,52.5,85.8,103v158.4C304.8,422.6,281.1,446.3,251.9,446.3L251.9,446.3L251.9,446.3 M185.9,99.8
		c-7.3,0-16.7,4.1-17,16.3c-0.1,7.3,5.1,16.3,17,16.3c10.4,0,15.7-9.1,15.7-16.3C201.7,108.9,195.5,98.3,185.9,99.8L185.9,99.8
		L185.9,99.8 M287.8,340.6V235c0-43.8-44.9-88.6-88.6-88.6h-26.4c-43.8,0-88.6,44.9-88.6,88.6v158.4c0,14.6,21.2,35.2,35.8,35.2h132
		c14.6,0,35.8-20.6,35.8-35.2L287.8,340.6L287.8,340.6L287.8,340.6 M222.4,389.1h-73c-14.6,0-26.4-7.4-26.4-22v-79.2
		c0-14.6,11.8-22,26.4-22h73c14.6,0,26.4,7.5,26.4,22V367c0,14.6-8.7,22-23.3,22L222.4,389.1L222.4,389.1 M219.2,287.8h-66.6
		c-7.3,0-13.2,5.9-13.2,13.2c0,7.3,5.9,13.2,13.2,13.2h66.5c7.3,0,13.2-5.9,13.2-13.2c0-7.3-12.8-13.2-20.1-13.2H219.2L219.2,287.8
		 M218,340.6h-64.7c-7.3,0-13.2,5.9-13.2,13.2c0,7.2,5.9,15.7,13.2,15.7H218c7.3,0,13.2-8.4,13.2-15.7c0-7.3-11.6-13.2-18.9-13.2
		H218L218,340.6"/>
</g>
</svg>
