<?xml version="1.0" encoding="utf-8"?>
<!-- Generator: Adobe Illustrator 18.0.0, SVG Export Plug-In . SVG Version: 6.00 Build 0)  -->
<!DOCTYPE svg PUBLIC "-//W3C//DTD SVG 1.1//EN" "http://www.w3.org/Graphics/SVG/1.1/DTD/svg11.dtd">
<svg version="1.1" id="图形" xmlns="http://www.w3.org/2000/svg" xmlns:xlink="http://www.w3.org/1999/xlink" x="0px" y="0px"
	 viewBox="0 0 500 500" style="enable-background:new 0 0 500 500;" xml:space="preserve">
<style type="text/css">
	.st0{fill:#272536;}
</style>
<g>
	<path class="st0" d="M452.2,248.1h-14.4h-28.8H193.2h-72V104.2c0-23.8,19.3-43.2,43.2-43.2h28.8v28.8h71.9V32.2h-71.9h-43.2
		c-31.8,0-57.6,25.8-57.6,57.6v158.3H78.1c-7.9,0-14.4,6.4-14.4,14.4c0,7.9,6.4,14.4,14.4,14.4h14.4v28.8
		c0,40.1,23.6,74.5,57.6,90.7c0,7,0,38.8,0,38.8h28.8v-30.2c4.7,0.7,9.5,1.5,14.4,1.5h143.9c4.9,0,9.6-0.8,14.4-1.5v30.2h28.8v-38.8
		c33.9-16.2,57.6-50.6,57.6-90.7v-28.8h14.4c7.9,0,14.4-6.4,14.4-14.4C466.6,254.5,460.2,248.1,452.2,248.1L452.2,248.1z
		 M409.1,299.9c0,42.9-34.8,77.7-77.7,77.7H199c-42.9,0-77.7-34.8-77.7-77.7v-23h71.9h215.8V299.9L409.1,299.9z"/>
	<polygon class="st0" points="193.2,118.6 207.6,118.6 207.6,147.3 193.2,147.3 	"/>
	<polygon class="st0" points="222,118.6 236.4,118.6 236.4,147.3 222,147.3 	"/>
	<polygon class="st0" points="250.8,118.6 265.2,118.6 265.2,147.3 250.8,147.3 	"/>
	<polygon class="st0" points="193.2,161.7 207.6,161.7 207.6,190.5 193.2,190.5 	"/>
	<polygon class="st0" points="222,161.7 236.4,161.7 236.4,190.5 222,190.5 	"/>
	<polygon class="st0" points="250.8,161.7 265.2,161.7 265.2,190.5 250.8,190.5 	"/>
</g>
</svg>
