<?xml version="1.0" encoding="utf-8"?>
<!-- Generator: Adobe Illustrator 18.0.0, SVG Export Plug-In . SVG Version: 6.00 Build 0)  -->
<!DOCTYPE svg PUBLIC "-//W3C//DTD SVG 1.1//EN" "http://www.w3.org/Graphics/SVG/1.1/DTD/svg11.dtd">
<svg version="1.1" id="图形" xmlns="http://www.w3.org/2000/svg" xmlns:xlink="http://www.w3.org/1999/xlink" x="0px" y="0px"
	 viewBox="15.167 -16.333 1000.636 1000.678" style="enable-background:new 15.167 -16.333 1000.636 1000.678;"
	 xml:space="preserve">
<style type="text/css">
	.st0{fill:#CCCCCC;}
</style>
<g>
	<g>
		<path class="st0" d="M490.619,845.382c-118.458,0-228.874-52.93-302.936-145.217c-32.788-40.856-56.598-86.927-70.768-136.933
			c-13.683-48.285-17.837-98.169-12.349-148.268c5.489-50.098,20.346-97.899,44.159-142.077
			c24.661-45.751,57.88-85.574,98.737-118.361c35.035-28.116,74.147-49.741,116.251-64.273
			C404.401,76.21,446.946,69.09,490.164,69.09c118.458,0,228.874,52.93,302.936,145.217c32.788,40.856,56.598,86.927,70.768,136.932
			c13.682,48.285,17.837,98.17,12.348,148.268c-5.488,50.099-20.346,97.899-44.158,142.077
			c-24.66,45.751-57.881,85.573-98.736,118.361c-35.035,28.116-74.147,49.74-116.251,64.272
			C576.38,838.261,533.836,845.382,490.619,845.382z M490.164,123.09c-76.707,0-148.945,25.434-208.904,73.553
			c-69.607,55.861-113.294,135.485-123.014,224.204c-9.72,88.719,15.691,175.914,71.552,245.52
			c63.759,79.449,158.824,125.016,260.821,125.016c76.707,0,148.944-25.435,208.903-73.553
			C843.214,602.514,866.3,391.796,750.985,248.104C687.226,168.656,592.161,123.09,490.164,123.09z"/>
	</g>
	<g>
		<path class="st0" d="M823.202,898.923c-7.906,0-15.74-3.456-21.074-10.102L695.364,755.786
			c-9.333-11.63-7.472-28.624,4.158-37.957c11.631-9.331,28.623-7.471,37.957,4.158l106.764,133.035
			c9.333,11.63,7.472,28.624-4.158,37.957C835.1,896.979,829.13,898.923,823.202,898.923z"/>
	</g>
</g>
</svg>
