<?xml version="1.0" standalone="no"?><!DOCTYPE svg PUBLIC "-//W3C//DTD SVG 1.1//EN" "http://www.w3.org/Graphics/SVG/1.1/DTD/svg11.dtd"><svg height="200" width="200" xmlns:xlink="http://www.w3.org/1999/xlink" class="icon" style="" viewBox="0 0 1024 1024" version="1.1" xmlns="http://www.w3.org/2000/svg" p-id="8078"><defs><style type="text/css"><![CDATA[

]]></style></defs><path d="M977.220131 388.241834c-5.473334-16.906521-20.068892-29.312745-37.705191-31.866968L673.024383 309.547452 553.827329 69.693788c-7.784297-15.933484-24.08267-26.028745-41.840599-26.028745-17.757928 0-34.056301 10.095261-41.962228 26.028745l-119.075425 239.853664-266.490557 48.4086c-17.636299 2.554223-32.231857 14.960447-37.705191 31.866968-5.594964 16.906521-0.973037 35.515857 11.798076 47.922081L251.456026 615.932534 200.979722 874.882053c-3.040741 17.514669 4.135408 35.394227 18.609336 45.732747 8.149186 5.959853 17.757928 9.000594 27.4883 9.000594 7.419408 0 14.960447-1.824445 21.771707-5.351704l243.137665-118.832165 241.678109 118.832165c6.81126 3.52726 14.352298 5.351704 21.771707 5.351704 9.608742 0 19.339114-3.040741 27.366671-9.000594 14.352298-10.33852 21.771707-28.218078 18.730966-45.732747L772.760694 615.932534l192.904621-179.890248C978.314798 423.757691 982.815095 405.148355 977.220131 388.241834L977.220131 388.241834zM977.220131 388.241834" p-id="8079"></path></svg>