<?xml version="1.0" encoding="utf-8"?>
<!-- Generator: Adobe Illustrator 18.0.0, SVG Export Plug-In . SVG Version: 6.00 Build 0)  -->
<!DOCTYPE svg PUBLIC "-//W3C//DTD SVG 1.1//EN" "http://www.w3.org/Graphics/SVG/1.1/DTD/svg11.dtd">
<svg version="1.1" id="图形" xmlns="http://www.w3.org/2000/svg" xmlns:xlink="http://www.w3.org/1999/xlink" x="0px" y="0px"
	 viewBox="0 0 1000 1000" style="enable-background:new 0 0 1000 1000;" xml:space="preserve">
<style type="text/css">
	.st0{fill:#BCBCBC;}
</style>
<g>
	<path class="st0" d="M906.219,863.112l-19.121,19.122c-14.341,14.341-38.244,14.341-52.585,0L700.661,743.602
		c-62.145,43.024-138.632,71.706-219.899,71.706c-200.777,0-368.091-167.315-368.091-372.872
		c0-200.777,167.315-368.091,372.872-368.091s372.872,167.315,372.872,372.872c0,86.047-28.683,167.314-81.267,234.24L911,815.308
		C920.56,824.869,920.56,848.77,906.219,863.112L906.219,863.112z M485.543,169.953c-152.973,0-277.264,124.291-277.264,272.483
		S332.57,714.919,485.543,714.919s277.264-124.291,277.264-272.483S633.736,169.953,485.543,169.953L485.543,169.953z"/>
</g>
</svg>
