<?xml version="1.0" encoding="utf-8"?>
<!-- Generator: Adobe Illustrator 18.0.0, SVG Export Plug-In . SVG Version: 6.00 Build 0)  -->
<!DOCTYPE svg PUBLIC "-//W3C//DTD SVG 1.1//EN" "http://www.w3.org/Graphics/SVG/1.1/DTD/svg11.dtd">
<svg version="1.1" id="图形" xmlns="http://www.w3.org/2000/svg" xmlns:xlink="http://www.w3.org/1999/xlink" x="0px" y="0px"
	 viewBox="15.167 -16.333 1000.636 1000.678" enable-background="new 15.167 -16.333 1000.636 1000.678" xml:space="preserve">
<g>
	<path fill-rule="evenodd" clip-rule="evenodd" fill="#272536" d="M659.939,918.727c-18.322,0-38.795-2.101-60.488-4.397
		c-51.742-5.326-110.373-5.326-162.066,0c-21.694,2.296-42.165,4.397-60.488,4.397c-19.495,0-47.735-2.101-67.963-20.472
		c-17.931-16.27-26.628-42.117-26.628-79.006V473.227c0-138.467,114.135-138.467,235.013-138.467
		c123.175,0,237.359,0,237.359,138.467v346.022C754.629,908.417,700.639,918.727,659.939,918.727L659.939,918.727z M518.443,872.212
		c30.341,0,59.266,3.029,84.869,5.668c20.814,2.199,39.869,4.202,56.677,4.202c39.331,0,58.045-9.381,58.045-62.833V473.227
		c0-97.278-68.061-101.823-198.418-101.823c-132.604,0-200.616,4.544-200.616,101.823v346.022c0,25.993,4.788,42.947,14.608,51.889
		c14.756,13.339,52.915,11.775,100.016,6.791C459.128,875.193,488.102,872.212,518.443,872.212L518.443,872.212z"/>
	<path fill-rule="evenodd" clip-rule="evenodd" fill="#272536" d="M682.317,366.909h-36.644v-57.165
		c0-74.315-57.068-134.803-127.23-134.803s-127.23,60.488-127.23,134.803v57.165h-36.644v-57.165
		c0-94.493,73.484-171.447,163.874-171.447s163.874,76.904,163.874,171.447V366.909L682.317,366.909z"/>
	<path fill-rule="evenodd" clip-rule="evenodd" fill="#272536" d="M591.78,176.993h-36.644c0-48.078-4.3-97.181-36.156-97.181
		c-31.857,0-36.157,49.103-36.157,97.181H446.18c0-40.065,0-133.826,72.801-133.826C591.78,43.167,591.78,136.928,591.78,176.993
		L591.78,176.993z"/>
	<polygon fill-rule="evenodd" clip-rule="evenodd" fill="#272536" points="559.924,530.685 727.121,530.685 727.121,567.331 
		559.924,567.331 559.924,530.685 	"/>
	<polygon fill-rule="evenodd" clip-rule="evenodd" fill="#272536" points="556.113,613.112 723.261,613.112 723.261,649.756 
		556.113,649.756 556.113,613.112 	"/>
	<polygon fill-rule="evenodd" clip-rule="evenodd" fill="#272536" points="559.924,695.586 727.121,695.586 727.121,732.231 
		559.924,732.231 559.924,695.586 	"/>
</g>
</svg>
