<?xml version="1.0" encoding="utf-8"?>
<!-- Generator: Adobe Illustrator 18.0.0, SVG Export Plug-In . SVG Version: 6.00 Build 0)  -->
<!DOCTYPE svg PUBLIC "-//W3C//DTD SVG 1.1//EN" "http://www.w3.org/Graphics/SVG/1.1/DTD/svg11.dtd">
<svg version="1.1" id="图形" xmlns="http://www.w3.org/2000/svg" xmlns:xlink="http://www.w3.org/1999/xlink" x="0px" y="0px"
	 viewBox="0 0 500 500" style="enable-background:new 0 0 500 500;" xml:space="preserve">
<style type="text/css">
	.st0{fill:#272536;}
</style>
<g>
	<path class="st0" d="M337.3,450.9c-9.2,0-19.4-1-30.2-2.2c-25.9-2.7-55.1-2.7-81,0c-10.8,1.1-21.1,2.2-30.2,2.2
		c-9.7,0-23.9-1-34-10.2c-9-8.1-13.3-21-13.3-39.5V228.3c0-69.2,57-69.2,117.4-69.2c61.5,0,118.6,0,118.6,69.2v172.9
		C384.7,445.7,357.7,450.9,337.3,450.9L337.3,450.9z M266.6,427.6c15.2,0,29.6,1.5,42.4,2.8c10.4,1.1,19.9,2.1,28.3,2.1
		c19.7,0,29-4.7,29-31.4V228.3c0-48.6-34-50.9-99.1-50.9c-66.3,0-100.2,2.3-100.2,50.9v172.9c0,13,2.4,21.5,7.3,25.9
		c7.4,6.7,26.4,5.9,50,3.4C237,429.1,251.5,427.6,266.6,427.6L266.6,427.6z"/>
	<path class="st0" d="M348.5,175.2h-18.3v-28.6c0-37.1-28.5-67.4-63.6-67.4c-35.1,0-63.6,30.2-63.6,67.4v28.6h-18.3v-28.6
		c0-47.2,36.7-85.7,81.9-85.7s81.9,38.4,81.9,85.7V175.2L348.5,175.2z"/>
	<path class="st0" d="M303.3,80.3H285c0-24-2.1-48.6-18.1-48.6c-15.9,0-18.1,24.5-18.1,48.6h-18.3c0-20,0-66.9,36.4-66.9
		C303.3,13.4,303.3,60.2,303.3,80.3L303.3,80.3z"/>
	<polygon class="st0" points="287.4,257 370.9,257 370.9,275.3 287.4,275.3 	"/>
	<polygon class="st0" points="285.5,298.2 369,298.2 369,316.5 285.5,316.5 	"/>
	<polygon class="st0" points="287.4,339.4 370.9,339.4 370.9,357.7 287.4,357.7 	"/>
</g>
</svg>
