<?xml version="1.0" encoding="utf-8"?>
<!-- Generator: Adobe Illustrator 18.0.0, SVG Export Plug-In . SVG Version: 6.00 Build 0)  -->
<!DOCTYPE svg PUBLIC "-//W3C//DTD SVG 1.1//EN" "http://www.w3.org/Graphics/SVG/1.1/DTD/svg11.dtd">
<svg version="1.1" id="图形" xmlns="http://www.w3.org/2000/svg" xmlns:xlink="http://www.w3.org/1999/xlink" x="0px" y="0px"
	 viewBox="15.167 -16.333 1000.636 1000.678" enable-background="new 15.167 -16.333 1000.636 1000.678" xml:space="preserve">
<g>
	<path fill-rule="evenodd" clip-rule="evenodd" fill="#272536" d="M826.599,396.362h10.359c5.18-31.078-5.18-62.157-31.078-88.055
		L588.334,90.76c-41.438-41.438-108.774-41.438-145.032,0L220.576,308.307c-20.719,25.898-31.078,56.976-25.899,88.055h10.359
		c-25.898,0-51.796,25.898-51.796,51.797v103.593c0,25.899,25.899,51.797,51.796,51.797v258.984
		c0,25.898,25.899,51.797,51.797,51.797h517.969c25.898,0,51.797-25.898,51.797-51.797V603.549
		c25.898,0,51.797-25.898,51.797-51.797V448.158C878.396,422.26,852.497,396.362,826.599,396.362L826.599,396.362z M262.014,349.745
		L479.56,132.198c20.719-20.718,51.797-20.718,72.516,0l217.546,217.547c15.54,15.539,15.54,31.077,10.36,46.617H246.474
		C241.294,380.822,246.474,360.104,262.014,349.745L262.014,349.745z M774.802,862.533H256.833V603.549h517.969V862.533
		L774.802,862.533z M826.599,551.752h-51.797H256.833h-51.797V448.158h621.563V551.752L826.599,551.752z"/>
	<path fill-rule="evenodd" clip-rule="evenodd" fill="#272536" d="M562.435,194.353c-10.359-5.179-31.078-5.179-41.438,0
		c-5.18,10.36-5.18,31.079,0,41.438l36.258,36.258c10.359,10.359,25.898,10.359,36.258,0c10.359-10.359,10.359-25.898,0-36.258
		L562.435,194.353L562.435,194.353z"/>
	<path fill-rule="evenodd" clip-rule="evenodd" fill="#272536" d="M645.31,318.666 M619.411,318.666"/>
</g>
</svg>
