<?xml version="1.0" encoding="utf-8"?>
<!-- Generator: Adobe Illustrator 18.0.0, SVG Export Plug-In . SVG Version: 6.00 Build 0)  -->
<!DOCTYPE svg PUBLIC "-//W3C//DTD SVG 1.1//EN" "http://www.w3.org/Graphics/SVG/1.1/DTD/svg11.dtd">
<svg version="1.1" id="图形" xmlns="http://www.w3.org/2000/svg" xmlns:xlink="http://www.w3.org/1999/xlink" x="0px" y="0px"
	 viewBox="0 0 500 500" style="enable-background:new 0 0 500 500;" xml:space="preserve">
<style type="text/css">
	.st0{fill:#272536;}
</style>
<g>
	<path class="st0" d="M410.6,204.7h5.2c2.6-15.5-2.6-31.1-15.5-44L291.6,52c-20.7-20.7-54.4-20.7-72.5,0L107.8,160.7
		c-10.4,12.9-15.5,28.5-12.9,44h5.2c-12.9,0-25.9,12.9-25.9,25.9v51.8c0,12.9,12.9,25.9,25.9,25.9v129.4c0,12.9,12.9,25.9,25.9,25.9
		h258.8c12.9,0,25.9-12.9,25.9-25.9V308.2c12.9,0,25.9-12.9,25.9-25.9v-51.8C436.5,217.6,423.6,204.7,410.6,204.7L410.6,204.7z
		 M128.5,181.4L237.2,72.7c10.4-10.4,25.9-10.4,36.2,0l108.7,108.7c7.8,7.8,7.8,15.5,5.2,23.3H120.8
		C118.2,196.9,120.8,186.6,128.5,181.4L128.5,181.4z M384.7,437.6H125.9V308.2h258.8V437.6L384.7,437.6z M410.6,282.4h-25.9H125.9
		H100v-51.8h310.6V282.4L410.6,282.4z"/>
	<path class="st0" d="M278.6,103.8c-5.2-2.6-15.5-2.6-20.7,0c-2.6,5.2-2.6,15.5,0,20.7l18.1,18.1c5.2,5.2,12.9,5.2,18.1,0
		c5.2-5.2,5.2-12.9,0-18.1L278.6,103.8L278.6,103.8z"/>
	<path class="st0" d="M307.1,165.9"/>
</g>
</svg>
