<?xml version="1.0" encoding="utf-8"?>
<!-- Generator: Adobe Illustrator 18.0.0, SVG Export Plug-In . SVG Version: 6.00 Build 0)  -->
<!DOCTYPE svg PUBLIC "-//W3C//DTD SVG 1.1//EN" "http://www.w3.org/Graphics/SVG/1.1/DTD/svg11.dtd">
<svg version="1.1" id="图形" xmlns="http://www.w3.org/2000/svg" xmlns:xlink="http://www.w3.org/1999/xlink" x="0px" y="0px"
	 viewBox="0 0 500 500" style="enable-background:new 0 0 500 500;" xml:space="preserve">
<style type="text/css">
	.st0{fill:#272536;}
</style>
<g>
	<path class="st0" d="M453.8,263.5c-10.4,12-23.2,19.3-38.4,21.7v8.2v84.2c0,9.1-2.9,17.2-8.7,24.2c-5.8,7-13.1,11.4-22,13.3v8.2
		c0,2.4-1,4.6-3,6.6c-2,2-4.3,3-6.9,3c-2.6,0-4.8-1-6.6-3c-1.8-2-2.7-4.2-2.7-6.6v-7.8H164.3v7.8c0,2.4-0.9,4.6-2.7,6.6
		c-1.8,2-4.1,3-6.9,3c-2.7,0-5-1-6.9-3c-1.8-2-2.7-4.2-2.7-6.6v-8.2c-8.8-1.8-16.2-6.3-22-13.3c-5.8-7-8.7-15.1-8.7-24.2v-84.2v-8.2
		c-15.2-2.4-28.1-9.7-38.4-21.7c-10.4-12-15.5-26.1-15.5-42.3c0-16.2,5.3-30.3,16-42.5c10.7-12.2,23.9-19.4,39.8-21.5
		c4.6-36.6,20.3-67.5,47.1-92.8c29-27.1,63.1-40.7,102.4-40.7c38.1,0,71.4,12.8,99.9,38.4c28.5,25.6,45,57.5,49.6,95.6
		c15.2,2.4,28,9.7,38.4,21.7c10.4,12,15.5,26,15.5,41.8C469.3,237.4,464.2,251.5,453.8,263.5L453.8,263.5z M437.3,253.7
		c8.8-8.8,13.3-19.6,13.3-32.2c0-12.6-4.4-23.4-13.3-32.2c-8.8-8.8-19.4-13.3-31.6-13.3c-12.5,0-23.1,4.4-31.8,13.3
		c-8.7,8.8-13.2,19.5-13.5,32l0.9,8.2v0.5v109.3c0,2.7-0.9,5-2.7,6.9c-1.8,1.8-4.1,2.7-6.9,2.7H178c-2.7,0-5-0.9-6.9-2.7
		c-1.8-1.8-2.7-4.1-2.7-6.9V229.9v-0.5l0.9-8.2c-0.3-12.5-4.8-23.2-13.5-32c-8.7-8.8-19.3-13.3-31.8-13.3
		c-12.2,0-22.7,4.4-31.6,13.3c-8.8,8.8-13.3,19.6-13.3,32.2c0,12.7,4.4,23.4,13.3,32.2c8.8,8.8,19.4,13.3,31.6,13.3
		c2.7,0,5,0.9,6.9,2.7c1.8,1.8,2.7,4.1,2.7,6.9l-0.5,16.9v84.2c0,5.2,1.8,9.6,5.5,13.3c3.7,3.7,8.2,5.5,13.7,5.5h225
		c5.5,0,10.1-1.8,13.7-5.5c3.7-3.7,5.5-8.1,5.5-13.3v-84.2l-0.5-16.9c0-2.7,0.9-5,2.7-6.9c1.8-1.8,4.1-2.7,6.9-2.7
		C418,266.9,428.5,262.5,437.3,253.7L437.3,253.7z M135.5,158.1c14.9,2.4,27.4,9.7,37.5,21.7c10.1,12,15.1,25.8,15.1,41.4v0.9
		l-0.5,8.2v56.7h154.6v-56.7l-0.5-8.2v-0.9c0-15.8,5.2-29.8,15.5-41.8c10.4-12,23.3-19.3,38.9-21.7c-4.3-32.6-18.8-60-43.7-82.1
		c-24.9-22.1-53.7-33.2-86.7-33.2c-32.9,0-61.8,11.1-86.7,33.2C154.3,97.7,139.8,125.2,135.5,158.1L135.5,158.1z M187.6,330.1h154.6
		v-23.8H187.6V330.1L187.6,330.1z"/>
</g>
</svg>
