<?xml version="1.0" encoding="utf-8"?>
<!-- Generator: Adobe Illustrator 18.0.0, SVG Export Plug-In . SVG Version: 6.00 Build 0)  -->
<!DOCTYPE svg PUBLIC "-//W3C//DTD SVG 1.1//EN" "http://www.w3.org/Graphics/SVG/1.1/DTD/svg11.dtd">
<svg version="1.1" id="图形" xmlns="http://www.w3.org/2000/svg" xmlns:xlink="http://www.w3.org/1999/xlink" x="0px" y="0px"
	 viewBox="15.167 -16.333 1000.636 1000.678" enable-background="new 15.167 -16.333 1000.636 1000.678" xml:space="preserve">
<g>
	<path fill-rule="evenodd" clip-rule="evenodd" fill="#272536" d="M103.088,430.569v143.697c0,160.72,143.319,218.08,194.95,233.529
		v57.655h434.889h0.002v-57.522c51.906-15.229,194.951-72.608,194.951-242.391V430.568L103.088,430.569L103.088,430.569
		L103.088,430.569z M882.889,565.537c0,168.395-169.271,201.475-176.432,202.793l-18.517,3.309v48.824l-344.914,0l-0.045-48.516
		l-18.158-3.558c-7.221-1.419-176.75-36.494-176.75-194.123v-23.725h734.813v14.996H882.889L882.889,565.537z M882.889,520.543
		H148.077v-44.989h734.814L882.889,520.543L882.889,520.543L882.889,520.543z M448.001,160.647h464.881v44.988H448.001V160.647
		L448.001,160.647z M118.084,160.647h44.99v44.988h-44.99V160.647L118.084,160.647z M118.084,250.621h44.99v44.989h-44.99V250.621
		L118.084,250.621z M448.001,250.621h464.881v44.989H448.001V250.621L448.001,250.621z M171.494,411.334
		c47.214-10.044,63.954-47.521,66.397-68.082l0.154-169.011c0-28.126,30.989-36.034,35.162-36.086l-0.006-44.986
		c-27.07,0-80.142,24.477-80.142,81.072v164.6c-0.878,4.357-6.1,23.21-30.924,28.489L171.494,411.334L171.494,411.334z
		 M261.471,411.334c47.215-10.044,63.953-47.521,66.399-68.082l0.154-169.011c0-28.126,30.99-36.034,35.162-36.086l-0.007-44.986
		c-27.071,0-80.144,24.477-80.144,81.072v164.6c-0.879,4.357-6.097,23.21-30.924,28.489L261.471,411.334L261.471,411.334z
		 M351.447,411.334c47.217-10.044,63.954-47.521,66.4-68.082l0.153-169.011c0-28.126,30.988-36.034,35.163-36.086l-0.007-44.986
		c-27.071,0-80.143,24.477-80.143,81.072v164.6c-0.88,4.357-6.099,23.21-30.924,28.489L351.447,411.334L351.447,411.334z"/>
</g>
</svg>
