<?xml version="1.0" encoding="utf-8"?>
<!-- Generator: Adobe Illustrator 18.0.0, SVG Export Plug-In . SVG Version: 6.00 Build 0)  -->
<!DOCTYPE svg PUBLIC "-//W3C//DTD SVG 1.1//EN" "http://www.w3.org/Graphics/SVG/1.1/DTD/svg11.dtd">
<svg version="1.1" id="图形" xmlns="http://www.w3.org/2000/svg" xmlns:xlink="http://www.w3.org/1999/xlink" x="0px" y="0px"
	 viewBox="0 0 500 500" style="enable-background:new 0 0 500 500;" xml:space="preserve">
<style type="text/css">
	.st0{fill:#272536;}
</style>
<g>
	<path class="st0" d="M59.1,207v71.8c0,80.3,71.6,109,97.4,116.7v28.8h217.3h0v-28.7c25.9-7.6,97.4-36.3,97.4-121.1V207L59.1,207
		L59.1,207L59.1,207z M448.7,274.4c0,84.1-84.6,100.7-88.2,101.3l-9.3,1.7v24.4H179l0-24.2l-9.1-1.8c-3.6-0.7-88.3-18.2-88.3-97
		v-11.9h367.2L448.7,274.4L448.7,274.4L448.7,274.4z M448.7,251.9H81.6v-22.5h367.2L448.7,251.9L448.7,251.9L448.7,251.9z
		 M231.4,72.1h232.3v22.5H231.4V72.1L231.4,72.1z M66.6,72.1h22.5v22.5H66.6V72.1L66.6,72.1z M66.6,117.1h22.5v22.5H66.6V117.1
		L66.6,117.1z M231.4,117.1h232.3v22.5H231.4V117.1L231.4,117.1z M93.3,197.4c23.6-5,32-23.7,33.2-34l0.1-84.4
		c0-14.1,15.5-18,17.6-18l0-22.5c-13.5,0-40,12.2-40,40.5v82.2c-0.4,2.2-3,11.6-15.5,14.2L93.3,197.4L93.3,197.4z M138.2,197.4
		c23.6-5,32-23.7,33.2-34l0.1-84.4c0-14.1,15.5-18,17.6-18l0-22.5c-13.5,0-40,12.2-40,40.5v82.2c-0.4,2.2-3,11.6-15.5,14.2
		L138.2,197.4L138.2,197.4z M183.2,197.4c23.6-5,32-23.7,33.2-34l0.1-84.4c0-14.1,15.5-18,17.6-18l0-22.5c-13.5,0-40,12.2-40,40.5
		v82.2c-0.4,2.2-3,11.6-15.5,14.2L183.2,197.4L183.2,197.4z"/>
</g>
</svg>
