<?xml version="1.0" encoding="utf-8"?>
<!-- Generator: Adobe Illustrator 18.0.0, SVG Export Plug-In . SVG Version: 6.00 Build 0)  -->
<!DOCTYPE svg PUBLIC "-//W3C//DTD SVG 1.1//EN" "http://www.w3.org/Graphics/SVG/1.1/DTD/svg11.dtd">
<svg version="1.1" id="图形" xmlns="http://www.w3.org/2000/svg" xmlns:xlink="http://www.w3.org/1999/xlink" x="0px" y="0px"
	 viewBox="15.167 -16.333 1000.636 1000.678" enable-background="new 15.167 -16.333 1000.636 1000.678" xml:space="preserve">
<g>
	<path fill-rule="evenodd" clip-rule="evenodd" fill="#272536" d="M923.874,214.528c-25.531-51.061-61.682-79.183-101.794-79.183
		H216.888c-40.112,0-76.262,28.121-101.793,79.183c-22.519,45.038-34.92,104.31-34.92,166.902v437.483
		c0,10.035,5.496,19.263,14.319,24.042c8.823,4.779,19.556,4.344,27.96-1.139l68.577-44.724l65.14,44.413
		c9.205,6.276,21.3,6.337,30.569,0.159l66.981-44.654l68.218,44.764c9.062,5.947,20.78,5.98,29.873,0.084l69.28-44.908
		l67.074,44.715c4.583,3.056,9.87,4.592,15.169,4.592c4.86,0,9.728-1.294,14.065-3.896l109.379-65.622
		c8.235-4.942,13.274-13.843,13.274-23.447V580.56c23.052,30.52,51.382,46.956,82.028,46.956c40.112,0,76.263-28.121,101.793-79.183
		c22.52-45.039,34.921-104.31,34.921-166.902S946.394,259.566,923.874,214.528L923.874,214.528z M685.367,737.809l-81.264,48.755
		l-67.632-45.088c-9.078-6.051-20.885-6.126-30.04-0.193l-69.4,44.985l-68.429-44.902c-9.167-6.016-21.043-5.974-30.168,0.109
		l-66.69,44.461l-64.974-44.302c-9.122-6.219-21.091-6.342-30.339-0.311l-41.571,27.112l0-250.293
		c15.1,0,27.343-12.242,27.343-27.343c0-15.1-12.242-27.343-27.343-27.343V381.43c0-109.545,43.307-191.399,82.028-191.399h517.645
		c-5.042,7.461-9.807,15.625-14.244,24.497c-22.519,45.038-34.921,104.31-34.921,166.902v356.379H685.367L685.367,737.809z
		 M822.081,572.829c-38.721,0-82.028-81.854-82.028-191.399s43.307-191.399,82.028-191.399c38.721,0,82.028,81.854,82.028,191.399
		S860.802,572.829,822.081,572.829L822.081,572.829z"/>
	<path fill-rule="evenodd" clip-rule="evenodd" fill="#272536" d="M789.496,381.793"/>
	<path fill-rule="evenodd" clip-rule="evenodd" fill="#272536" d="M628.852,463.458h-27.343c-15.1,0-27.343,12.242-27.343,27.343
		c0,15.1,12.242,27.343,27.343,27.343h27.343c15.1,0,27.343-12.242,27.343-27.343C656.195,475.7,643.952,463.458,628.852,463.458
		L628.852,463.458z"/>
	<path fill-rule="evenodd" clip-rule="evenodd" fill="#272536" d="M309.853,463.458h-58.331c-15.1,0-27.343,12.242-27.343,27.343
		c0,15.1,12.242,27.343,27.343,27.343h58.331c15.1,0,27.343-12.242,27.343-27.343C337.196,475.7,324.954,463.458,309.853,463.458
		L309.853,463.458z"/>
	<path fill-rule="evenodd" clip-rule="evenodd" fill="#272536" d="M484.847,463.458h-58.331c-15.1,0-27.343,12.242-27.343,27.343
		c0,15.1,12.242,27.343,27.343,27.343h58.331c15.1,0,27.343-12.242,27.343-27.343C512.189,475.7,499.947,463.458,484.847,463.458
		L484.847,463.458z"/>
</g>
</svg>
