<?xml version="1.0" encoding="utf-8"?>
<!-- Generator: Adobe Illustrator 18.0.0, SVG Export Plug-In . SVG Version: 6.00 Build 0)  -->
<!DOCTYPE svg PUBLIC "-//W3C//DTD SVG 1.1//EN" "http://www.w3.org/Graphics/SVG/1.1/DTD/svg11.dtd">
<svg version="1.1" id="图形" xmlns="http://www.w3.org/2000/svg" xmlns:xlink="http://www.w3.org/1999/xlink" x="0px" y="0px"
	 viewBox="0 0 500 500" style="enable-background:new 0 0 500 500;" xml:space="preserve">
<style type="text/css">
	.st0{fill:#272536;}
</style>
<g>
	<path class="st0" d="M469.2,99c-12.8-25.5-30.8-39.6-50.9-39.6H116c-20,0-38.1,14.1-50.9,39.6c-11.3,22.5-17.4,52.1-17.4,83.4V401
		c0,5,2.7,9.6,7.2,12s9.8,2.2,14-0.6l34.3-22.3l32.5,22.2c4.6,3.1,10.6,3.2,15.3,0.1l33.5-22.3l34.1,22.4c4.5,3,10.4,3,14.9,0
		L268,390l33.5,22.3c2.3,1.5,4.9,2.3,7.6,2.3c2.4,0,4.9-0.6,7-1.9l54.7-32.8c4.1-2.5,6.6-6.9,6.6-11.7v-86.3
		c11.5,15.2,25.7,23.5,41,23.5c20,0,38.1-14.1,50.9-39.6c11.3-22.5,17.4-52.1,17.4-83.4S480.5,121.5,469.2,99L469.2,99z
		 M350.1,360.5l-40.6,24.4l-33.8-22.5c-4.5-3-10.4-3.1-15-0.1L226,384.7l-34.2-22.4c-4.6-3-10.5-3-15.1,0.1l-33.3,22.2l-32.5-22.1
		c-4.6-3.1-10.5-3.2-15.2-0.2L75,375.8V250.7c7.5,0,13.7-6.1,13.7-13.7c0-7.5-6.1-13.7-13.7-13.7v-41c0-54.7,21.6-95.6,41-95.6
		h258.6c-2.5,3.7-4.9,7.8-7.1,12.2c-11.3,22.5-17.4,52.1-17.4,83.4L350.1,360.5L350.1,360.5L350.1,360.5z M418.4,278
		c-19.3,0-41-40.9-41-95.6s21.6-95.6,41-95.6s41,40.9,41,95.6S437.7,278,418.4,278L418.4,278z"/>
	<path class="st0" d="M402.1,182.6"/>
	<path class="st0" d="M321.8,223.4h-13.7c-7.5,0-13.7,6.1-13.7,13.7c0,7.5,6.1,13.7,13.7,13.7h13.7c7.5,0,13.7-6.1,13.7-13.7
		S329.4,223.4,321.8,223.4L321.8,223.4z"/>
	<path class="st0" d="M162.4,223.4h-29.1c-7.5,0-13.7,6.1-13.7,13.7c0,7.5,6.1,13.7,13.7,13.7h29.1c7.5,0,13.7-6.1,13.7-13.7
		C176.1,229.5,170,223.4,162.4,223.4L162.4,223.4z"/>
	<path class="st0" d="M249.9,223.4h-29.1c-7.5,0-13.7,6.1-13.7,13.7c0,7.5,6.1,13.7,13.7,13.7h29.1c7.5,0,13.7-6.1,13.7-13.7
		C263.5,229.5,257.4,223.4,249.9,223.4L249.9,223.4z"/>
</g>
</svg>
