<?xml version="1.0" encoding="utf-8"?>
<!-- Generator: Adobe Illustrator 18.0.0, SVG Export Plug-In . SVG Version: 6.00 Build 0)  -->
<!DOCTYPE svg PUBLIC "-//W3C//DTD SVG 1.1//EN" "http://www.w3.org/Graphics/SVG/1.1/DTD/svg11.dtd">
<svg version="1.1" id="图形" xmlns="http://www.w3.org/2000/svg" xmlns:xlink="http://www.w3.org/1999/xlink" x="0px" y="0px"
	 viewBox="15.167 -16.333 1000.636 1000.678" enable-background="new 15.167 -16.333 1000.636 1000.678" xml:space="preserve">
<g>
	<path fill-rule="evenodd" clip-rule="evenodd" fill="#272536" d="M362.199,93.651c7.45-5.96,13.41-14.899,13.41-25.329
		c0-16.389-13.41-29.799-29.799-29.799h-29.799h-14.899h-14.899h-29.799c-16.389,0-29.799,13.409-29.799,29.799
		c0,10.43,5.96,19.369,13.409,25.329l-28.309,227.961c0,75.987-74.497,120.685-74.497,178.793v44.698v244.35v83.437
		c0,32.779,26.819,59.598,59.598,59.598h104.296h104.296c32.779,0,59.598-26.819,59.598-59.598v-83.437v-244.35v-44.698
		c0-58.108-74.497-102.806-74.497-178.793L362.199,93.651L362.199,93.651z M286.212,83.222h14.899h14.899l1.49,14.899
		l25.329,204.122l-28.309,20.859l-53.638-35.759l23.839-189.223L286.212,83.222L286.212,83.222z M181.916,589.802h238.391v166.873
		l-119.195,38.738l-119.195-38.738V589.802L181.916,589.802z M420.307,872.891c0,8.94-5.96,14.899-14.899,14.899H301.111H196.815
		c-8.94,0-14.899-5.96-14.899-14.899v-68.537l119.195,38.738l119.195-38.738V872.891L420.307,872.891z M420.307,500.405v44.698
		H181.916v-44.698c0-13.409,11.919-32.779,25.329-52.148c19.369-29.799,43.208-64.067,47.678-110.256l61.088,40.228l32.779-23.839
		c7.45,37.249,28.309,68.537,44.698,93.866C408.387,467.627,420.307,486.996,420.307,500.405L420.307,500.405z"/>
	<polygon fill-rule="evenodd" clip-rule="evenodd" fill="#272536" points="599.1,634.5 628.898,634.5 628.898,828.192 
		599.1,828.192 599.1,634.5 	"/>
	<polygon fill-rule="evenodd" clip-rule="evenodd" fill="#272536" points="658.697,634.5 688.496,634.5 688.496,828.192 
		658.697,828.192 658.697,634.5 	"/>
	<polygon fill-rule="evenodd" clip-rule="evenodd" fill="#272536" points="718.295,634.5 748.094,634.5 748.094,828.192 
		718.295,828.192 718.295,634.5 	"/>
	<path fill-rule="evenodd" clip-rule="evenodd" fill="#272536" d="M837.49,634.5h-14.899v-44.698
		c0-25.329-19.369-44.698-44.698-44.698H569.301c-25.329,0-44.698,19.369-44.698,44.698v283.089
		c0,25.329,19.369,44.698,44.698,44.698h208.592c25.329,0,44.698-19.369,44.698-44.698v-44.698h14.899
		c41.718,0,74.497-32.779,74.497-74.497v-44.698C911.987,667.279,879.209,634.5,837.49,634.5L837.49,634.5z M777.892,872.891
		H569.301V589.802h208.592V634.5v193.692V872.891L777.892,872.891z M867.289,753.695c0,16.389-13.409,29.799-29.799,29.799h-14.899
		V679.198h14.899c16.389,0,29.799,13.409,29.799,29.799V753.695L867.289,753.695z"/>
</g>
</svg>
