<?xml version="1.0" encoding="utf-8"?>
<!-- Generator: Adobe Illustrator 18.0.0, SVG Export Plug-In . SVG Version: 6.00 Build 0)  -->
<!DOCTYPE svg PUBLIC "-//W3C//DTD SVG 1.1//EN" "http://www.w3.org/Graphics/SVG/1.1/DTD/svg11.dtd">
<svg version="1.1" id="图形" xmlns="http://www.w3.org/2000/svg" xmlns:xlink="http://www.w3.org/1999/xlink" x="0px" y="0px"
	 viewBox="0 0 500 500" style="enable-background:new 0 0 500 500;" xml:space="preserve">
<style type="text/css">
	.st0{fill:#272536;}
</style>
<g>
	<path class="st0" d="M188.6,38.6c3.7-3,6.7-7.4,6.7-12.7c0-8.2-6.7-14.9-14.9-14.9h-14.9h-7.4h-7.4h-14.9
		c-8.2,0-14.9,6.7-14.9,14.9c0,5.2,3,9.7,6.7,12.7l-14.1,113.9c0,38-37.2,60.3-37.2,89.3v22.3v122.1V428c0,16.4,13.4,29.8,29.8,29.8
		h52.1h52.1c16.4,0,29.8-13.4,29.8-29.8v-41.7V264.2v-22.3c0-29-37.2-51.4-37.2-89.3L188.6,38.6L188.6,38.6z M150.6,33.4h7.4h7.4
		l0.7,7.4l12.7,102l-14.1,10.4L138,135.4l11.9-94.5L150.6,33.4L150.6,33.4z M98.5,286.5h119.1v83.4l-59.6,19.4l-59.6-19.4
		L98.5,286.5L98.5,286.5z M217.6,428c0,4.5-3,7.4-7.4,7.4h-52.1h-52.1c-4.5,0-7.4-3-7.4-7.4v-34.2l59.6,19.4l59.6-19.4L217.6,428
		L217.6,428z M217.6,241.9v22.3H98.5v-22.3c0-6.7,6-16.4,12.7-26.1c9.7-14.9,21.6-32,23.8-55.1l30.5,20.1l16.4-11.9
		c3.7,18.6,14.1,34.2,22.3,46.9C211.7,225.5,217.6,235.2,217.6,241.9L217.6,241.9z"/>
	<polygon class="st0" points="306.9,308.9 321.8,308.9 321.8,405.6 306.9,405.6 	"/>
	<polygon class="st0" points="336.7,308.9 351.6,308.9 351.6,405.6 336.7,405.6 	"/>
	<polygon class="st0" points="366.5,308.9 381.4,308.9 381.4,405.6 366.5,405.6 	"/>
	<path class="st0" d="M426.1,308.9h-7.4v-22.3c0-12.7-9.7-22.3-22.3-22.3H292.1c-12.7,0-22.3,9.7-22.3,22.3V428
		c0,12.7,9.7,22.3,22.3,22.3h104.2c12.7,0,22.3-9.7,22.3-22.3v-22.3h7.4c20.8,0,37.2-16.4,37.2-37.2v-22.3
		C463.3,325.2,446.9,308.9,426.1,308.9L426.1,308.9z M396.3,428H292.1V286.5h104.2v22.3v96.8L396.3,428L396.3,428z M440.9,368.4
		c0,8.2-6.7,14.9-14.9,14.9h-7.4v-52.1h7.4c8.2,0,14.9,6.7,14.9,14.9V368.4L440.9,368.4z"/>
</g>
</svg>
