<?xml version="1.0" encoding="utf-8"?>
<!-- Generator: Adobe Illustrator 18.0.0, SVG Export Plug-In . SVG Version: 6.00 Build 0)  -->
<!DOCTYPE svg PUBLIC "-//W3C//DTD SVG 1.1//EN" "http://www.w3.org/Graphics/SVG/1.1/DTD/svg11.dtd">
<svg version="1.1" id="图形" xmlns="http://www.w3.org/2000/svg" xmlns:xlink="http://www.w3.org/1999/xlink" x="0px" y="0px"
	 viewBox="0 0 500 500" style="enable-background:new 0 0 500 500;" xml:space="preserve">
<style type="text/css">
	.st0{fill:#272536;}
</style>
<g>
	<path class="st0" d="M470.9,228.3c0,28.3-22.9,51.2-51,51.2c-28.2,0-51-22.9-51-51.2l0,0l0,0l0,0c0,28.3-22.9,51.2-51,51.2
		c-28.2,0-51-22.9-51-51.2l0,0l0,0l0,0l0,0c0,28.3-22.9,51.2-51,51.2c-28.2,0-51-22.9-51-51.2l0,0l0,0l0,0l0,0
		c0,28.3-22.8,51.2-51,51.2c-28.2,0-51-22.9-51-51.2l0,0l0,0l0,0l35.9-96H435L470.9,228.3L470.9,228.3L470.9,228.3L470.9,228.3z
		 M407.1,113.1H126.4c-10.6,0-19.1-8.6-19.1-19.2c0-10.6,8.6-19.2,19.1-19.2h280.7c10.6,0,19.1,8.6,19.1,19.2
		C426.3,104.5,417.7,113.1,407.1,113.1L407.1,113.1z M120,298.4L120,298.4c1.8-0.2,3.6-0.5,5.4-0.8c0.4-0.1,0.8-0.1,1.2-0.2
		c0.8-0.2,1.6-0.4,2.4-0.6c3.5-0.8,6.9-1.8,10.1-3.1v0l0,0v94.5h255.2v-94.5l0,0v0c3.3,1.3,6.6,2.3,10.1,3.1
		c0.8,0.2,1.6,0.4,2.4,0.6c0.4,0.1,0.8,0.1,1.2,0.2c1.8,0.3,3.6,0.6,5.4,0.7v0c2.1,0.2,4.2,0.3,6.4,0.3c4.4,0,8.6-0.5,12.8-1.2
		v129.2c0,10.6-8.6,19.2-19.1,19.2H120c-10.6,0-19.1-8.6-19.1-19.2V297.5c4.1,0.8,8.4,1.2,12.8,1.2
		C115.8,298.7,117.9,298.6,120,298.4L120,298.4z"/>
</g>
</svg>
