<?xml version="1.0" encoding="utf-8"?>
<!-- Generator: Adobe Illustrator 18.0.0, SVG Export Plug-In . SVG Version: 6.00 Build 0)  -->
<!DOCTYPE svg PUBLIC "-//W3C//DTD SVG 1.1//EN" "http://www.w3.org/Graphics/SVG/1.1/DTD/svg11.dtd">
<svg version="1.1" id="图形" xmlns="http://www.w3.org/2000/svg" xmlns:xlink="http://www.w3.org/1999/xlink" x="0px" y="0px"
	 viewBox="0 0 500 500" style="enable-background:new 0 0 500 500;" xml:space="preserve">
<style type="text/css">
	.st0{fill:#272536;}
</style>
<g>
	<path class="st0" d="M402.2,49.6H131.6c-37.4,0-67.7,30.3-67.7,67.7v270.6c0,37.4,30.3,67.7,67.7,67.7h270.6
		c37.4,0,67.7-30.3,67.7-67.7l0-270.6C469.9,79.9,439.6,49.6,402.2,49.6L402.2,49.6z M387.6,278.5H291l0,87.9
		c0,13.6-11.1,24.7-24.7,24.7c-13.6,0-24.7-11.1-24.7-24.7v-87.9h-96.6c-14.3,0-25.9-11.6-25.9-25.9c0-14.3,11.6-25.9,25.9-25.9
		l96.6,0v-89c0-13.6,11.1-24.7,24.7-24.7c13.6,0,24.7,11.1,24.7,24.7l0,89l96.6,0c14.3,0,25.8,11.6,25.9,25.8
		C413.5,266.9,401.9,278.5,387.6,278.5L387.6,278.5z"/>
</g>
</svg>
