<?xml version="1.0" encoding="utf-8"?>
<!-- Generator: Adobe Illustrator 18.0.0, SVG Export Plug-In . SVG Version: 6.00 Build 0)  -->
<!DOCTYPE svg PUBLIC "-//W3C//DTD SVG 1.1//EN" "http://www.w3.org/Graphics/SVG/1.1/DTD/svg11.dtd">
<svg version="1.1" id="图形" xmlns="http://www.w3.org/2000/svg" xmlns:xlink="http://www.w3.org/1999/xlink" x="0px" y="0px"
	 viewBox="0 0 500 500" style="enable-background:new 0 0 500 500;" xml:space="preserve">
<style type="text/css">
	.st0{fill:#272536;}
</style>
<g>
	<path class="st0" d="M436.2,111.9h-342c-23.6,0-42.7,19.1-42.7,42.7v235.1c0,23.6,19.1,42.7,42.7,42.7h342
		c23.6,0,42.7-19.1,42.7-42.7V154.6C478.9,131,459.8,111.9,436.2,111.9L436.2,111.9z M457.5,379.1c0,17.7-14.4,32.1-32.1,32.1H104.9
		c-17.7,0-32.1-14.4-32.1-32.1V165.3c0-17.7,14.4-32.1,32.1-32.1h320.6c17.7,0,32.1,14.4,32.1,32.1L457.5,379.1L457.5,379.1
		L457.5,379.1z"/>
	<polygon class="st0" points="420.9,38.1 260.6,111.9 313.4,111.9 430,57.5 	"/>
	<polygon class="st0" points="103.5,37.1 94.3,56.9 210.6,111.9 260.9,111.9 	"/>
	<path class="st0" d="M286.5,154.6H136.9c-23.6,0-42.7,19.1-42.7,42.7V347c0,23.6,19.1,42.7,42.7,42.7h149.6
		c23.6,0,42.7-19.1,42.7-42.7V197.4C329.3,173.8,310.1,154.6,286.5,154.6L286.5,154.6z M307.9,336.3c0,17.7-14.4,32.1-32.1,32.1
		H147.6c-17.7,0-32.1-14.4-32.1-32.1V208.1c0-17.7,14.4-32.1,32.1-32.1h128.2c17.7,0,32.1,14.4,32.1,32.1L307.9,336.3L307.9,336.3
		L307.9,336.3z"/>
	<path class="st0" d="M393.4,154.6c-23.6,0-42.7,19.1-42.7,42.7c0,23.6,19.1,42.7,42.7,42.7c23.6,0,42.7-19.1,42.7-42.7
		C436.2,173.8,417,154.6,393.4,154.6L393.4,154.6z M393.4,218.8c-11.8,0-21.4-9.6-21.4-21.4c0-11.8,9.6-21.4,21.4-21.4
		s21.4,9.6,21.4,21.4C414.8,209.2,405.2,218.8,393.4,218.8L393.4,218.8z"/>
	<polygon class="st0" points="350.7,357.7 436.2,357.7 436.2,379.1 350.7,379.1 	"/>
	<polygon class="st0" points="350.7,314.9 436.2,314.9 436.2,336.3 350.7,336.3 	"/>
</g>
</svg>
