<?xml version="1.0" encoding="utf-8"?>
<!-- Generator: Adobe Illustrator 18.0.0, SVG Export Plug-In . SVG Version: 6.00 Build 0)  -->
<!DOCTYPE svg PUBLIC "-//W3C//DTD SVG 1.1//EN" "http://www.w3.org/Graphics/SVG/1.1/DTD/svg11.dtd">
<svg version="1.1" id="图形" xmlns="http://www.w3.org/2000/svg" xmlns:xlink="http://www.w3.org/1999/xlink" x="0px" y="0px"
	 viewBox="0 0 500 500" style="enable-background:new 0 0 500 500;" xml:space="preserve">
<style type="text/css">
	.st0{fill:#272536;}
</style>
<g>
	<path class="st0" d="M372,428H158.2c-29.2,0-52.3-23.1-52.3-52.3v-52.3c-4.6,0-9.2,1.5-10.8,3.1c-7.7,7.7-16.9,10.8-26.2,10.8
		c-6.2,0-10.8-3.1-15.4-6.2c-6.2-7.7-4.6-38.5-4.6-38.5c1.5-18.5,13.8-20,27.7-20H452c12.3,0,26.2,3.1,26.2,21.5
		c0,30.8-3.1,35.4-4.6,36.9c-3.1,4.6-9.2,6.2-15.4,6.2c-9.2,0-18.5-3.1-26.2-10.8c-1.5-1.5-6.2-3.1-10.8-3.1v52.3
		C424.3,405,399.7,428,372,428L372,428z M112.1,305c1.5,0,1.5,0,3.1,0h9.2v70.8c0,18.5,15.4,33.8,33.8,33.8H372
		c18.5,0,33.8-15.4,33.8-33.8V305h9.2c10.8,0,23.1,1.5,32.3,9.2c4.6,4.6,9.2,6.2,12.3,6.2h1.5c0-3.1,1.5-13.8,1.5-24.6
		c0-1.5,0-3.1,0-3.1s-1.5,0-7.7,0H76.7c-6.2,0-9.2,0-9.2,1.5c0,0,0,1.5,0,3.1c0,6.2,0,20,1.5,24.6h1.5c3.1,0,7.7-1.5,12.3-6.2
		C90.5,306.5,102.8,305,112.1,305L112.1,305z"/>
	<path class="st0" d="M327.4,126.5c-3.1,0-6.2-1.5-7.7-4.6c-3.1-4.6-1.5-9.2,3.1-12.3c27.7-18.5,21.5-32.3,12.3-53.8
		c-4.6-9.2-9.2-21.5-1.5-32.3c1.5-4.6,7.7-6.2,12.3-3.1c4.6,3.1,4.6,7.7,3.1,12.3c-1.5,3.1,0,9.2,3.1,16.9
		c9.2,21.5,21.5,49.2-18.5,75.4C330.5,126.5,329,126.5,327.4,126.5L327.4,126.5z"/>
	<path class="st0" d="M256.7,126.5c-3.1,0-6.2-1.5-7.7-4.6c-3.1-4.6-1.5-9.2,3.1-12.3c27.7-16.9,21.5-32.3,12.3-53.8
		c-4.6-9.2-9.2-23.1-1.5-33.8c1.5-3.1,7.7-4.6,10.8-1.5c4.6,3.1,4.6,7.7,3.1,12.3c-1.5,3.1,0,9.2,3.1,16.9
		c9.2,21.5,21.5,49.2-18.5,75.4C259.7,126.5,258.2,126.5,256.7,126.5L256.7,126.5z"/>
	<path class="st0" d="M181.3,126.5c-3.1,0-4.6-1.5-7.7-4.6c-1.5-3.1-1.5-9.2,3.1-10.8c27.7-18.5,21.5-32.3,12.3-53.8
		c-4.6-10.8-9.2-23.1-1.5-35.4c1.5-3.1,7.7-4.6,10.8-1.5c4.6,3.1,4.6,7.7,3.1,12.3c-1.5,3.1,0,9.2,3.1,16.9
		c9.2,21.5,21.5,49.2-18.5,75.4C184.4,126.5,182.8,126.5,181.3,126.5L181.3,126.5z"/>
	<path class="st0" d="M169,311.1V368c0,6.2,4.6,9.2,9.2,9.2c6.2,0,9.2-4.6,9.2-9.2v-56.9c0-6.2-4.6-9.2-9.2-9.2S169,306.5,169,311.1
		L169,311.1L169,311.1L169,311.1z"/>
	<path class="st0" d="M424.3,246.5H105.9v-9.2c3.1-44.6,29.2-60,52.3-60h80l-4.6-13.8c-1.5-4.6,0-10.8,3.1-15.4
		c4.6-4.6,10.8-7.7,16.9-7.7h16.9c6.2,0,13.8,3.1,16.9,9.2c3.1,4.6,4.6,9.2,3.1,15.4l-3.1,12.3H372c23.1,0,47.7,15.4,52.3,60
		L424.3,246.5L424.3,246.5z M125.9,228.1h278.4c-4.6-21.5-15.4-33.8-32.3-33.8H265.9l9.2-35.4c0,0-1.5,0-3.1,0h-16.9
		c-1.5,0-3.1,1.5-3.1,1.5l9.2,33.8H158.2C141.3,194.2,129,206.5,125.9,228.1L125.9,228.1z"/>
	<path class="st0" d="M158.2,185"/>
</g>
</svg>
