<?xml version="1.0" encoding="utf-8"?>
<!-- Generator: Adobe Illustrator 18.0.0, SVG Export Plug-In . SVG Version: 6.00 Build 0)  -->
<!DOCTYPE svg PUBLIC "-//W3C//DTD SVG 1.1//EN" "http://www.w3.org/Graphics/SVG/1.1/DTD/svg11.dtd">
<svg version="1.1" id="图形" xmlns="http://www.w3.org/2000/svg" xmlns:xlink="http://www.w3.org/1999/xlink" x="0px" y="0px"
	 viewBox="0 0 500 500" style="enable-background:new 0 0 500 500;" xml:space="preserve">
<style type="text/css">
	.st0{fill:#272536;}
</style>
<g>
	<path class="st0" d="M426.2,117.3h-44V81.8c0-16.2-8.2-32.9-24.4-32.9h-176c-16.2,0-34,16.7-34,32.9v35.5h-34.4
		c-16.2,0-34,16.8-34,33v107.5c0,16.2,17.8,25.5,34,25.5h34.4V393c0,16.2,17.8,25.4,34,25.4h176c16.2,0,24.4-9.2,24.4-25.4V283.3h44
		c16.2,0,24.8-9.4,24.8-25.5V150.3C451,134.1,442.4,117.3,426.2,117.3L426.2,117.3 M167.3,81.8c0-5.4,9.1-13.8,14.5-13.8h176
		c5.4,0,4.9,8.4,4.9,13.8v35.5H167.3V81.8L167.3,81.8 M362.6,389.3c0,5.4-4.2,10-9.6,10H177c-5.4,0-9.7-4.6-9.7-10v-145
		c0-5.4,4.3-9.8,9.7-9.8h176c5.4,0,9.6,4.4,9.6,9.8L362.6,389.3L362.6,389.3 M431,257.8c0,5.4,0.6,6-4.8,6h-44V248
		c0-16.2-8.2-33.1-24.4-33.1h-176c-16.2,0-34,16.9-34,33.1v15.8h-34.4c-5.4,0-14.4-0.6-14.4-6V150.3c0-5.4,9-13.4,14.4-13.4h312.9
		c5.4,0,4.8,8,4.8,13.4L431,257.8L431,257.8 M334.4,277.8H197.5c-5.4,0-9.8,4.1-9.8,9.6s4.4,9.6,9.8,9.6h136.9
		c5.4,0,9.8-4.1,9.8-9.6C344.2,282,339.8,277.8,334.4,277.8L334.4,277.8 M334.4,334.3H197.5c-5.4,0-9.8,4.4-9.8,9.8
		c0,5.4,4.4,9.8,9.8,9.8h136.9c5.4,0,9.8-4.4,9.8-9.8C344.2,338.7,339.8,334.3,334.4,334.3L334.4,334.3"/>
</g>
</svg>
