<?xml version="1.0" encoding="utf-8"?>
<!-- Generator: Adobe Illustrator 18.0.0, SVG Export Plug-In . SVG Version: 6.00 Build 0)  -->
<!DOCTYPE svg PUBLIC "-//W3C//DTD SVG 1.1//EN" "http://www.w3.org/Graphics/SVG/1.1/DTD/svg11.dtd">
<svg version="1.1" id="图形" xmlns="http://www.w3.org/2000/svg" xmlns:xlink="http://www.w3.org/1999/xlink" x="0px" y="0px"
	 viewBox="15.167 -16.333 1000.636 1000.678" enable-background="new 15.167 -16.333 1000.636 1000.678" xml:space="preserve">
<g>
	<path fill-rule="evenodd" clip-rule="evenodd" fill="#272536" d="M729.365,873.02H301.432c-58.495,0-104.675-46.18-104.675-104.674
		V663.671c-9.236,0-18.472,3.079-21.55,6.158c-15.393,15.393-33.865,21.55-52.337,21.55c-12.315,0-21.551-6.157-30.787-12.314
		c-12.315-15.394-9.236-76.967-9.236-76.967c3.079-36.944,27.708-40.022,55.416-40.022h751.192c24.629,0,52.337,6.157,52.337,43.101
		c0,61.573-6.157,70.809-9.236,73.888c-6.157,9.236-18.472,12.314-30.787,12.314c-18.471,0-36.943-6.157-52.337-21.55
		c-3.078-3.079-12.314-6.158-21.55-6.158v104.675C834.039,826.84,784.781,873.02,729.365,873.02L729.365,873.02z M209.072,626.728
		c3.079,0,3.079,0,6.157,0h18.472v141.618c0,36.944,30.787,67.73,67.731,67.73h427.933c36.944,0,67.73-30.787,67.73-67.73V626.728
		h18.472c21.551,0,46.18,3.078,64.652,18.471c9.236,9.236,18.472,12.315,24.629,12.315h3.079c0-6.157,3.078-27.708,3.078-49.258
		c0-3.079,0-6.158,0-6.158s-3.078,0-15.393,0H138.263c-12.315,0-18.472,0-18.472,3.079c0,0,0,3.079,0,6.157
		c0,12.315,0,40.023,3.079,49.259h3.079c6.157,0,15.393-3.079,24.629-12.315C165.971,629.806,190.6,626.728,209.072,626.728
		L209.072,626.728z"/>
	<path fill-rule="evenodd" clip-rule="evenodd" fill="#272536" d="M640.084,269.603c-6.158,0-12.315-3.078-15.394-9.235
		c-6.157-9.236-3.078-18.472,6.158-24.63c55.416-36.944,43.101-64.652,24.629-107.753c-9.236-18.472-18.472-43.101-3.079-64.651
		c3.079-9.236,15.394-12.315,24.63-6.158c9.236,6.158,9.236,15.393,6.157,24.63c-3.079,6.157,0,18.471,6.157,33.865
		c18.472,43.101,43.101,98.517-36.944,150.854C646.241,269.603,643.162,269.603,640.084,269.603L640.084,269.603z"/>
	<path fill-rule="evenodd" clip-rule="evenodd" fill="#272536" d="M498.466,269.603c-6.158,0-12.315-3.078-15.394-9.235
		c-6.157-9.236-3.078-18.472,6.158-24.63c55.415-33.865,43.101-64.651,24.629-107.753c-9.236-18.472-18.472-46.179-3.079-67.73
		c3.079-6.157,15.393-9.236,21.551-3.079c9.236,6.158,9.236,15.393,6.157,24.63c-3.079,6.157,0,18.471,6.157,33.865
		c18.472,43.101,43.102,98.517-36.943,150.854C504.623,269.603,501.544,269.603,498.466,269.603L498.466,269.603z"/>
	<path fill-rule="evenodd" clip-rule="evenodd" fill="#272536" d="M347.611,269.603c-6.157,0-9.236-3.078-15.393-9.235
		c-3.078-6.158-3.078-18.472,6.157-21.551c55.416-36.944,43.102-64.652,24.63-107.753c-9.236-21.551-18.472-46.18-3.079-70.809
		c3.079-6.157,15.393-9.236,21.551-3.079c9.236,6.158,9.236,15.393,6.157,24.63c-3.079,6.157,0,18.471,6.157,33.865
		c18.472,43.101,43.102,98.517-36.944,150.854C353.769,269.603,350.69,269.603,347.611,269.603L347.611,269.603z"/>
	<path fill-rule="evenodd" clip-rule="evenodd" fill="#272536" d="M322.982,639.042v113.91c0,12.315,9.236,18.472,18.472,18.472
		c12.315,0,18.472-9.236,18.472-18.472v-113.91c0-12.314-9.236-18.472-18.472-18.472
		C332.218,620.57,322.982,629.806,322.982,639.042L322.982,639.042L322.982,639.042L322.982,639.042z"/>
	<path fill-rule="evenodd" clip-rule="evenodd" fill="#272536" d="M834.039,509.739H196.757v-18.472
		c6.158-89.281,58.495-120.068,104.675-120.068h160.09l-9.236-27.708c-3.079-9.236,0-21.55,6.157-30.786
		c9.236-9.236,21.551-15.394,33.865-15.394h33.865c12.315,0,27.708,6.158,33.866,18.472c6.157,9.236,9.236,18.472,6.157,30.787
		l-6.157,24.629h169.326c46.18,0,95.438,30.787,104.674,120.068V509.739L834.039,509.739z M236.78,472.795h557.237
		c-9.236-43.101-30.787-67.731-64.652-67.731H516.937l18.472-70.809c0,0-3.078,0-6.157,0h-33.865c-3.079,0-6.157,3.079-6.157,3.079
		l18.472,67.73h-206.27C267.566,405.064,242.937,429.694,236.78,472.795L236.78,472.795z"/>
	<path fill-rule="evenodd" clip-rule="evenodd" fill="#272536" d="M301.432,386.592"/>
</g>
</svg>
