<?xml version="1.0" encoding="utf-8"?>
<!-- Generator: Adobe Illustrator 18.0.0, SVG Export Plug-In . SVG Version: 6.00 Build 0)  -->
<!DOCTYPE svg PUBLIC "-//W3C//DTD SVG 1.1//EN" "http://www.w3.org/Graphics/SVG/1.1/DTD/svg11.dtd">
<svg version="1.1" id="图形" xmlns="http://www.w3.org/2000/svg" xmlns:xlink="http://www.w3.org/1999/xlink" x="0px" y="0px"
	 viewBox="0 0 500 500" style="enable-background:new 0 0 500 500;" xml:space="preserve">
<style type="text/css">
	.st0{fill:#272536;}
</style>
<g>
	<path class="st0" d="M469.4,394.6c-1.8-12.4-3.4-24.8-5.1-37.1c-1.4-10.6-2.9-21.2-4.4-31.7c-1.7-12.4-3.3-24.8-5-37.2
		c-1.4-10.6-2.9-21.2-4.3-31.7c-1.7-12.4-3.4-24.8-5.1-37.2c-1.4-10.6-2.9-21.2-4.3-31.7c-1.7-12.4-3.4-24.8-5-37.2
		c-1.4-10.6-2.9-21.2-4.4-31.7c-1.7-12.4-3.4-24.8-5-37.2c-1.5-11.1-3.1-22.2-4.5-33.3c-0.7-5.2-2.6-9.9-6.9-13.3
		c-2.3-1.8-5.1-1.5-7.6-2.1c-107.5,0-215,0-322.5,0c-2.1,0.6-4.4,0.5-6.5,1.6c-5.1,2.9-7.7,7.2-8.2,13c0,123.9,0,247.7,0,371.6
		c0.5,4,2,7.5,5.3,10c3.1,2.4,6.6,3.8,10.5,4.1c8.6,0.5,251.9,0.5,254.5,0.5c0.4-0.3,0.8-0.3,1.2-0.3c4.6,0,7.9-2.3,10.2-6.1
		c2.3-3.7,3.2-7.8,3.2-12.2c0-54.4,0-108.9,0-163.3c0-8.2,0.3-16.4-0.1-24c0,0,0,0,0,0c2.4,16.8,5.4,33.4,8.2,50.1
		c3.2,19.3,6.4,38.5,9.6,57.8c3,18.2,6.1,36.5,9.1,54.7c1.5,9.4,3.3,18.8,4.6,28.3c1.2,8.8,5.5,13.3,14,14.9c19,0,37.9,0,56.9,0
		c3.5-0.4,6.8-1,9.4-3.7c2.6-2.8,3.7-6.2,4.2-9.8c0-1.9,0-3.8,0-5.7C470.5,408.1,470.4,401.3,469.4,394.6L469.4,394.6z M87.3,52.1
		c0-1.7,0.5-2.1,2.1-2.1c37.6,0,75.1,0,112.7,0c1.7,0,2.2,0.4,2.2,2.1c-0.1,9.7-0.1,19.3,0,29c0,2-0.5,2.4-2.4,2.4
		c-18.7-0.1-37.4,0-56.1,0s-37.4,0-56.1,0c-1.9,0-2.5-0.4-2.4-2.4C87.4,71.4,87.4,61.7,87.3,52.1L87.3,52.1z M201.9,417.4
		c-18.7-0.1-37.4-0.1-56.1-0.1s-37.4,0-56.1,0c-1.9,0-2.5-0.4-2.4-2.4c0.1-9.7,0.1-19.3,0-29c0-1.7,0.4-2.2,2.1-2.2
		c37.6,0.1,75.1,0.1,112.7,0c2,0,2.2,0.7,2.2,2.4c-0.1,9.6-0.1,19.1,0,28.7C204.3,416.9,203.8,417.4,201.9,417.4L201.9,417.4z
		 M204.3,364.6c0,2.2-0.5,2.7-2.7,2.7c-37.2-0.1-74.4-0.1-111.7,0c-2.2,0-2.7-0.5-2.7-2.7c0.1-43.7,0.1-87.3,0.1-131
		c0-43.6,0-87.1-0.1-130.7c0-2.4,0.6-3,2.9-2.9c37.1,0.1,74.3,0.1,111.4,0c2.2,0,2.7,0.5,2.7,2.7C204.2,190,204.2,277.3,204.3,364.6
		L204.3,364.6z M220.9,52c0-1.7,0.5-2.1,2.2-2.1c37.6,0,75.1,0,112.7,0c1.7,0,2.2,0.4,2.2,2.1c-0.1,9.7-0.1,19.3,0,29
		c0,2-0.5,2.4-2.4,2.4c-18.7-0.1-37.4,0-56.1,0c-18.7,0-37.4,0-56.1,0c-1.9,0-2.4-0.4-2.4-2.4C221,71.4,221,61.7,220.9,52L220.9,52z
		 M337.9,415.3c0,1.7-0.5,2.1-2.2,2.1c-37.6,0-75.1,0-112.7,0c-1.7,0-2.2-0.4-2.2-2.1c0.1-9.7,0.1-19.3,0-29c0-2,0.5-2.4,2.4-2.4
		c18.7,0.1,37.4,0,56.1,0c18.7,0,37.4,0,56.1,0c1.9,0,2.4,0.4,2.4,2.4C337.8,396,337.8,405.6,337.9,415.3L337.9,415.3z M334.9,367.3
		c-37.1-0.1-74.3-0.1-111.4,0c-2.2,0-2.7-0.5-2.7-2.7c0.1-87.3,0.1-174.6,0-262c0-2.2,0.5-2.7,2.7-2.7c37.2,0.1,74.4,0.1,111.7,0
		c2.2,0,2.7,0.5,2.7,2.7c-0.1,43.7-0.1,87.5-0.1,131.2c0,43.5,0,87,0.1,130.5C337.9,366.8,337.3,367.3,334.9,367.3L334.9,367.3z
		 M419.9,417.4c-2.3-0.1-4.7,0-7,0c-2,0-4-0.1-6,0c-1.8,0.2-2.3-0.6-2.5-2.2c-2.3-17.1-4.6-34.3-7-51.4c-2.5-18.5-5-37-7.6-55.5
		c-2.5-18.5-5-37-7.6-55.5c-2.5-18.4-5-36.8-7.5-55.3c-2.5-18.6-5.1-37.2-7.6-55.8c-2.5-18.5-5.1-37-7.6-55.5
		c-1.6-11.6-3.2-23.2-4.8-34.9c-0.2-1.6,0.7-1.4,1.6-1.4c4.3,0,8.5,0.1,12.8,0c1.8-0.1,2.3,0.6,2.5,2.2c1.2,9.5,2.5,18.9,3.8,28.4
		c2.5,18.5,5,37,7.6,55.5c2.5,18.5,5,37,7.6,55.5c2.5,18.4,5,36.8,7.5,55.3c2.5,18.6,5.1,37.2,7.6,55.8c2.5,18.5,5.1,37,7.6,55.5
		c2.6,19.3,5.3,38.6,7.9,57.8C421.4,417.2,420.9,417.4,419.9,417.4L419.9,417.4z M453.3,417.4c-4.6-0.1-9.2-0.1-13.8,0
		c-1.9,0.1-1.6-1.2-1.8-2.2c-1.2-8.3-2.2-16.5-3.4-24.8c-2.5-18.5-5.1-37-7.6-55.5c-2.5-18.4-5-36.8-7.5-55.3
		c-2.5-18.6-5.1-37.2-7.6-55.8c-2.5-18.4-5-36.8-7.5-55.3c-2.5-18.5-5-37-7.6-55.5c-2.5-18.5-5-37-7.6-55.5
		c-0.3-2.1-0.5-4.1-0.9-6.2c-0.2-1.1,0.1-1.5,1.3-1.5c2.3,0.1,4.7,0,7,0c2,0,4,0.1,6,0c1.8-0.2,2.4,0.5,2.6,2.2
		c1.1,8.3,2.2,16.5,3.3,24.8c2.5,18.5,5.1,37,7.6,55.5c2.5,18.4,5,36.8,7.5,55.3c2.5,18.6,5.1,37.2,7.6,55.8
		c2.5,18.4,5,36.8,7.5,55.3c2.5,18.5,5,37,7.6,55.5s5,37,7.6,55.5c0.3,2.1,0.5,4.1,0.9,6.2C454.8,417,454.5,417.4,453.3,417.4
		L453.3,417.4z"/>
	<path class="st0" d="M145.5,150.2c-13,0-26.1,0-39.1,0c-1.9,0-2.5-0.4-2.4-2.4c0.2-4.2,0.1-8.3,0-12.5c0-1.5,0.4-1.9,1.9-1.9
		c26.6,0,53.2,0,79.8,0c1.5,0,1.9,0.4,1.9,1.9c-0.1,4.3-0.1,8.5,0,12.8c0.1,1.7-0.5,2.1-2.2,2.1
		C172.1,150.1,158.8,150.2,145.5,150.2L145.5,150.2z"/>
	<path class="st0" d="M145.8,166.9c13.1,0,26.3,0,39.4,0c1.9,0,2.5,0.4,2.4,2.4c-0.2,4.2-0.1,8.3,0,12.5c0,1.5-0.4,1.9-1.9,1.9
		c-26.6,0-53.2,0-79.8,0c-1.5,0-1.9-0.4-1.9-1.9c0.1-4.3,0.1-8.5,0-12.8c-0.1-1.7,0.5-2.1,2.2-2.1
		C119.3,166.9,132.5,166.9,145.8,166.9L145.8,166.9z"/>
	<path class="st0" d="M145.5,217c-13,0-26.1,0-39.1,0c-1.9,0-2.5-0.4-2.4-2.4c0.2-4.2,0.1-8.3,0-12.5c0-1.5,0.4-1.9,1.9-1.9
		c26.6,0,53.2,0,79.8,0c1.5,0,1.9,0.4,1.9,1.9c-0.1,4.3-0.1,8.5,0,12.8c0.1,1.7-0.5,2.1-2.2,2.1C172.1,216.9,158.8,217,145.5,217
		L145.5,217z"/>
	<path class="st0" d="M279.7,133.5c13,0,26.1,0,39.1-0.1c2,0,2.5,0.5,2.4,2.4c-0.2,4.2-0.1,8.3,0,12.5c0,1.5-0.5,1.8-1.9,1.8
		c-26.6,0-53.2,0-79.8,0c-1.5,0-1.9-0.4-1.9-1.9c0.1-4.3,0.1-8.5,0-12.8c-0.1-1.8,0.5-2.1,2.2-2.1
		C253.1,133.5,266.4,133.5,279.7,133.5L279.7,133.5z"/>
	<path class="st0" d="M279.6,166.9c13,0,26.1,0,39.1,0c1.9,0,2.5,0.4,2.4,2.4c-0.2,4.2-0.1,8.3,0,12.5c0,1.5-0.4,1.9-1.9,1.9
		c-26.6,0-53.2,0-79.8,0c-1.5,0-1.9-0.4-1.9-1.9c0.1-4.3,0.1-8.5,0-12.8c-0.1-1.7,0.5-2.1,2.2-2.1
		C253,166.9,266.3,166.9,279.6,166.9L279.6,166.9z"/>
	<path class="st0" d="M279.1,217c-13,0-26.1,0-39.1,0.1c-2,0-2.5-0.5-2.4-2.4c0.2-4.2,0.1-8.3,0-12.5c0-1.5,0.5-1.8,1.9-1.8
		c26.6,0,53.2,0,79.8,0c1.5,0,1.9,0.4,1.9,1.9c-0.1,4.3-0.1,8.5,0,12.8c0.1,1.8-0.5,2.1-2.2,2.1C305.7,216.9,292.4,217,279.1,217
		L279.1,217z"/>
</g>
</svg>
