<?xml version="1.0" encoding="utf-8"?>
<!-- Generator: Adobe Illustrator 18.0.0, SVG Export Plug-In . SVG Version: 6.00 Build 0)  -->
<!DOCTYPE svg PUBLIC "-//W3C//DTD SVG 1.1//EN" "http://www.w3.org/Graphics/SVG/1.1/DTD/svg11.dtd">
<svg version="1.1" id="图形" xmlns="http://www.w3.org/2000/svg" xmlns:xlink="http://www.w3.org/1999/xlink" x="0px" y="0px"
	 viewBox="15.167 -16.333 1000.636 1000.678" enable-background="new 15.167 -16.333 1000.636 1000.678" xml:space="preserve">
<g>
	<path fill-rule="evenodd" clip-rule="evenodd" fill="#272536" d="M924.325,806.146c-3.602-24.746-6.821-49.553-10.174-74.338
		c-2.863-21.171-5.832-42.33-8.708-63.5c-3.366-24.784-6.704-49.572-10.093-74.352c-2.895-21.169-5.837-42.332-8.696-63.506
		c-3.347-24.788-6.75-49.568-10.109-74.356c-2.87-21.171-5.812-42.333-8.689-63.504c-3.369-24.785-6.746-49.571-10.098-74.359
		c-2.864-21.173-5.838-42.332-8.708-63.504c-3.361-24.786-6.793-49.563-10.073-74.361c-2.937-22.213-6.191-44.385-8.972-66.621
		c-1.31-10.459-5.191-19.726-13.867-26.564c-4.621-3.642-10.146-2.993-15.264-4.278c-215.176,0-430.351,0-645.528,0
		c-4.266,1.222-8.814,0.99-12.914,3.283c-10.245,5.729-15.471,14.427-16.333,25.964c0,247.904,0,495.811,0,743.715
		c0.917,8.068,3.905,15.028,10.564,20.098c6.246,4.756,13.12,7.664,21.065,8.13c17.212,1.013,504.18,1.019,509.444,1.019
		c0.745-0.576,1.623-0.527,2.489-0.522c9.272,0.063,15.78-4.516,20.461-12.169c4.575-7.481,6.404-15.605,6.399-24.366
		c-0.06-108.937,0.003-217.874-0.081-326.812c-0.013-16.382,0.605-32.776-0.209-47.993c0.004,0.027,0.007,0.054,0.011,0.081
		c4.778,33.537,10.9,66.857,16.385,100.28c6.33,38.57,12.843,77.111,19.258,115.666c6.072,36.5,12.245,72.983,18.193,109.505
		c3.072,18.857,6.642,37.63,9.17,56.578c2.345,17.58,10.911,26.556,28.046,29.752c37.951,0,75.904,0,113.855,0
		c6.937-0.77,13.58-1.93,18.766-7.479c5.26-5.627,7.314-12.388,8.392-19.68c0-3.83,0-7.66,0-11.49
		C926.506,833.075,926.275,819.55,924.325,806.146L924.325,806.146z M159.442,120.526c-0.03-3.429,0.911-4.277,4.299-4.273
		c75.177,0.099,150.356,0.099,225.533,0.002c3.364-0.005,4.345,0.805,4.313,4.258c-0.175,19.315-0.208,38.634,0.019,57.947
		c0.046,3.929-0.958,4.834-4.842,4.816c-37.413-0.161-74.829-0.098-112.243-0.098s-74.83-0.063-112.243,0.095
		c-3.858,0.017-4.904-0.848-4.856-4.802C159.651,159.16,159.613,139.841,159.442,120.526L159.442,120.526z M388.794,851.788
		c-37.414-0.17-74.83-0.101-112.244-0.101s-74.83-0.06-112.243,0.091c-3.799,0.016-4.94-0.753-4.89-4.767
		c0.241-19.314,0.192-38.632,0.03-57.947c-0.028-3.373,0.821-4.311,4.265-4.305c75.177,0.103,150.355,0.113,225.532-0.02
		c3.973-0.007,4.358,1.435,4.332,4.774c-0.147,19.141-0.19,38.287,0.027,57.426C393.645,850.806,392.738,851.807,388.794,851.788
		L388.794,851.788z M393.606,746.148c0.002,4.32-0.98,5.381-5.344,5.373c-74.499-0.151-149-0.151-223.498,0
		c-4.362,0.009-5.353-1.05-5.347-5.372c0.141-87.379,0.106-174.76,0.106-262.14c0-87.207,0.04-174.412-0.111-261.619
		c-0.008-4.708,1.112-5.912,5.873-5.902c74.325,0.166,148.65,0.159,222.976,0.008c4.361-0.009,5.347,1.05,5.345,5.372
		C393.484,396.628,393.484,571.388,393.606,746.148L393.606,746.148z M426.844,120.521c-0.03-3.439,0.928-4.271,4.305-4.267
		c75.177,0.098,150.355,0.098,225.532,0c3.374-0.005,4.338,0.821,4.307,4.264c-0.172,19.315-0.208,38.634,0.02,57.947
		c0.046,3.94-0.976,4.827-4.849,4.811c-37.413-0.16-74.828-0.096-112.243-0.096c-37.415,0-74.83-0.064-112.244,0.096
		c-3.869,0.017-4.896-0.865-4.85-4.808C427.053,159.154,427.016,139.835,426.844,120.521L426.844,120.521z M660.989,847.496
		c0.03,3.439-0.926,4.271-4.304,4.266c-75.177-0.097-150.355-0.097-225.533,0c-3.373,0.005-4.338-0.82-4.307-4.264
		c0.174-19.315,0.208-38.634-0.02-57.947c-0.046-3.939,0.975-4.827,4.849-4.81c37.413,0.16,74.829,0.096,112.243,0.096
		c37.415,0,74.83,0.064,112.244-0.096c3.868-0.017,4.897,0.864,4.85,4.807C660.78,808.863,660.816,828.181,660.989,847.496
		L660.989,847.496z M655.13,751.525c-74.326-0.161-148.65-0.157-222.976-0.003c-4.386,0.009-5.333-1.09-5.329-5.386
		c0.12-174.759,0.121-349.52-0.002-524.281c-0.003-4.343,1.019-5.366,5.358-5.357c74.499,0.149,148.998,0.151,223.498-0.003
		c4.385-0.009,5.338,1.089,5.33,5.386c-0.139,87.554-0.104,175.109-0.104,262.662c0,87.032-0.042,174.065,0.114,261.096
		C661.027,750.378,659.862,751.535,655.13,751.525L655.13,751.525z M825.066,851.719c-4.697-0.104-9.398-0.032-14.097-0.032
		c-4.004,0-8.035-0.297-12.002,0.087c-3.675,0.356-4.625-1.238-5.059-4.487c-4.576-34.293-9.259-68.572-13.927-102.853
		c-5.042-37.037-10.104-74.071-15.153-111.106c-5.05-37.037-10.098-74.071-15.144-111.108
		c-5.021-36.864-10.031-73.731-15.057-110.595c-5.073-37.207-10.158-74.414-15.239-111.62
		c-5.057-37.034-10.112-74.07-15.174-111.103c-3.178-23.254-6.315-46.514-9.626-69.749c-0.462-3.247,1.303-2.834,3.231-2.831
		c8.528,0.012,17.065,0.229,25.581-0.1c3.658-0.14,4.635,1.251,5.056,4.503c2.462,18.965,5.076,37.911,7.656,56.859
		c5.044,37.037,10.099,74.071,15.151,111.107c5.049,37.037,10.102,74.071,15.146,111.108c5.021,36.864,10.028,73.731,15.054,110.594
		c5.073,37.209,10.162,74.414,15.243,111.622c5.057,37.033,10.108,74.07,15.17,111.104c5.274,38.585,10.533,77.171,15.889,115.744
		C828.119,851.414,827.202,851.766,825.066,851.719L825.066,851.719z M892.07,851.73c-9.223-0.107-18.456-0.235-27.671,0.05
		c-3.717,0.116-3.243-2.385-3.519-4.355c-2.31-16.529-4.502-33.076-6.759-49.613c-5.055-37.035-10.133-74.067-15.188-111.101
		c-5.031-36.864-10.04-73.73-15.067-110.594c-5.073-37.207-10.161-74.413-15.234-111.621c-5.026-36.863-10.039-73.727-15.06-110.592
		c-5.045-37.037-10.09-74.072-15.141-111.109c-5.05-37.036-10.104-74.07-15.162-111.106c-0.565-4.134-1.035-8.286-1.789-12.386
		c-0.422-2.295,0.11-3.092,2.513-3.017c4.695,0.146,9.398,0.043,14.097,0.043c4.004-0.001,8.035,0.291,12.002-0.088
		c3.552-0.341,4.76,0.947,5.191,4.334c2.11,16.556,4.404,33.089,6.66,49.625c5.054,37.035,10.133,74.067,15.187,111.101
		c5.031,36.864,10.041,73.73,15.067,110.594c5.074,37.207,10.161,74.413,15.235,111.621c5.026,36.864,10.038,73.731,15.06,110.594
		c5.046,37.037,10.091,74.073,15.141,111.109c5.05,37.036,10.104,74.071,15.161,111.105c0.565,4.134,1.036,8.286,1.79,12.386
		C895.007,851.011,894.466,851.758,892.07,851.73L892.07,851.73z"/>
	<path fill-rule="evenodd" clip-rule="evenodd" fill="#272536" d="M275.988,316.881c-26.098,0-52.197-0.09-78.294,0.099
		c-3.871,0.028-5.01-0.855-4.849-4.812c0.341-8.338,0.234-16.702,0.035-25.049c-0.072-2.99,0.863-3.728,3.775-3.724
		c53.24,0.084,106.48,0.084,159.72,0c2.921-0.004,3.837,0.748,3.77,3.73c-0.196,8.521-0.244,17.054,0.016,25.572
		c0.106,3.462-0.947,4.281-4.313,4.263C329.229,316.82,302.608,316.881,275.988,316.881L275.988,316.881z"/>
	<path fill-rule="evenodd" clip-rule="evenodd" fill="#272536" d="M276.512,350.307c26.272,0,52.544,0.089,78.815-0.098
		c3.863-0.028,5.017,0.841,4.854,4.807c-0.344,8.338-0.233,16.702-0.036,25.049c0.071,2.983-0.851,3.733-3.771,3.728
		c-53.239-0.084-106.48-0.084-159.72,0c-2.915,0.005-3.843-0.737-3.774-3.725c0.196-8.521,0.243-17.054-0.016-25.572
		c-0.104-3.454,0.935-4.285,4.309-4.267C223.619,350.369,250.066,350.307,276.512,350.307L276.512,350.307z"/>
	<path fill-rule="evenodd" clip-rule="evenodd" fill="#272536" d="M275.975,450.583c-26.098,0-52.196-0.092-78.294,0.1
		c-3.9,0.028-4.99-0.9-4.832-4.828c0.334-8.338,0.233-16.701,0.031-25.049c-0.073-3.011,0.898-3.713,3.791-3.708
		c53.24,0.082,106.48,0.084,159.72-0.002c2.942-0.004,3.82,0.785,3.754,3.744c-0.192,8.521-0.248,17.055,0.019,25.573
		c0.109,3.49-0.989,4.263-4.33,4.246C329.215,450.523,302.595,450.583,275.975,450.583L275.975,450.583z"/>
	<path fill-rule="evenodd" clip-rule="evenodd" fill="#272536" d="M544.475,283.456c26.098,0,52.198,0.095,78.294-0.103
		c3.94-0.03,4.961,0.964,4.809,4.852c-0.324,8.338-0.235,16.702-0.027,25.049c0.076,3.044-0.95,3.69-3.812,3.686
		c-53.241-0.08-106.481-0.083-159.721,0.006c-2.972,0.005-3.796-0.838-3.732-3.766c0.186-8.521,0.251-17.056-0.022-25.573
		c-0.114-3.529,1.049-4.239,4.351-4.222C491.235,283.513,517.855,283.456,544.475,283.456L544.475,283.456z"/>
	<path fill-rule="evenodd" clip-rule="evenodd" fill="#272536" d="M544.44,350.307c26.098,0,52.197,0.09,78.292-0.098
		c3.868-0.028,5.013,0.849,4.851,4.811c-0.341,8.337-0.233,16.701-0.035,25.049c0.071,2.987-0.857,3.729-3.773,3.725
		c-53.239-0.084-106.48-0.084-159.72,0c-2.918,0.005-3.84-0.744-3.771-3.727c0.196-8.521,0.243-17.055-0.017-25.572
		c-0.105-3.459,0.942-4.283,4.311-4.265C491.199,350.369,517.819,350.307,544.44,350.307L544.44,350.307z"/>
	<path fill-rule="evenodd" clip-rule="evenodd" fill="#272536" d="M543.357,450.583c-26.099,0-52.198-0.095-78.294,0.102
		c-3.94,0.03-4.961-0.963-4.809-4.851c0.324-8.338,0.235-16.702,0.027-25.049c-0.076-3.044,0.95-3.69,3.812-3.687
		c53.241,0.08,106.48,0.083,159.721-0.006c2.972-0.004,3.796,0.838,3.732,3.766c-0.186,8.521-0.252,17.056,0.022,25.573
		c0.114,3.529-1.049,4.239-4.351,4.222C596.598,450.526,569.978,450.583,543.357,450.583L543.357,450.583z"/>
</g>
</svg>
