<?xml version="1.0" encoding="utf-8"?>
<!-- Generator: Adobe Illustrator 18.0.0, SVG Export Plug-In . SVG Version: 6.00 Build 0)  -->
<!DOCTYPE svg PUBLIC "-//W3C//DTD SVG 1.1//EN" "http://www.w3.org/Graphics/SVG/1.1/DTD/svg11.dtd">
<svg version="1.1" id="图形" xmlns="http://www.w3.org/2000/svg" xmlns:xlink="http://www.w3.org/1999/xlink" x="0px" y="0px"
	 viewBox="15.167 -16.333 1000.636 1000.678" enable-background="new 15.167 -16.333 1000.636 1000.678" xml:space="preserve">
<g>
	<path fill-rule="evenodd" clip-rule="evenodd" fill="#272536" d="M857.683,240.296H173.285c-47.248,0-85.549,38.302-85.549,85.549
		v470.524c0,47.248,38.302,85.549,85.549,85.549h684.398c47.249,0,85.55-38.302,85.55-85.549V325.846
		C943.233,278.598,904.93,240.296,857.683,240.296L857.683,240.296z M900.458,774.981c0,35.436-28.726,64.162-64.162,64.162
		l-641.623,0c-35.436,0-64.162-28.726-64.162-64.162V347.234c0-35.436,28.726-64.162,64.162-64.162h641.622
		c35.436,0,64.162,28.726,64.162,64.162L900.458,774.981L900.458,774.981L900.458,774.981z"/>
	<polygon fill-rule="evenodd" clip-rule="evenodd" fill="#272536" points="827.251,92.671 506.44,240.296 612.064,240.296 
		845.34,131.434 827.251,92.671 	"/>
	<polygon fill-rule="evenodd" clip-rule="evenodd" fill="#272536" points="191.832,90.667 173.601,130.253 406.312,240.297 
		507.024,240.296 191.832,90.667 	"/>
	<path fill-rule="evenodd" clip-rule="evenodd" fill="#272536" d="M558.26,325.846H258.835c-47.248,0-85.55,38.303-85.55,85.55
		v299.423c0,47.248,38.303,85.55,85.55,85.55h299.424c47.248,0,85.549-38.303,85.549-85.55V411.396
		C643.809,364.147,605.507,325.846,558.26,325.846L558.26,325.846z M601.034,689.432c0,35.436-28.726,64.162-64.162,64.162h-256.65
		c-35.436,0-64.162-28.726-64.162-64.162V432.783c0-35.436,28.726-64.162,64.162-64.162h256.649
		c35.436,0,64.162,28.726,64.162,64.162v256.649H601.034L601.034,689.432z"/>
	<path fill-rule="evenodd" clip-rule="evenodd" fill="#272536" d="M772.133,325.846c-47.248,0-85.549,38.303-85.549,85.55
		c0,47.248,38.302,85.549,85.549,85.549c47.247,0,85.549-38.302,85.549-85.549C857.683,364.147,819.381,325.846,772.133,325.846
		L772.133,325.846z M772.133,454.17c-23.623,0-42.775-19.151-42.775-42.774c0-23.624,19.152-42.775,42.775-42.775
		c23.623,0,42.775,19.151,42.775,42.775C814.909,435.019,795.758,454.17,772.133,454.17L772.133,454.17z"/>
	<polygon fill-rule="evenodd" clip-rule="evenodd" fill="#272536" points="686.584,732.207 857.683,732.207 857.683,774.981 
		686.584,774.981 686.584,732.207 	"/>
	<polygon fill-rule="evenodd" clip-rule="evenodd" fill="#272536" points="686.584,646.657 857.683,646.657 857.683,689.432 
		686.584,689.432 686.584,646.657 	"/>
</g>
</svg>
