<?xml version="1.0" encoding="utf-8"?>
<!-- Generator: Adobe Illustrator 18.0.0, SVG Export Plug-In . SVG Version: 6.00 Build 0)  -->
<!DOCTYPE svg PUBLIC "-//W3C//DTD SVG 1.1//EN" "http://www.w3.org/Graphics/SVG/1.1/DTD/svg11.dtd">
<svg version="1.1" id="图形" xmlns="http://www.w3.org/2000/svg" xmlns:xlink="http://www.w3.org/1999/xlink" x="0px" y="0px"
	 viewBox="0 0 500 500" style="enable-background:new 0 0 500 500;" xml:space="preserve">
<style type="text/css">
	.st0{fill:#272536;}
</style>
<g>
	<path class="st0" d="M412.3,430.3h-26.7c-29.5,0-53.5-23.9-53.5-53.5V216.3c0-19.7,10.8-36.8,26.7-46.1v-20.8
		c0-22.2,18-40.1,40.1-40.1c22.2,0,40.1,18,40.1,40.1v20.8c15.9,9.3,26.7,26.3,26.7,46.1v160.5C465.7,406.3,441.8,430.3,412.3,430.3
		L412.3,430.3z M412.3,149.5c0-7.4-6-13.4-13.4-13.4c-7.4,0-13.4,6-13.4,13.4v13.4h26.7L412.3,149.5L412.3,149.5z M439,216.3
		c0-14.8-12-26.7-26.7-26.7h-26.7c-14.8,0-26.7,12-26.7,26.7v160.5c0,14.8,12,26.7,26.7,26.7h26.7c14.8,0,26.7-12,26.7-26.7V216.3
		L439,216.3z M398.9,376.8c-7.4,0-13.4-6-13.4-13.4v-26.7c0-7.4,6-13.4,13.4-13.4c7.4,0,13.4,6,13.4,13.4v26.7
		C412.3,370.8,406.3,376.8,398.9,376.8L398.9,376.8z M251.8,430.3h-53.5h-26.7h-53.5c-29.5,0-53.5-23.9-53.5-53.5v-53.5v-26.7v-80.2
		c0-51,35.8-93.7,83.6-104.3c-2.1-4.9-3.4-10.3-3.4-16c0-17.4,11.2-32.1,26.7-37.7v-2.1c-22.4,1-42.7,9.9-58.3,24l-0.2-0.3
		c-2.2,1.5-4.7,2.6-7.5,2.6c-7.4,0-13.4-6-13.4-13.4c0-5.2,3-9.6,7.4-11.8c14.5-12.1,31.6-21.1,50.6-25.4c2.3-1.7,5-3,8-3h53.5
		c7.4,0,13.4,6,13.4,13.4c0,5.9-3.9,10.8-9.2,12.5v0.8h-4.2h-13.4v2.5c15.5,5.5,26.7,20.2,26.7,37.7c0,5.7-1.2,11.1-3.4,16
		c47.8,10.7,83.6,53.3,83.6,104.3v80.2v26.7v53.5C305.3,406.3,281.3,430.3,251.8,430.3L251.8,430.3z M184.9,82.6
		c-7.4,0-13.4,6-13.4,13.4c0,7.4,6,13.4,13.4,13.4c7.4,0,13.4-6,13.4-13.4C198.3,88.6,192.3,82.6,184.9,82.6L184.9,82.6z
		 M278.5,323.3v-26.7v-80.2c0-44.3-35.9-80.2-80.2-80.2h-26.7c-44.3,0-80.2,35.9-80.2,80.2v80.2v26.7v53.5c0,14.8,12,26.7,26.7,26.7
		h53.5h26.7h53.5c14.8,0,26.7-12,26.7-26.7V323.3L278.5,323.3z M225.1,376.8h-80.2c-14.8,0-26.7-12-26.7-26.7v-80.2
		c0-14.8,12-26.7,26.7-26.7h80.2c14.8,0,26.7,12,26.7,26.7V350C251.8,364.8,239.8,376.8,225.1,376.8L225.1,376.8z M211.7,269.8
		h-53.5c-7.4,0-13.4,6-13.4,13.4c0,7.4,6,13.4,13.4,13.4h53.5c7.4,0,13.4-6,13.4-13.4C225.1,275.8,219.1,269.8,211.7,269.8
		L211.7,269.8z M211.7,323.3h-53.5c-7.4,0-13.4,6-13.4,13.4c0,7.4,6,13.4,13.4,13.4h53.5c7.4,0,13.4-6,13.4-13.4
		C225.1,329.3,219.1,323.3,211.7,323.3L211.7,323.3z"/>
</g>
</svg>
