<?xml version="1.0" encoding="utf-8"?>
<!-- Generator: Adobe Illustrator 18.0.0, SVG Export Plug-In . SVG Version: 6.00 Build 0)  -->
<!DOCTYPE svg PUBLIC "-//W3C//DTD SVG 1.1//EN" "http://www.w3.org/Graphics/SVG/1.1/DTD/svg11.dtd">
<svg version="1.1" id="图形" xmlns="http://www.w3.org/2000/svg" xmlns:xlink="http://www.w3.org/1999/xlink" x="0px" y="0px"
	 viewBox="15.167 -16.333 1000.636 1000.678" enable-background="new 15.167 -16.333 1000.636 1000.678" xml:space="preserve">
<g>
	<path fill-rule="evenodd" clip-rule="evenodd" fill="#272536" d="M837.777,251.128h-88.146v-71.025
		c0-32.379-16.466-65.823-48.845-65.823H348.592c-32.379,0-68.096,33.444-68.096,65.823v71.025h-68.895
		c-32.358,0-67.952,33.587-67.952,65.966v215.245c0,32.379,35.594,51.117,67.952,51.117h68.875v219.423
		c0,32.379,35.717,50.852,68.096,50.852h352.215c32.379,0,48.845-18.474,48.845-50.852V583.436h88.146
		c32.379,0,49.542-18.739,49.542-51.117V317.094C887.318,284.715,870.156,251.128,837.777,251.128L837.777,251.128 M319.592,180.104
		c0-10.793,18.227-27.567,29-27.567h352.215c10.793,0,9.749,16.773,9.749,27.567v71.024H319.592V180.104L319.592,180.104
		 M710.534,795.385c0,10.793-8.479,20.09-19.272,20.09H339.029c-10.793,0-19.436-9.298-19.436-20.09V505.285
		c0-10.813,8.643-19.579,19.436-19.579h352.235c10.793,0,19.272,8.766,19.272,19.579L710.534,795.385L710.534,795.385
		 M847.381,532.319c0,10.793,1.209,12.021-9.604,12.021h-88.146v-31.58c0-32.38-16.466-66.151-48.845-66.151H348.592
		c-32.379,0-68.096,33.772-68.096,66.151v31.58h-68.895c-10.772,0-28.856-1.228-28.856-12.021V317.094
		c0-10.793,18.084-26.87,28.856-26.87h626.176c10.793,0,9.605,16.077,9.605,26.87v215.225H847.381 M654.03,572.397H380.069
		c-10.792,0-19.558,8.295-19.558,19.129c0,10.834,8.766,19.128,19.558,19.128H654.03c10.815,0,19.559-8.294,19.559-19.128
		C673.59,580.692,664.845,572.397,654.03,572.397L654.03,572.397 M654.03,685.448H380.069c-10.792,0-19.558,8.724-19.558,19.537
		c0,10.815,8.766,19.539,19.558,19.539H654.03c10.815,0,19.559-8.724,19.559-19.539C673.59,694.172,664.845,685.448,654.03,685.448
		L654.03,685.448 M772.684,338.806 M743.883,338.806"/>
</g>
</svg>
