<?xml version="1.0" encoding="utf-8"?>
<!-- Generator: Adobe Illustrator 18.0.0, SVG Export Plug-In . SVG Version: 6.00 Build 0)  -->
<!DOCTYPE svg PUBLIC "-//W3C//DTD SVG 1.1//EN" "http://www.w3.org/Graphics/SVG/1.1/DTD/svg11.dtd">
<svg version="1.1" id="图形" xmlns="http://www.w3.org/2000/svg" xmlns:xlink="http://www.w3.org/1999/xlink" x="0px" y="0px"
	 viewBox="15.167 -16.333 1000.636 1000.678" enable-background="new 15.167 -16.333 1000.636 1000.678" xml:space="preserve">
<g>
	<path fill-rule="evenodd" clip-rule="evenodd" fill="#272536" d="M809.852,877.488h-53.521
		c-59.117,0-107.043-47.926-107.043-107.043V449.317c0-39.52,21.663-73.653,53.524-92.196v-41.608
		c0-44.336,35.939-80.282,80.28-80.282c44.337,0,80.283,35.945,80.283,80.282v41.608c31.86,18.541,53.521,52.675,53.521,92.196
		v321.129C916.895,829.562,868.969,877.488,809.852,877.488L809.852,877.488z M809.852,315.513c0-14.78-11.98-26.76-26.76-26.76
		c-14.777,0-26.76,11.98-26.76,26.76v26.761h53.521V315.513L809.852,315.513z M863.375,449.317
		c0-29.557-23.963-53.521-53.522-53.521h-53.521c-29.558,0-53.518,23.964-53.518,53.521v321.129
		c0,29.56,23.962,53.521,53.518,53.521h53.521c29.56,0,53.522-23.962,53.522-53.521V449.317L863.375,449.317z M783.092,770.445
		c-14.777,0-26.76-11.98-26.76-26.76v-53.521c0-14.778,11.984-26.761,26.76-26.761c14.78,0,26.76,11.984,26.76,26.761v53.521
		C809.852,758.464,797.872,770.445,783.092,770.445L783.092,770.445z M488.724,877.488H381.682H328.16H221.118
		c-59.12,0-107.043-47.926-107.043-107.043V663.402v-53.521V449.317c0-102.146,71.596-187.44,167.306-208.8
		c-4.29-9.826-6.742-20.638-6.742-32.046c0-34.905,22.409-64.306,53.522-75.366v-4.108c-44.875,2.074-85.442,19.785-116.677,48.023
		l-0.428-0.52c-4.339,3.036-9.33,5.211-15.026,5.211c-14.78,0-26.764-11.98-26.764-26.761c0-10.391,6.096-19.147,14.748-23.578
		c29.014-24.205,63.301-42.181,101.308-50.781c4.521-3.493,9.924-5.922,16.078-5.922h107.043c14.78,0,26.758,11.98,26.758,26.76
		c0,11.815-7.776,21.527-18.399,25.072v1.688h-8.36h-26.76v4.916c31.109,11.058,53.521,40.462,53.521,75.366
		c0,11.409-2.451,22.22-6.741,32.047c95.709,21.36,167.308,106.655,167.308,208.799v160.564v53.522v107.042
		C595.77,829.562,547.844,877.488,488.724,877.488L488.724,877.488z M354.921,181.71c-14.778,0-26.761,11.98-26.761,26.76
		c0,14.78,11.984,26.76,26.761,26.76c14.78,0,26.76-11.98,26.76-26.76C381.682,193.69,369.7,181.71,354.921,181.71L354.921,181.71z
		 M542.246,663.402v-53.521V449.317c0-88.677-71.887-160.564-160.564-160.564H328.16c-88.676,0-160.564,71.887-160.564,160.564
		v160.564v53.522v107.042c0,29.56,23.964,53.521,53.521,53.521H328.16h53.522h107.042c29.56,0,53.522-23.962,53.522-53.521V663.402
		L542.246,663.402z M435.202,770.445H274.638c-29.56,0-53.521-23.962-53.521-53.521V556.36c0-29.558,23.961-53.522,53.521-53.522
		h160.564c29.56,0,53.522,23.965,53.522,53.522v160.564C488.724,746.484,464.762,770.445,435.202,770.445L435.202,770.445z
		 M408.442,556.36H301.398c-14.78,0-26.76,11.982-26.76,26.76c0,14.78,11.98,26.76,26.76,26.76h107.043
		c14.78,0,26.76-11.98,26.76-26.76C435.202,568.342,423.222,556.36,408.442,556.36L408.442,556.36z M408.442,663.402H301.398
		c-14.78,0-26.76,11.984-26.76,26.761c0,14.78,11.98,26.76,26.76,26.76h107.043c14.78,0,26.76-11.98,26.76-26.76
		C435.202,675.386,423.222,663.402,408.442,663.402L408.442,663.402z"/>
</g>
</svg>
