<?xml version="1.0" encoding="utf-8"?>
<!-- Generator: Adobe Illustrator 18.0.0, SVG Export Plug-In . SVG Version: 6.00 Build 0)  -->
<!DOCTYPE svg PUBLIC "-//W3C//DTD SVG 1.1//EN" "http://www.w3.org/Graphics/SVG/1.1/DTD/svg11.dtd">
<svg version="1.1" id="图形" xmlns="http://www.w3.org/2000/svg" xmlns:xlink="http://www.w3.org/1999/xlink" x="0px" y="0px"
	 viewBox="0 0 500 500" style="enable-background:new 0 0 500 500;" xml:space="preserve">
<style type="text/css">
	.st0{fill:#E5E5E5;}
</style>
<path class="st0" d="M489.3,361.8c-4.7-24.3-17.3-70.6-38.5-118.5c-0.2-0.5-0.4-1-0.7-1.5c-6.9-15.5-14.7-31.1-23.5-46.2
	c-20.1-34.8-42.5-62.1-66.5-81.2c-29.7-23.7-61.9-34.9-95.7-33.3c-33.4,1.5-66.2,18-97.3,48.8c-23.8,23.6-46.9,55.7-68.5,95.6
	c-36.4,67-56.4,132.2-57.2,134.9c-2.4,7.9,2.1,16.2,10,18.6c1.4,0.4,2.9,0.6,4.3,0.6c6.4,0,12.3-4.2,14.3-10.6
	c0.1-0.3,5.6-18.3,15.8-44.5l121.2,41c-0.1,4.7-0.1,9.4-0.1,14.1c0,8.2,6.7,14.9,14.9,14.9s14.9-6.7,14.9-14.9c0-4.1,0-8.2,0.1-12.2
	l214.4-35.2c4.1,14.2,6.9,26.4,8.7,35.3c1.6,8.1,9.4,13.4,17.5,11.8C485.6,377.7,490.9,369.9,489.3,361.8z M400.8,210.5
	c5,8.6,9.7,17.4,14,26.3l-16.8,2.5c-14.4-24.1-27.7-41.3-40.5-52.4c-14.5-12.5-28.7-17.3-42.3-14.4c-19,4.1-33.5,22.8-43.1,55.6
	c-3.4,11.7-5.6,23-6.9,31.1l-20.7,3.1c6.6-44.5,16.3-76.3,25-97.9c11.2-27.9,22.6-43.3,28.4-50C335.4,124.9,369.9,157.1,400.8,210.5
	z M366,244.2l-69.4,10.4c1.1-5.5,2.5-11.8,4.4-18.1c6.9-23.9,15.3-33.6,20.7-34.8c3.8-0.8,9.7,1.9,16.5,7.8
	C346.5,216.9,355.9,228.5,366,244.2z M263.5,111c-6.2,9.5-13.2,22.2-20.1,38.8c-10.7,25.6-19.2,55.6-25.2,89.2
	c-1.4,7.8-2.7,15.8-3.8,24L127,235.7C157.9,180,205.8,115.3,263.5,111z M97.2,296.8c4.7-10.9,10-22.4,15.8-34.2l97.9,30.6
	c-1.3,13.3-2.2,27-2.9,41.1L97.2,296.8z M237.7,336.9c0.7-15.6,1.8-30.2,3.2-43.8l39.8-6c0.1,0,0.2,0,0.3,0l146.8-22.1
	c5.5,13.2,10.4,26.1,14.5,38.3L237.7,336.9z"/>
</svg>
