<?xml version="1.0" encoding="utf-8"?>
<!-- Generator: Adobe Illustrator 18.0.0, SVG Export Plug-In . SVG Version: 6.00 Build 0)  -->
<!DOCTYPE svg PUBLIC "-//W3C//DTD SVG 1.1//EN" "http://www.w3.org/Graphics/SVG/1.1/DTD/svg11.dtd">
<svg version="1.1" id="图形" xmlns="http://www.w3.org/2000/svg" xmlns:xlink="http://www.w3.org/1999/xlink" x="0px" y="0px"
	 viewBox="15.167 -16.333 1000.636 1000.678" enable-background="new 15.167 -16.333 1000.636 1000.678" xml:space="preserve">
<path d="M918.458,700.462c0,0-49.404-61.832-123.708-61.832c-37.547,0-81.418,61.832-128.538,61.832
	c-47.735,0-98.764-61.832-149.793-61.832c-53.093,0-106.186,61.832-155.59,61.832c-46.111,0-88.971-61.832-125.64-61.832
	c-72.679,0-120.766,61.832-120.766,61.832c-17.039,0-30.872,13.833-30.872,30.916c0,17.083,13.833,30.916,30.916,30.916
	c0,0,48.131-61.832,120.766-61.832c36.625,0,79.53,61.832,125.64,61.832c49.097,0,101.838-61.832,154.624-61.832
	c52.742,0,105.483,61.832,154.624,61.832c45.232,0,87.39-61.832,123.708-61.832c74.831,0,124.674,61.832,124.674,61.832
	c17.083,0,30.916-13.833,30.916-30.916C949.418,714.295,935.497,700.462,918.458,700.462z"/>
<path d="M918.458,855.085c0,0-49.404-61.832-123.708-61.832c-37.547,0-81.418,61.832-128.538,61.832
	c-47.735,0-98.764-61.832-149.793-61.832c-53.093,0-106.186,61.832-155.59,61.832c-46.111,0-88.971-61.832-125.64-61.832
	c-72.679,0-120.766,61.832-120.766,61.832c-17.039,0-30.872,13.833-30.872,30.916s13.833,30.916,30.916,30.916
	c0,0,48.131-61.832,120.766-61.832c36.669,0,79.53,61.832,125.64,61.832c49.097,0,101.838-61.832,154.624-61.832
	c52.742,0,105.483,61.832,154.624,61.832c45.232,0,87.39-61.832,123.708-61.832c74.831,0,124.674,61.832,124.674,61.832
	c17.083,0,30.916-13.833,30.916-30.916S935.497,855.085,918.458,855.085z"/>
<path d="M114.467,607.714c0,0,48.131-61.832,120.766-61.832c36.625,0,79.53,61.832,125.64,61.832
	c49.097,0,101.838-61.832,154.624-61.832c52.742,0,105.483,61.832,154.624,61.832c45.232,0,87.39-61.832,123.708-61.832
	c74.831,0,124.674,61.832,124.674,61.832c17.083,0,30.916-13.833,30.916-30.916s-13.833-30.916-30.916-30.916
	c0,0-49.404-61.832-123.708-61.832c-27.842,0-59.197,33.99-92.748,51.556V174.802c0-34.166,27.666-61.832,61.832-61.832
	c34.166,0,61.832,27.666,61.832,61.832v92.748h61.832v-92.748c0-68.287-55.377-123.664-123.708-123.664
	s-123.708,55.376-123.708,123.664v30.916H392.755v-30.916c0-34.166,27.666-61.832,61.832-61.832h92.748V51.094h-92.704
	c-68.331,0-123.708,55.376-123.708,123.664v30.916v61.832v92.748v61.832v115.671c-34.737-16.556-67.102-53.839-95.646-53.839
	c-72.679,0-120.766,61.832-120.766,61.832c-17.127,0.088-30.96,13.965-30.96,31.004C83.551,593.837,97.384,607.714,114.467,607.714z
	 M392.755,267.55h247.372v92.748H392.755V267.55z M640.127,422.174v117.955c-40.006-14.975-81.857-56.123-123.664-56.123
	s-83.658,38.03-123.708,54.323V422.174H640.127z"/>
</svg>
