<?xml version="1.0" encoding="utf-8"?>
<!-- Generator: Adobe Illustrator 18.0.0, SVG Export Plug-In . SVG Version: 6.00 Build 0)  -->
<!DOCTYPE svg PUBLIC "-//W3C//DTD SVG 1.1//EN" "http://www.w3.org/Graphics/SVG/1.1/DTD/svg11.dtd">
<svg version="1.1" id="图形" xmlns="http://www.w3.org/2000/svg" xmlns:xlink="http://www.w3.org/1999/xlink" x="0px" y="0px"
	 viewBox="15.167 -16.333 1000.636 1000.678" enable-background="new 15.167 -16.333 1000.636 1000.678" xml:space="preserve">
<g>
	<path fill-rule="evenodd" clip-rule="evenodd" fill="#C6C6C6" d="M277.36,497.589c23.403,0,45.579,4.583,66.364,13.584
		c20.785,9.083,38.624,21.031,53.517,35.924c15.957,14.974,28.231,32.813,36.741,53.598c8.511,20.785,12.766,43.452,12.766,67.919
		c0,23.403-4.255,45.579-12.766,66.282c-8.51,20.867-20.784,38.706-36.741,53.599c-14.975,15.957-32.814,28.231-53.599,36.742
		c-20.703,8.592-42.879,12.765-66.282,12.765c-24.467,0-47.134-4.255-67.919-12.765c-20.785-8.511-38.624-20.785-53.599-36.742
		c-14.893-14.893-26.922-32.732-35.923-53.517c-9.001-20.785-13.584-42.879-13.584-66.364c0-24.467,4.501-47.134,13.584-67.919
		c9.083-20.785,21.03-38.624,35.923-53.517c14.893-14.893,32.732-26.922,53.517-35.923
		C230.226,502.172,252.811,497.589,277.36,497.589L277.36,497.589z M277.36,786.858c15.957,0,31.177-3.191,45.579-9.574
		c14.402-6.382,26.922-14.893,37.56-25.612c10.638-10.638,19.148-23.158,25.613-37.56c6.383-14.403,9.574-29.541,9.574-45.58
		c0-17.02-3.192-32.732-9.574-47.134c-6.465-14.32-14.975-26.84-25.695-37.478c-10.638-10.638-23.158-19.148-37.56-25.613
		c-14.32-6.382-29.54-9.574-45.497-9.574c-17.021,0-32.732,3.192-47.134,9.574c-14.402,6.465-26.922,14.975-37.56,25.613
		c-10.72,10.638-19.23,23.158-25.613,37.56c-6.383,14.402-9.574,30.113-9.574,47.134c0,15.957,3.191,31.177,9.574,45.579
		c6.383,14.402,14.893,26.922,25.613,37.56c10.638,10.638,23.158,19.149,37.56,25.613
		C244.546,783.667,260.339,786.858,277.36,786.858L277.36,786.858z M552.227,344.158l-78.312,78.312l75.12,57.526v222.168h-60.718
		V531.14l-116.689-67.101c-4.255-3.191-7.938-6.628-11.211-10.392c-3.191-3.683-5.81-7.692-7.937-11.947
		c-2.128-4.256-4.01-9.002-5.565-14.403c-1.636-5.319-2.455-10.146-2.455-14.402c0-8.51,1.637-16.202,4.828-23.158
		c3.192-6.955,7.447-13.01,12.766-18.411l126.263-126.264c5.319-5.319,11.457-9.574,18.412-12.765
		c6.956-3.192,14.648-4.828,23.158-4.828c5.319,0,10.638,0.818,15.957,2.373c5.319,1.636,10.147,3.437,14.402,5.564
		c4.255,2.128,8.019,5.074,11.211,8.756c3.191,3.764,6.382,7.774,9.574,11.947l63.909,112.025h108.67v60.718H611.39L552.227,344.158
		L552.227,344.158z M753.61,497.589c24.467,0,47.134,4.583,67.919,13.584c20.785,9.083,38.624,21.031,53.517,35.924
		c14.893,14.974,26.922,32.732,35.923,53.516c9.165,20.867,13.666,43.534,13.666,68.001c0,23.403-4.501,45.579-13.584,66.282
		c-9.083,20.867-21.03,38.706-36.005,53.599c-14.893,15.957-32.732,28.231-53.517,36.742c-20.785,8.592-43.37,12.765-67.919,12.765
		c-23.403,0-45.579-4.255-66.364-12.765c-20.703-8.511-38.542-20.785-53.517-36.742c-15.957-14.893-28.231-32.732-36.741-53.517
		c-8.511-20.785-12.766-42.879-12.766-66.364c0-24.467,4.255-47.134,12.766-67.919c8.51-20.785,20.784-38.624,36.741-53.517
		c14.893-14.893,32.732-26.922,53.517-35.923C708.031,502.172,730.207,497.589,753.61,497.589L753.61,497.589z M651.323,251.445
		c-8.511,0-16.53-1.637-23.976-4.828c-7.447-3.11-13.83-7.365-19.149-12.684c-5.319-5.401-9.574-11.783-12.765-19.23
		c-3.191-7.446-4.828-15.384-4.828-23.976c0-8.51,1.555-16.53,4.828-23.976c3.191-7.365,7.446-13.829,12.765-19.148
		c5.319-5.319,11.702-9.575,19.149-12.766c7.446-3.191,15.465-4.828,23.976-4.828c8.51,0,16.529,1.637,23.976,4.828
		c7.446,3.191,14.402,7.447,20.785,12.766c5.319,5.319,9.574,11.783,12.765,19.148c3.192,7.446,4.828,15.466,4.828,23.976
		c0,8.51-1.636,16.53-4.828,23.976c-3.191,7.447-7.446,13.829-12.765,19.23c-6.383,5.319-13.339,9.574-20.785,12.766
		C667.852,249.89,659.833,251.445,651.323,251.445L651.323,251.445z M753.61,786.858c17.021,0,32.732-3.191,47.134-9.574
		c14.402-6.382,26.922-14.893,37.56-25.612c10.638-10.638,19.149-23.158,25.613-37.56c6.383-14.403,9.574-29.541,9.574-45.58
		c0-17.02-3.191-32.732-9.574-47.134c-6.383-14.32-14.975-26.84-25.613-37.478c-10.638-10.638-23.158-19.148-37.56-25.613
		c-14.32-6.382-30.113-9.574-47.134-9.574c-15.957,0-31.177,3.192-45.579,9.574c-14.32,6.465-26.84,14.975-37.56,25.613
		c-10.638,10.638-19.148,23.158-25.531,37.56s-9.574,30.113-9.574,47.134c0,15.957,3.191,31.177,9.574,45.579
		c6.383,14.402,14.893,26.922,25.531,37.56s23.158,19.149,37.56,25.613C722.433,783.667,737.653,786.858,753.61,786.858
		L753.61,786.858z"/>
</g>
</svg>
