<svg class="icon" style="width: 200; height: 200;vertical-align: middle;fill: currentColor;overflow: hidden;" viewBox="0 0 1024 1024" version="1.1" xmlns="http://www.w3.org/2000/svg" p-id="5769"><path d="M973.4144 771.6352c0 0-57.6-72.0896-144.2304-72.0896-43.776 0-94.9248 72.0896-149.8624 72.0896-55.6544 0-115.1488-72.0896-174.6432-72.0896-61.9008 0-123.8016 72.0896-181.4016 72.0896-53.76 0-103.7312-72.0896-146.4832-72.0896-84.736 0-140.8 72.0896-140.8 72.0896C16.128 771.6352 0 787.7632 0 807.68s16.128 36.0448 36.0448 36.0448c0 0 56.1152-72.0896 140.8-72.0896 42.7008 0 92.7232 72.0896 146.4832 72.0896 57.2416 0 118.7328-72.0896 180.2752-72.0896 61.4912 0 122.9824 72.0896 180.2752 72.0896 52.736 0 101.888-72.0896 144.2304-72.0896 87.2448 0 145.3568 72.0896 145.3568 72.0896 19.9168 0 36.0448-16.128 36.0448-36.0448S993.28 771.6352 973.4144 771.6352z" p-id="5770"></path><path d="M973.4144 951.9104c0 0-57.6-72.0896-144.2304-72.0896-43.776 0-94.9248 72.0896-149.8624 72.0896-55.6544 0-115.1488-72.0896-174.6432-72.0896-61.9008 0-123.8016 72.0896-181.4016 72.0896-53.76 0-103.7312-72.0896-146.4832-72.0896-84.736 0-140.8 72.0896-140.8 72.0896C16.128 951.9104 0 968.0384 0 987.9552 0 1007.872 16.128 1024 36.0448 1024c0 0 56.1152-72.0896 140.8-72.0896C219.5968 951.9104 269.568 1024 323.328 1024c57.2416 0 118.7328-72.0896 180.2752-72.0896 61.4912 0 122.9824 72.0896 180.2752 72.0896 52.736 0 101.888-72.0896 144.2304-72.0896 87.2448 0 145.3568 72.0896 145.3568 72.0896 19.9168 0 36.0448-16.128 36.0448-36.0448S993.28 951.9104 973.4144 951.9104z" p-id="5771"></path><path d="M36.0448 663.5008c0 0 56.1152-72.0896 140.8-72.0896 42.7008 0 92.7232 72.0896 146.4832 72.0896 57.2416 0 118.7328-72.0896 180.2752-72.0896 61.4912 0 122.9824 72.0896 180.2752 72.0896 52.736 0 101.888-72.0896 144.2304-72.0896 87.2448 0 145.3568 72.0896 145.3568 72.0896 19.9168 0 36.0448-16.128 36.0448-36.0448 0-19.9168-16.128-36.0448-36.0448-36.0448 0 0-57.6-72.0896-144.2304-72.0896-32.4608 0-69.0176 39.6288-108.1344 60.1088L721.1008 158.7712c0-39.8336 32.256-72.0896 72.0896-72.0896 39.8336 0 72.0896 32.256 72.0896 72.0896l0 108.1344 72.0896 0L937.3696 158.7712c0-79.616-64.5632-144.1792-144.2304-144.1792s-144.2304 64.5632-144.2304 144.1792l0 36.0448L360.4992 194.816 360.4992 158.7712c0-39.8336 32.256-72.0896 72.0896-72.0896l108.1344 0L540.7232 14.5408 432.64 14.5408c-79.6672 0-144.2304 64.5632-144.2304 144.1792l0 36.0448 0 72.0896 0 108.1344 0 72.0896 0 134.8608c-40.4992-19.3024-78.2336-62.7712-111.5136-62.7712-84.736 0-140.8 72.0896-140.8 72.0896C16.128 591.36 0 607.5392 0 627.4048 0 647.3216 16.128 663.5008 36.0448 663.5008zM360.4992 266.9056l288.4096 0 0 108.1344L360.4992 375.04 360.4992 266.9056zM648.9088 447.1808l0 137.5232c-46.6432-17.4592-95.4368-65.4336-144.1792-65.4336s-97.536 44.3392-144.2304 63.3344L360.4992 447.1808 648.9088 447.1808z" p-id="5772"></path></svg>