<svg class="icon" style="width: 200; height: 200;vertical-align: middle;fill: currentColor;overflow: hidden;" viewBox="0 0 1024 1024" version="1.1" xmlns="http://www.w3.org/2000/svg" p-id="11032"><path d="M992.482133 760.728533c-10.119467-52.152533-37.074133-151.362133-82.4832-253.962667-0.426667-1.125333-0.9152-2.215467-1.458133-3.2704-14.8224-33.223467-31.572267-66.754133-50.317867-99.111467-43.1744-74.523733-91.137067-133.093333-142.558933-174.082133-63.652267-50.737067-132.666667-74.766933-205.1328-71.444267-71.661867 3.294933-141.864533 38.497067-208.660267 104.626133-51.013333 50.5056-100.442667 119.426133-146.912 204.849067C76.824533 611.957333 34.090667 751.6672 32.309333 757.543467c-5.125333 16.913067 4.430933 34.779733 21.345067 39.905067 3.093333 0.9376 6.218667 1.383467 9.291733 1.383467 13.730133 0 26.4256-8.9088 30.613333-22.728533 0.218667-0.724267 11.973333-39.150933 33.959467-95.4592l259.889067 87.8752c-0.136533 10.021333-0.205867 20.120533-0.205867 30.304 0 17.672533 14.327467 32 32 32s32-14.327467 32-32c0-8.862933 0.0608-17.5808 0.165333-26.187733l459.661867-75.489067c8.7072 30.4192 14.8864 56.504533 18.625067 75.771733 3.3664 17.3504 20.152533 28.6784 37.5104 25.3184C984.512 794.871467 995.847467 778.077867 992.482133 760.728533zM802.845867 436.465067c10.717867 18.4992 20.7392 37.4016 30.090667 56.397867l-35.960533 5.4048c-30.88-51.704533-59.339733-88.4992-86.801067-112.251733-30.9824-26.8-61.506133-37.184-90.7168-30.866133-40.7744 8.8192-71.831467 48.9344-92.308267 119.230933-7.3024 25.0656-11.953067 49.383467-14.709333 66.6592l-44.301867 6.660267c14.112-95.3312 34.848-163.517867 53.502933-209.8016 24.107733-59.806933 48.3488-92.7456 60.8768-107.2608C662.641067 253.0432 736.510933 321.960533 802.845867 436.465067zM728.1152 508.619733l-148.872533 22.378667c2.344533-11.826133 5.412267-25.189333 9.3536-38.717867 14.893867-51.128533 32.696533-72.048 44.392533-74.577067 8.238933-1.792 20.791467 4.152533 35.317333 16.715733C686.429867 450.097067 706.48 474.9888 728.1152 508.619733zM508.5152 223.104c-13.2 20.324267-28.218667 47.573333-43.112533 83.2608-22.8768 54.817067-41.054933 119.127467-54.027733 191.143467-3.008 16.699733-5.738667 33.834667-8.189867 51.383467l-187.3248-58.497067C281.976533 371.0848 384.7776 232.298667 508.5152 223.104zM151.9072 621.332267c10.068267-23.2832 21.368533-48.004267 33.842133-73.293867l209.853867 65.5328c-2.734933 28.448-4.804267 57.826133-6.203733 88.062933L151.9072 621.332267zM453.214933 707.476267c1.511467-33.432533 3.821867-64.6752 6.763733-93.829333l85.258667-12.817067c0.205867-0.027733 0.410667-0.0608 0.615467-0.0928l314.6464-47.2992c11.864533 28.219733 22.24 55.9072 31.160533 82.033067L453.214933 707.476267z" p-id="11033"></path></svg>