<svg class="icon" style="width: 200; height: 200;vertical-align: middle;fill: currentColor;overflow: hidden;" viewBox="0 0 1024 1024" version="1.1" xmlns="http://www.w3.org/2000/svg" p-id="10227"><path d="M627.878171 110.556978c-18.834974-3.415796-37.045731 8.374738-41.628096 26.939559-7.196912 29.188786-38.424124 50.380434-74.256214 50.380434-35.820833 0-67.048045-21.190625-74.244958-50.380434-4.582365-18.576077-22.804379-30.366611-41.628096-26.939559C200.949708 146.142451 74.841545 271.309172 67.008136 437.232133c-0.459464 9.883091 3.133364 19.529799 9.964956 26.679639 6.831592 7.16212 16.291035 11.213389 26.185382 11.213389l131.762953 0 0 342.506724c0 53.159734 43.24185 96.401584 96.401584 96.401584l127.157052 0c19.989263 0 36.186154-16.196891 36.186154-36.186154l0-63.878866 34.6778 0 0 63.878866c0 19.989263 16.196891 36.186154 36.186154 36.186154l127.133515 0c53.159734 0 96.413863-43.24185 96.413863-96.401584L789.077549 475.126184l131.762953 0c9.894348 0 19.35379-4.052293 26.185382-11.213389 6.831592-7.14984 10.42442-16.797571 9.964956-26.679639C949.146175 271.309172 823.038012 146.131195 627.878171 110.556978zM692.664709 841.662185l-90.947362 0 0-45.903469c0-29.860075-24.300452-54.16155-54.16155-54.16155l-71.111594 0c-29.860075 0-54.149271 24.300452-54.149271 54.16155l0 45.903469-90.970898 0c-13.251815 0-24.029276-10.778484-24.029276-24.029276L307.294758 635.842563l409.41253 0 0 181.789323C716.706265 830.883701 705.916525 841.662185 692.664709 841.662185zM788.983405 402.753877l0-9.434883c0-19.989263-16.196891-36.186154-36.186154-36.186154s-36.186154 16.196891-36.186154 36.186154l0 94.78783c0 0.320295 0.085958 0.617054 0.094144 0.935302l0 74.42813L307.293735 563.470255l0-74.078159c0.01535-0.436952 0.12996-0.845251 0.12996-1.286296l0-94.78783c0-19.989263-16.196891-36.186154-36.186154-36.186154s-36.186154 16.196891-36.186154 36.186154l0 9.434883-91.218538 0c20.62576-105.412818 106.084107-183.332469 236.786914-214.972073 24.948205 43.925419 74.751494 72.466452 131.374096 72.466452 56.634882 0 106.437148-28.541033 131.386376-72.466452C774.070764 219.421408 859.530135 297.341059 880.155894 402.753877L788.983405 402.753877z" p-id="10228"></path></svg>