<svg class="icon" style="width: 200; height: 200;vertical-align: middle;fill: currentColor;overflow: hidden;" viewBox="0 0 1024 1024" version="1.1" xmlns="http://www.w3.org/2000/svg" p-id="7311"><path d="M281.6 460.9024c-42.3936 0-76.9024-34.5088-76.9024-76.9024s34.5088-76.9024 76.9024-76.9024 76.9024 34.5088 76.9024 76.9024-34.5088 76.9024-76.9024 76.9024zM281.6 358.2976c-14.1824 0-25.7024 11.52-25.7024 25.7024s11.52 25.7024 25.7024 25.7024 25.7024-11.52 25.7024-25.7024-11.52-25.7024-25.7024-25.7024z" p-id="7312"></path><path d="M486.4 870.4c-14.1312 0-25.6-11.4688-25.6-25.6l0-153.4976c0-39.5264 29.7472-79.0016 67.7888-89.9072l76.8-21.9648-166.912-111.2576-87.552 87.552c-4.8128 4.8128-11.3152 7.4752-18.1248 7.4752l-102.5024 0c-14.1312 0-25.6-11.4688-25.6-25.6s11.4688-25.6 25.6-25.6l91.904 0 94.9248-94.9248c8.6528-8.6528 22.1696-9.984 32.3072-3.2256l187.8016 125.184c28.16 18.7904 28.0576 40.8064 26.7264 49.4592s-7.9872 29.6448-40.4992 38.9632l-80.7424 23.1424c-16.0256 4.608-30.6688 23.9616-30.6688 40.704l0 153.4976c0 14.1312-11.4688 25.6-25.6 25.6z" p-id="7313"></path><path d="M768 1024c-112.9472 0-204.8-91.8528-204.8-204.8s91.8528-204.8 204.8-204.8 204.8 91.8528 204.8 204.8-91.8528 204.8-204.8 204.8zM768 665.6c-84.6848 0-153.6 68.9152-153.6 153.6s68.9152 153.6 153.6 153.6 153.6-68.9152 153.6-153.6-68.9152-153.6-153.6-153.6z" p-id="7314"></path><path d="M204.7488 1024c-112.896 0-204.7488-91.8528-204.7488-204.7488s91.8528-204.7488 204.7488-204.7488 204.7488 91.8528 204.7488 204.7488-91.8528 204.7488-204.7488 204.7488zM204.7488 665.7024c-84.6848 0-153.5488 68.864-153.5488 153.5488s68.864 153.5488 153.5488 153.5488 153.5488-68.864 153.5488-153.5488-68.864-153.5488-153.5488-153.5488z" p-id="7315"></path></svg>