<?xml version="1.0" encoding="utf-8"?>
<!-- Generator: Adobe Illustrator 18.0.0, SVG Export Plug-In . SVG Version: 6.00 Build 0)  -->
<!DOCTYPE svg PUBLIC "-//W3C//DTD SVG 1.1//EN" "http://www.w3.org/Graphics/SVG/1.1/DTD/svg11.dtd">
<svg version="1.1" id="图形" xmlns="http://www.w3.org/2000/svg" xmlns:xlink="http://www.w3.org/1999/xlink" x="0px" y="0px"
	 viewBox="0 0 500 500" style="enable-background:new 0 0 500 500;" xml:space="preserve">
<style type="text/css">
	.st0{fill:#919191;}
</style>
<g>
	<path class="st0" d="M443.9,358.2c0,0-24.7-30.9-61.8-30.9c-18.8,0-40.7,30.9-64.2,30.9c-23.9,0-49.3-30.9-74.8-30.9
		c-26.5,0-53.1,30.9-77.7,30.9c-23,0-44.5-30.9-62.8-30.9c-36.3,0-60.3,30.9-60.3,30.9c-8.5,0-15.4,6.9-15.4,15.4S33.6,389,42.1,389
		c0,0,24-30.9,60.3-30.9c18.3,0,39.7,30.9,62.8,30.9c24.5,0,50.9-30.9,77.3-30.9c26.4,0,52.7,30.9,77.3,30.9
		c22.6,0,43.7-30.9,61.8-30.9c37.4,0,62.3,30.9,62.3,30.9c8.5,0,15.4-6.9,15.4-15.4C459.3,365.1,452.4,358.2,443.9,358.2z"/>
	<path class="st0" d="M443.9,435.4c0,0-24.7-30.9-61.8-30.9c-18.8,0-40.7,30.9-64.2,30.9c-23.9,0-49.3-30.9-74.8-30.9
		c-26.5,0-53.1,30.9-77.7,30.9c-23,0-44.5-30.9-62.8-30.9c-36.3,0-60.3,30.9-60.3,30.9c-8.5,0-15.4,6.9-15.4,15.4
		c0,8.5,6.9,15.4,15.4,15.4c0,0,24-30.9,60.3-30.9c18.3,0,39.7,30.9,62.8,30.9c24.5,0,50.9-30.9,77.3-30.9
		c26.4,0,52.7,30.9,77.3,30.9c22.6,0,43.7-30.9,61.8-30.9c37.4,0,62.3,30.9,62.3,30.9c8.5,0,15.4-6.9,15.4-15.4
		C459.3,442.3,452.4,435.4,443.9,435.4z"/>
	<path class="st0" d="M42.1,311.8c0,0,24-30.9,60.3-30.9c18.3,0,39.7,30.9,62.8,30.9c24.5,0,50.9-30.9,77.3-30.9
		c26.4,0,52.7,30.9,77.3,30.9c22.6,0,43.7-30.9,61.8-30.9c37.4,0,62.3,30.9,62.3,30.9c8.5,0,15.4-6.9,15.4-15.4s-6.9-15.4-15.4-15.4
		c0,0-24.7-30.9-61.8-30.9c-13.9,0-29.6,17-46.3,25.8V95.5c0-17.1,13.8-30.9,30.9-30.9c17.1,0,30.9,13.8,30.9,30.9v46.3h30.9V95.5
		c0-34.1-27.7-61.8-61.8-61.8s-61.8,27.7-61.8,61.8V111H181.2V95.5c0-17.1,13.8-30.9,30.9-30.9h46.3V33.7h-46.3
		c-34.1,0-61.8,27.7-61.8,61.8v15.4v30.9v46.3v30.9v57.8c-17.4-8.3-33.5-26.9-47.8-26.9c-36.3,0-60.3,30.9-60.3,30.9
		c-8.6,0-15.5,7-15.5,15.5C26.7,304.9,33.6,311.8,42.1,311.8z M181.2,141.8h123.6v46.3H181.2V141.8z M304.8,219.1V278
		c-20-7.5-40.9-28-61.8-28s-41.8,19-61.8,27.1v-58H304.8z"/>
</g>
</svg>
