<?xml version="1.0" encoding="utf-8"?>
<!-- Generator: Adobe Illustrator 18.0.0, SVG Export Plug-In . SVG Version: 6.00 Build 0)  -->
<!DOCTYPE svg PUBLIC "-//W3C//DTD SVG 1.1//EN" "http://www.w3.org/Graphics/SVG/1.1/DTD/svg11.dtd">
<svg version="1.1" id="图形" xmlns="http://www.w3.org/2000/svg" xmlns:xlink="http://www.w3.org/1999/xlink" x="0px" y="0px"
	 viewBox="0 0 500 500" style="enable-background:new 0 0 500 500;" xml:space="preserve">
<style type="text/css">
	.st0{fill:#C6C6C6;}
</style>
<g>
	<path class="st0" d="M146.2,240.5c11.7,0,22.8,2.3,33.2,6.8c10.4,4.5,19.3,10.5,26.7,17.9c8,7.5,14.1,16.4,18.4,26.8
		c4.3,10.4,6.4,21.7,6.4,33.9c0,11.7-2.1,22.8-6.4,33.1c-4.3,10.4-10.4,19.3-18.4,26.8c-7.5,8-16.4,14.1-26.8,18.4
		c-10.3,4.3-21.4,6.4-33.1,6.4c-12.2,0-23.6-2.1-33.9-6.4c-10.4-4.3-19.3-10.4-26.8-18.4c-7.4-7.4-13.5-16.4-17.9-26.7
		c-4.5-10.4-6.8-21.4-6.8-33.2c0-12.2,2.2-23.6,6.8-33.9c4.5-10.4,10.5-19.3,17.9-26.7c7.4-7.4,16.4-13.5,26.7-17.9
		C122.6,242.7,133.9,240.5,146.2,240.5L146.2,240.5z M146.2,385c8,0,15.6-1.6,22.8-4.8c7.2-3.2,13.5-7.4,18.8-12.8
		c5.3-5.3,9.6-11.6,12.8-18.8c3.2-7.2,4.8-14.8,4.8-22.8c0-8.5-1.6-16.4-4.8-23.6c-3.2-7.2-7.5-13.4-12.8-18.7
		c-5.3-5.3-11.6-9.6-18.8-12.8c-7.2-3.2-14.8-4.8-22.7-4.8c-8.5,0-16.4,1.6-23.6,4.8c-7.2,3.2-13.5,7.5-18.8,12.8
		c-5.4,5.3-9.6,11.6-12.8,18.8c-3.2,7.2-4.8,15-4.8,23.6c0,8,1.6,15.6,4.8,22.8c3.2,7.2,7.4,13.5,12.8,18.8
		c5.3,5.3,11.6,9.6,18.8,12.8C129.8,383.4,137.7,385,146.2,385L146.2,385z M283.5,163.8l-39.1,39.1l37.5,28.7v111h-30.3v-85.5
		l-58.3-33.5c-2.1-1.6-4-3.3-5.6-5.2c-1.6-1.8-2.9-3.8-4-6c-1.1-2.1-2-4.5-2.8-7.2c-0.8-2.7-1.2-5.1-1.2-7.2c0-4.3,0.8-8.1,2.4-11.6
		c1.6-3.5,3.7-6.5,6.4-9.2l63.1-63.1c2.7-2.7,5.7-4.8,9.2-6.4c3.5-1.6,7.3-2.4,11.6-2.4c2.7,0,5.3,0.4,8,1.2
		c2.7,0.8,5.1,1.7,7.2,2.8c2.1,1.1,4,2.5,5.6,4.4c1.6,1.9,3.2,3.9,4.8,6l31.9,56h54.3v30.3h-71.1L283.5,163.8L283.5,163.8z
		 M384.1,240.5c12.2,0,23.6,2.3,33.9,6.8c10.4,4.5,19.3,10.5,26.7,17.9c7.4,7.5,13.5,16.4,17.9,26.7c4.6,10.4,6.8,21.8,6.8,34
		c0,11.7-2.2,22.8-6.8,33.1c-4.5,10.4-10.5,19.3-18,26.8c-7.4,8-16.4,14.1-26.7,18.4c-10.4,4.3-21.7,6.4-33.9,6.4
		c-11.7,0-22.8-2.1-33.2-6.4c-10.3-4.3-19.3-10.4-26.7-18.4c-8-7.4-14.1-16.4-18.4-26.7c-4.3-10.4-6.4-21.4-6.4-33.2
		c0-12.2,2.1-23.6,6.4-33.9c4.3-10.4,10.4-19.3,18.4-26.7c7.4-7.4,16.4-13.5,26.7-17.9C361.4,242.7,372.5,240.5,384.1,240.5
		L384.1,240.5z M333,117.5c-4.3,0-8.3-0.8-12-2.4c-3.7-1.6-6.9-3.7-9.6-6.3c-2.7-2.7-4.8-5.9-6.4-9.6c-1.6-3.7-2.4-7.7-2.4-12
		c0-4.3,0.8-8.3,2.4-12c1.6-3.7,3.7-6.9,6.4-9.6c2.7-2.7,5.8-4.8,9.6-6.4c3.7-1.6,7.7-2.4,12-2.4c4.3,0,8.3,0.8,12,2.4
		c3.7,1.6,7.2,3.7,10.4,6.4c2.7,2.7,4.8,5.9,6.4,9.6c1.6,3.7,2.4,7.7,2.4,12c0,4.3-0.8,8.3-2.4,12c-1.6,3.7-3.7,6.9-6.4,9.6
		c-3.2,2.7-6.7,4.8-10.4,6.4C341.3,116.7,337.3,117.5,333,117.5L333,117.5z M384.1,385c8.5,0,16.4-1.6,23.6-4.8
		c7.2-3.2,13.5-7.4,18.8-12.8c5.3-5.3,9.6-11.6,12.8-18.8c3.2-7.2,4.8-14.8,4.8-22.8c0-8.5-1.6-16.4-4.8-23.6
		c-3.2-7.2-7.5-13.4-12.8-18.7s-11.6-9.6-18.8-12.8c-7.2-3.2-15-4.8-23.6-4.8c-8,0-15.6,1.6-22.8,4.8c-7.2,3.2-13.4,7.5-18.8,12.8
		c-5.3,5.3-9.6,11.6-12.8,18.8s-4.8,15-4.8,23.6c0,8,1.6,15.6,4.8,22.8c3.2,7.2,7.4,13.5,12.8,18.8s11.6,9.6,18.8,12.8
		C368.6,383.4,376.2,385,384.1,385L384.1,385z"/>
</g>
</svg>
