<?xml version="1.0" encoding="utf-8"?>
<!-- Generator: Adobe Illustrator 18.0.0, SVG Export Plug-In . SVG Version: 6.00 Build 0)  -->
<!DOCTYPE svg PUBLIC "-//W3C//DTD SVG 1.1//EN" "http://www.w3.org/Graphics/SVG/1.1/DTD/svg11.dtd">
<svg version="1.1" id="图形" xmlns="http://www.w3.org/2000/svg" xmlns:xlink="http://www.w3.org/1999/xlink" x="0px" y="0px"
	 viewBox="15.167 -16.333 1000.636 1000.678" enable-background="new 15.167 -16.333 1000.636 1000.678" xml:space="preserve">
<path d="M837.157,278.335h-10.321c-6.363,0-12.453,1.159-18.08,3.264v-9.131c0-37.94-30.867-68.806-68.806-68.806h-1.72
	c-37.939,0-68.806,30.866-68.806,68.806V448.63H361.511V272.467c0-37.94-30.866-68.806-68.806-68.806h-1.72
	c-37.94,0-68.806,30.866-68.806,68.806v9.116c-5.617-2.097-11.694-3.249-18.042-3.249l-10.321,0
	c-28.501,0-51.605,23.104-51.605,51.605v338.873c0,28.501,23.104,51.605,51.605,51.605h10.321c6.348,0,12.425-1.153,18.042-3.249
	v12.865c0,37.939,30.866,68.806,68.806,68.806h1.72c37.94,0,68.806-30.867,68.806-68.806V555.281h307.91v174.752
	c0,37.939,30.867,68.806,68.806,68.806h1.72c37.939,0,68.806-30.867,68.806-68.806v-12.879c5.627,2.106,11.718,3.264,18.08,3.264
	h10.321c28.501,0,51.605-23.104,51.605-51.605V329.939C888.761,301.438,865.657,278.335,837.157,278.335z M221.337,668.812
	c0,9.5-7.702,17.202-17.202,17.202l-10.321,0c-9.5,0-17.202-7.702-17.202-17.202V329.939c0-9.5,7.702-17.202,17.202-17.202h10.321
	c9.5,0,17.202,7.702,17.202,17.202V668.812z M292.705,764.436h-1.72c-18.97,0-34.404-15.433-34.404-34.404V272.467
	c0-18.97,15.433-34.404,34.404-34.404h1.72c18.969,0,34.404,15.433,34.404,34.404v457.565
	C327.108,749.003,311.675,764.436,292.705,764.436z M668.581,520.878h-307.07v-37.844H668.58L668.581,520.878L668.581,520.878z
	 M774.351,730.032c0,18.97-15.433,34.404-34.404,34.404h-1.72c-18.97,0-34.404-15.433-34.404-34.404V272.467
	c0-18.97,15.433-34.404,34.404-34.404h1.72c18.97,0,34.404,15.433,34.404,34.404V730.032z M854.358,668.812
	c0,9.5-7.702,17.202-17.202,17.202l-10.321,0c-9.5,0-17.202-7.702-17.202-17.202V329.939c0-9.5,7.702-17.202,17.202-17.202h10.321
	c9.5,0,17.202,7.702,17.202,17.202L854.358,668.812z"/>
</svg>
