<?xml version="1.0" encoding="utf-8"?>
<!-- Generator: Adobe Illustrator 18.0.0, SVG Export Plug-In . SVG Version: 6.00 Build 0)  -->
<!DOCTYPE svg PUBLIC "-//W3C//DTD SVG 1.1//EN" "http://www.w3.org/Graphics/SVG/1.1/DTD/svg11.dtd">
<svg version="1.1" id="图形" xmlns="http://www.w3.org/2000/svg" xmlns:xlink="http://www.w3.org/1999/xlink" x="0px" y="0px"
	 viewBox="0 0 500 500" style="enable-background:new 0 0 500 500;" xml:space="preserve">
<style type="text/css">
	.st0{fill:#7A7A7A;}
</style>
<path class="st0" d="M425.9,130.9h-5.2c-3.2,0-6.2,0.6-9,1.6V128c0-19-15.4-34.4-34.4-34.4h-0.9c-19,0-34.4,15.4-34.4,34.4v88H188.2
	v-88c0-19-15.4-34.4-34.4-34.4H153c-19,0-34.4,15.4-34.4,34.4v4.6c-2.8-1-5.8-1.6-9-1.6h-5.2c-14.2,0-25.8,11.5-25.8,25.8V326
	c0,14.2,11.5,25.8,25.8,25.8h5.2c3.2,0,6.2-0.6,9-1.6v6.4c0,19,15.4,34.4,34.4,34.4h0.9c19,0,34.4-15.4,34.4-34.4v-87.3h153.9v87.3
	c0,19,15.4,34.4,34.4,34.4h0.9c19,0,34.4-15.4,34.4-34.4v-6.4c2.8,1.1,5.9,1.6,9,1.6h5.2c14.2,0,25.8-11.5,25.8-25.8V156.7
	C451.7,142.4,440.1,130.9,425.9,130.9z M118.2,326c0,4.7-3.8,8.6-8.6,8.6h-5.2c-4.7,0-8.6-3.8-8.6-8.6V156.7c0-4.7,3.8-8.6,8.6-8.6
	h5.2c4.7,0,8.6,3.8,8.6,8.6V326z M153.9,373.8H153c-9.5,0-17.2-7.7-17.2-17.2V128c0-9.5,7.7-17.2,17.2-17.2h0.9
	c9.5,0,17.2,7.7,17.2,17.2v228.6C171,366.1,163.3,373.8,153.9,373.8z M341.7,252.1H188.2v-18.9h153.4L341.7,252.1L341.7,252.1z
	 M394.5,356.6c0,9.5-7.7,17.2-17.2,17.2h-0.9c-9.5,0-17.2-7.7-17.2-17.2V128c0-9.5,7.7-17.2,17.2-17.2h0.9c9.5,0,17.2,7.7,17.2,17.2
	V356.6z M434.5,326c0,4.7-3.8,8.6-8.6,8.6h-5.2c-4.7,0-8.6-3.8-8.6-8.6V156.7c0-4.7,3.8-8.6,8.6-8.6h5.2c4.7,0,8.6,3.8,8.6,8.6V326z
	"/>
</svg>
