<?xml version="1.0" encoding="utf-8"?>
<!-- Generator: Adobe Illustrator 18.0.0, SVG Export Plug-In . SVG Version: 6.00 Build 0)  -->
<!DOCTYPE svg PUBLIC "-//W3C//DTD SVG 1.1//EN" "http://www.w3.org/Graphics/SVG/1.1/DTD/svg11.dtd">
<svg version="1.1" id="图形" xmlns="http://www.w3.org/2000/svg" xmlns:xlink="http://www.w3.org/1999/xlink" x="0px" y="0px"
	 viewBox="15.167 -16.333 1000.636 1000.678" enable-background="new 15.167 -16.333 1000.636 1000.678" xml:space="preserve">
<path fill="#E5E5E5" d="M964.07,740.405c-9.448-48.69-34.613-141.314-77.008-237.103c-0.398-1.051-0.854-2.068-1.361-3.053
	c-13.838-31.018-29.476-62.323-46.978-92.532c-40.308-69.577-85.087-124.258-133.095-162.526
	c-59.427-47.369-123.86-69.804-191.515-66.701c-66.905,3.076-132.447,35.941-194.808,97.681
	c-47.627,47.153-93.775,111.498-137.159,191.25C109.199,601.51,69.302,731.945,67.639,737.431
	c-4.785,15.79,4.137,32.471,19.928,37.256c2.888,0.875,5.806,1.292,8.675,1.292c12.819,0,24.671-8.317,28.581-21.22
	c0.204-0.676,11.178-36.552,31.705-89.122l242.636,82.042c-0.127,9.356-0.192,18.785-0.192,28.292
	c0,16.499,13.376,29.876,29.876,29.876s29.876-13.376,29.876-29.876c0-8.275,0.057-16.414,0.154-24.449l429.147-70.478
	c8.129,28.4,13.898,52.753,17.389,70.742c3.143,16.199,18.815,26.775,35.02,23.638C956.629,772.281,967.212,756.602,964.07,740.405z
	 M787.023,437.668c10.006,17.271,19.362,34.919,28.093,52.654l-33.573,5.046c-28.83-48.272-55.4-82.624-81.039-104.8
	c-28.926-25.021-57.423-34.716-84.695-28.817c-38.068,8.234-67.063,45.686-86.18,111.316c-6.818,23.402-11.16,46.105-13.733,62.234
	l-41.361,6.218c13.175-89.003,32.535-152.663,49.951-195.874c22.507-55.837,45.139-86.589,56.835-100.14
	C656.126,266.422,725.092,330.764,787.023,437.668z M717.253,505.032l-138.99,20.893c2.189-11.041,5.053-23.517,8.733-36.148
	c13.905-47.734,30.526-67.265,41.446-69.626c7.692-1.673,19.411,3.877,32.973,15.606
	C678.335,450.395,697.055,473.634,717.253,505.032z M512.232,238.47c-12.324,18.975-26.345,44.415-40.251,77.734
	c-21.358,51.178-38.329,111.219-50.441,178.454c-2.808,15.591-5.358,31.589-7.646,47.972l-174.889-54.614
	C300.732,376.628,396.708,247.055,512.232,238.47z M179.297,610.262c9.4-21.738,19.95-44.818,31.596-68.428l195.923,61.182
	c-2.553,26.559-4.485,53.987-5.792,82.217L179.297,610.262z M460.603,690.688c1.411-31.213,3.568-60.382,6.315-87.6l79.599-11.966
	c0.192-0.026,0.383-0.057,0.575-0.087l293.759-44.159c11.077,26.346,20.764,52.196,29.092,76.587L460.603,690.688z"/>
</svg>
