<?xml version="1.0" encoding="utf-8"?>
<!-- Generator: Adobe Illustrator 18.0.0, SVG Export Plug-In . SVG Version: 6.00 Build 0)  -->
<!DOCTYPE svg PUBLIC "-//W3C//DTD SVG 1.1//EN" "http://www.w3.org/Graphics/SVG/1.1/DTD/svg11.dtd">
<svg version="1.1" id="图形" xmlns="http://www.w3.org/2000/svg" xmlns:xlink="http://www.w3.org/1999/xlink" x="0px" y="0px"
	 viewBox="15.167 -16.333 1000.636 1000.678" enable-background="new 15.167 -16.333 1000.636 1000.678" xml:space="preserve">
<path fill="#D6D6D6" d="M629.712,88.283c-18.567-3.367-36.518,8.255-41.035,26.556c-7.094,28.773-37.877,49.663-73.198,49.663
	c-35.31,0-66.093-20.889-73.187-49.663c-4.517-18.311-22.479-29.934-41.035-26.556C208.867,123.362,84.556,246.745,76.834,410.304
	c-0.453,9.742,3.089,19.065,9.823,26.113c6.734,7.06,16.059,10.867,25.812,10.867h130.209v337.999
	c0,52.402,42.302,95.001,94.704,95.001h125.345c19.704,0,35.95-15.939,35.95-35.643v-63.357h34v63.357
	c0,19.704,15.87,35.643,35.575,35.643h125.322c52.402,0,95.103-42.599,95.103-95.001V447.284h129.822
	c9.753,0,19.078-3.808,25.812-10.867c6.734-7.048,10.276-16.465,9.823-26.206C946.403,246.652,822.092,123.351,629.712,88.283z
	 M693.576,809.284h-89.898v-45.562c0-29.435-23.708-53.438-53.144-53.438h-70.098c-29.435,0-53.758,24.002-53.758,53.438v45.562
	h-89.295c-13.063,0-23.705-10.938-23.705-24v-179h404v178.999C717.678,798.346,706.639,809.284,693.576,809.284z M788.678,376.284
	v-9.268c0-19.704-15.796-35.671-35.5-35.671s-35.5,15.966-35.5,35.671v93.437c0,0.316,0,0.608,0,0.922v72.909h-404v-72.564
	c0-0.431,0-0.833,0-1.268v-93.437c0-19.704-15.796-35.671-35.5-35.671s-35.5,15.966-35.5,35.671v9.269h-90.114
	c20.332-104,104.573-180.705,233.413-211.893c24.593,43.3,73.686,71.442,129.502,71.442c55.828,0,104.921-28.147,129.514-71.446
	c128.828,31.19,213.07,107.898,233.402,211.898H788.678z"/>
</svg>
