<?xml version="1.0" encoding="utf-8"?>
<!-- Generator: Adobe Illustrator 18.0.0, SVG Export Plug-In . SVG Version: 6.00 Build 0)  -->
<!DOCTYPE svg PUBLIC "-//W3C//DTD SVG 1.1//EN" "http://www.w3.org/Graphics/SVG/1.1/DTD/svg11.dtd">
<svg version="1.1" id="图形" xmlns="http://www.w3.org/2000/svg" xmlns:xlink="http://www.w3.org/1999/xlink" x="0px" y="0px"
	 viewBox="0 0 500 500" style="enable-background:new 0 0 500 500;" xml:space="preserve">
<style type="text/css">
	.st0{fill:#D6D6D6;}
</style>
<path class="st0" d="M322.2,35.9c-9.3-1.7-18.2,4.1-20.5,13.3C298.2,63.6,282.8,74,265.2,74c-17.6,0-33-10.4-36.6-24.8
	c-2.3-9.1-11.2-15-20.5-13.3C112,53.5,49.8,115.1,46,196.8c-0.2,4.9,1.5,9.5,4.9,13c3.4,3.5,8,5.4,12.9,5.4h65.1v168.9
	c0,26.2,21.1,47.5,47.3,47.5h62.6c9.8,0,18-8,18-17.8v-31.7h17v31.7c0,9.8,7.9,17.8,17.8,17.8h62.6c26.2,0,47.5-21.3,47.5-47.5
	V215.3h64.9c4.9,0,9.5-1.9,12.9-5.4c3.4-3.5,5.1-8.2,4.9-13.1C480.5,115.1,418.4,53.5,322.2,35.9z M354.2,396.2h-44.9v-22.8
	c0-14.7-11.8-26.7-26.6-26.7h-35c-14.7,0-26.9,12-26.9,26.7v22.8h-44.6c-6.5,0-11.8-5.5-11.8-12v-89.4h201.9v89.4
	C366.2,390.7,360.7,396.2,354.2,396.2z M401.7,179.8v-4.6c0-9.8-7.9-17.8-17.7-17.8c-9.8,0-17.7,8-17.7,17.8v46.7c0,0.2,0,0.3,0,0.5
	v36.4H164.3v-36.3c0-0.2,0-0.4,0-0.6v-46.7c0-9.8-7.9-17.8-17.7-17.8c-9.8,0-17.7,8-17.7,17.8v4.6h-45C94,127.9,136.1,89.6,200.5,74
	c12.3,21.6,36.8,35.7,64.7,35.7c27.9,0,52.4-14.1,64.7-35.7c64.4,15.6,106.5,53.9,116.6,105.9L401.7,179.8L401.7,179.8z"/>
</svg>
