<?xml version="1.0" encoding="utf-8"?>
<!-- Generator: Adobe Illustrator 18.0.0, SVG Export Plug-In . SVG Version: 6.00 Build 0)  -->
<!DOCTYPE svg PUBLIC "-//W3C//DTD SVG 1.1//EN" "http://www.w3.org/Graphics/SVG/1.1/DTD/svg11.dtd">
<svg version="1.1" id="图形" xmlns="http://www.w3.org/2000/svg" xmlns:xlink="http://www.w3.org/1999/xlink" x="0px" y="0px"
	 viewBox="0 0 500 500" style="enable-background:new 0 0 500 500;" xml:space="preserve">
<style type="text/css">
	.st0{fill:#636363;}
</style>
<path class="st0" d="M389,127.9c-35.2-35.2-82-54.6-131.8-54.6c-49.8,0-96.6,19.4-131.8,54.6c-35.2,35.2-54.6,82-54.6,131.8
	c0,49.8,19.4,96.6,54.6,131.8c35.2,35.2,82,54.6,131.8,54.6c49.8,0,96.6-19.4,131.8-54.6c35.2-35.2,54.6-82,54.6-131.8
	C443.6,209.9,424.2,163.1,389,127.9z M419.3,259.7c0-1.1-0.1-2.1-0.2-3.2c-39.7,0.9-77,15.3-106.8,41.2l-38.4-38.4l105.6-105.6
	C405.1,183,419.3,220.2,419.3,259.7L419.3,259.7z M312.4,332l50.4,50.4c-24,20.7-53.1,33.7-84.3,37.8
	C279.6,388.7,290.8,357.5,312.4,332L312.4,332z M256.7,242l-37.6-37.5c26.5-30.6,40.1-68.6,41-106.7c37.9,0.7,73.6,14.3,102.2,38.7
	L256.7,242L256.7,242z M244.9,98.2c-3,0.3-6,0.6-9,1C238.9,98.7,241.9,98.4,244.9,98.2z M235.9,99.1c-1.1,31.5-12.4,62.7-33.9,88.1
	l-50.4-50.4c-3.1,2.6-6.1,5.3-9,8.2C168.1,119.5,200.7,103.7,235.9,99.1L235.9,99.1z M134.4,154.1l50.4,50.4
	c-24.8,21-55.5,32.8-88.2,34C100.7,207.2,113.7,178.1,134.4,154.1L134.4,154.1z M95.1,259.7c0,1.1,0.1,2.1,0.2,3.2
	c39.7-0.9,77-15.3,106.8-41.2l37.5,37.5L133.9,364.8c2.8,3.2,5.6,6.5,8.6,9.5C111.9,343.7,95.1,303,95.1,259.7z M96.6,238.5
	c-0.4,2.9-0.7,5.9-0.9,8.9C95.9,244.4,96.2,241.4,96.6,238.5z M151.1,382l105.6-105.6l38.5,38.5c-26.5,30.6-40.1,68.6-40.9,106.8
	c1,0,2,0.2,2.9,0.2C217.7,421.8,180.5,407.6,151.1,382L151.1,382z M278.4,420.2c-3,0.4-6,0.7-9,0.9
	C272.5,420.9,275.5,420.6,278.4,420.2z M380,365.3l-50.4-50.4c24.8-21,55.5-32.8,88.2-34C413.6,312.1,400.7,341.2,380,365.3
	L380,365.3z M418.7,271.9c-0.2,3-0.6,5.9-0.9,8.9C418.1,277.9,418.4,274.9,418.7,271.9z"/>
</svg>
