<?xml version="1.0" encoding="utf-8"?>
<!-- Generator: Adobe Illustrator 18.0.0, SVG Export Plug-In . SVG Version: 6.00 Build 0)  -->
<!DOCTYPE svg PUBLIC "-//W3C//DTD SVG 1.1//EN" "http://www.w3.org/Graphics/SVG/1.1/DTD/svg11.dtd">
<svg version="1.1" id="图形" xmlns="http://www.w3.org/2000/svg" xmlns:xlink="http://www.w3.org/1999/xlink" x="0px" y="0px"
	 viewBox="15.167 -16.333 1000.636 1000.678" enable-background="new 15.167 -16.333 1000.636 1000.678" xml:space="preserve">
<path d="M779.257,220.215c-70.439-70.477-164.12-109.256-263.763-109.256c-99.66,0-193.34,38.777-263.78,109.256
	c-70.459,70.459-109.274,164.12-109.274,263.763c0,99.661,38.816,193.341,109.274,263.8c70.44,70.459,164.12,109.274,263.78,109.274
	c99.644,0,193.325-38.816,263.763-109.274c70.477-70.458,109.274-164.139,109.274-263.8
	C888.531,384.335,849.733,290.675,779.257,220.215z M839.874,483.978c0-2.12-0.264-4.202-0.301-6.321
	c-79.373,1.723-154.089,30.659-213.667,82.363l-76.949-76.949l211.396-211.377c51.269,58.97,79.524,133.384,79.524,212.284
	L839.874,483.978z M625.944,628.85l100.872,100.873c-48.014,41.428-106.228,67.392-168.74,75.569
	C560.348,742.253,582.869,679.819,625.944,628.85L625.944,628.85z M514.567,448.663l-75.152-75.134
	C492.5,312.249,519.62,236.301,521.38,159.9c75.834,1.343,147.315,28.558,204.469,77.48L514.567,448.663L514.567,448.663z
	 M490.873,160.81c-6.018,0.529-11.999,1.117-17.96,1.912C478.875,161.926,484.836,161.263,490.873,160.81z M472.894,162.72
	c-2.271,63.021-24.792,125.436-67.866,176.403L304.155,238.251c-6.132,5.28-12.264,10.579-18.036,16.37
	C337.2,203.524,402.415,171.917,472.894,162.72L472.894,162.72z M269.75,272.658l100.891,100.891
	c-49.585,42.014-111.111,65.727-176.461,67.999C202.318,378.999,228.285,320.728,269.75,272.658L269.75,272.658z M191.096,483.978
	c0,2.138,0.265,4.22,0.302,6.339c79.374-1.723,154.089-30.659,213.648-82.363l75.115,75.115L268.861,694.351
	c5.545,6.492,11.147,12.925,17.26,19.021C224.84,652.11,191.096,570.637,191.096,483.978z M194.18,441.566
	c-0.776,5.904-1.363,11.866-1.892,17.827C192.742,453.414,193.405,447.471,194.18,441.566z M303.172,728.851l211.396-211.377
	l76.971,76.97c-53.086,61.299-80.208,137.246-81.948,213.648c1.969,0.036,3.919,0.301,5.904,0.301
	C436.576,808.394,362.143,780.119,303.172,728.851L303.172,728.851z M558.076,805.291c-5.98,0.776-11.959,1.438-17.998,1.894
	C546.097,806.674,552.096,806.069,558.076,805.291z M761.221,695.336L660.312,594.425c49.586-42.013,111.128-65.726,176.477-67.998
	C828.651,588.995,802.685,647.266,761.221,695.336L761.221,695.336z M838.683,508.581c-0.454,5.98-1.117,11.905-1.874,17.809
	C837.567,520.486,838.154,514.543,838.683,508.581z"/>
</svg>
