<?xml version="1.0" encoding="utf-8"?>
<!-- Generator: Adobe Illustrator 18.0.0, SVG Export Plug-In . SVG Version: 6.00 Build 0)  -->
<!DOCTYPE svg PUBLIC "-//W3C//DTD SVG 1.1//EN" "http://www.w3.org/Graphics/SVG/1.1/DTD/svg11.dtd">
<svg version="1.1" id="图形" xmlns="http://www.w3.org/2000/svg" xmlns:xlink="http://www.w3.org/1999/xlink" x="0px" y="0px"
	 viewBox="0 0 500 500" style="enable-background:new 0 0 500 500;" xml:space="preserve">
<style type="text/css">
	.st0{fill:#CCCCCC;}
</style>
<path class="st0" d="M413.2,301.3c28.3,0,51.3-23,51.3-51.3c0-28.3-23-51.3-51.3-51.3h-8.9c-1.8-5.1-3.9-10.1-6.2-15l6.3-6.3
	c9.7-9.7,15-22.6,15-36.3c0-13.7-5.3-26.6-15-36.3c-9.7-9.7-22.6-15-36.3-15c-13.7,0-26.6,5.3-36.3,15l-6.3,6.3
	c-4.9-2.3-9.9-4.4-15-6.2V96c0-28.3-23-51.3-51.3-51.3c-28.3,0-51.3,23-51.3,51.3v8.9c-5.1,1.8-10.1,3.9-15,6.2l-6.3-6.3
	c-9.7-9.7-22.6-15-36.3-15c-13.7,0-26.6,5.3-36.3,15c-9.7,9.7-15,22.6-15,36.3c0,13.7,5.3,26.6,15,36.3l6.3,6.3
	c-2.3,4.9-4.4,9.9-6.2,15h-8.9c-28.3,0-51.3,23-51.3,51.3c0,28.3,23,51.3,51.3,51.3h8.9c1.8,5.1,3.9,10.1,6.2,15l-6.3,6.3
	c-9.7,9.7-15,22.6-15,36.3c0,13.7,5.3,26.6,15,36.3c9.7,9.7,22.6,15,36.3,15c13.7,0,26.6-5.3,36.3-15l6.3-6.3
	c4.9,2.3,9.9,4.4,15,6.2v8.9c0,28.3,23,51.3,51.3,51.3c28.3,0,51.3-23,51.3-51.3v-8.9c5.1-1.8,10.1-3.9,15-6.2l6.3,6.3
	c9.7,9.7,22.6,15,36.3,15c13.7,0,26.6-5.3,36.3-15c9.7-9.7,15-22.6,15-36.3c0-13.7-5.3-26.6-15-36.3l-6.3-6.3
	c2.3-4.9,4.4-9.9,6.2-15L413.2,301.3L413.2,301.3L413.2,301.3z M386.2,340.8c4.8,4.8,7.5,11.3,7.5,18.1s-2.6,13.3-7.5,18.1
	c-9.7,9.6-26.6,9.6-36.3,0l-19.8-19.8l-8.5,4.7c-8.5,4.8-17.8,8.6-27.5,11.4l-9.3,2.6v28c0,14.2-11.5,25.7-25.7,25.7
	c-14.2,0-25.7-11.5-25.7-25.7v-28l-9.3-2.6c-9.7-2.8-19-6.6-27.5-11.4l-8.5-4.7l-19.8,19.8c-9.7,9.6-26.6,9.6-36.3,0
	c-4.8-4.8-7.5-11.3-7.5-18.1s2.6-13.3,7.5-18.1l19.8-19.8l-4.8-8.5c-4.8-8.5-8.6-17.8-11.3-27.5l-2.6-9.3h-28
	c-14.2,0-25.7-11.5-25.7-25.7c0-14.2,11.5-25.7,25.7-25.7h28l2.6-9.3c2.8-9.7,6.6-19,11.3-27.5l4.8-8.5l-19.8-19.8
	c-4.8-4.8-7.5-11.3-7.5-18.1c0-6.9,2.6-13.3,7.5-18.1c9.7-9.6,26.6-9.6,36.3,0l19.8,19.8l8.5-4.7c8.5-4.8,17.8-8.6,27.5-11.4
	l9.3-2.6V96c0-14.2,11.5-25.7,25.7-25.7c14.1,0,25.7,11.5,25.7,25.7v28l9.3,2.6c9.7,2.8,19,6.6,27.5,11.4l8.5,4.7l19.8-19.8
	c9.7-9.6,26.6-9.6,36.3,0c4.8,4.8,7.5,11.3,7.5,18.1c0,6.9-2.6,13.3-7.5,18.1L366.5,179l4.7,8.5c4.8,8.6,8.6,17.8,11.4,27.5l2.6,9.3
	h28c14.2,0,25.7,11.5,25.7,25.7c0,14.2-11.5,25.7-25.7,25.7h-28l-2.6,9.3c-2.7,9.7-6.6,19-11.4,27.5l-4.7,8.5L386.2,340.8z
	 M259.2,173c-42.5,0-77,34.5-77,77c0,42.5,34.5,77,77,77c42.5,0,77-34.5,77-77C336.2,207.5,301.6,173,259.2,173z M259.2,301.3
	c-28.3,0-51.3-23-51.3-51.3c0-28.3,23-51.3,51.3-51.3c28.3,0,51.3,23,51.3,51.3C310.5,278.3,287.5,301.3,259.2,301.3z"/>
</svg>
