<?xml version="1.0" encoding="utf-8"?>
<!-- Generator: Adobe Illustrator 18.0.0, SVG Export Plug-In . SVG Version: 6.00 Build 0)  -->
<!DOCTYPE svg PUBLIC "-//W3C//DTD SVG 1.1//EN" "http://www.w3.org/Graphics/SVG/1.1/DTD/svg11.dtd">
<svg version="1.1" id="图形" xmlns="http://www.w3.org/2000/svg" xmlns:xlink="http://www.w3.org/1999/xlink" x="0px" y="0px"
	 viewBox="0 0 500 500" style="enable-background:new 0 0 500 500;" xml:space="preserve">
<style type="text/css">
	.st0{fill:#272536;}
</style>
<g>
	<path class="st0" d="M418,367.8H111c-9.1,0-16.9-6.5-18.4-15.5L48.1,99.8c-1.4-7.7,2.3-15.5,9.1-19.5c6.9-3.9,15.4-3.1,21.4,2
		l93.7,79.8l76.5-118.4c6.9-10.7,24.5-10.7,31.4,0L356.7,162l93.7-79.8c6-5.1,14.6-5.9,21.4-2c6.9,3.9,10.5,11.7,9.1,19.5
		l-44.4,252.7C434.9,361.3,427.1,367.8,418,367.8L418,367.8 M126.7,330.4h275.7l32.8-185.9l-70.4,59.9c-4.1,3.5-9.5,5-14.8,4.3
		c-5.3-0.8-10.1-3.8-13-8.3l-72.4-112l-72.4,112c-3,4.6-7.7,7.6-13,8.3c-5.4,0.8-10.8-0.8-14.8-4.3l-70.4-59.9L126.7,330.4
		L126.7,330.4 M418,428.2H111c-10.3,0-18.7-8.4-18.7-18.7s8.4-18.7,18.7-18.7H418c10.3,0,18.7,8.4,18.7,18.7S428.4,428.2,418,428.2
		L418,428.2"/>
</g>
</svg>
