<?xml version="1.0" encoding="utf-8"?>
<!-- Generator: Adobe Illustrator 18.0.0, SVG Export Plug-In . SVG Version: 6.00 Build 0)  -->
<!DOCTYPE svg PUBLIC "-//W3C//DTD SVG 1.1//EN" "http://www.w3.org/Graphics/SVG/1.1/DTD/svg11.dtd">
<svg version="1.1" id="图形" xmlns="http://www.w3.org/2000/svg" xmlns:xlink="http://www.w3.org/1999/xlink" x="0px" y="0px"
	 viewBox="15.167 -16.333 1000.636 1000.678" enable-background="new 15.167 -16.333 1000.636 1000.678" xml:space="preserve">
<g>
	<path fill-rule="evenodd" clip-rule="evenodd" fill="#272536" d="M821.413,752.432H206.875c-18.24,0-33.724-13.026-36.908-30.973
		L80.96,216.051c-2.755-15.492,4.626-31.121,18.234-38.938c13.749-7.813,30.828-6.221,42.838,3.908l187.573,159.645l153.133-236.933
		c13.751-21.416,49.064-21.416,62.813,0l153.125,236.787l187.43-159.644c12.016-10.275,29.241-11.718,42.844-3.908
		c13.75,7.818,20.982,23.447,18.232,38.938L858.32,721.599C855.137,739.407,839.646,752.432,821.413,752.432L821.413,752.432
		 M238.286,677.601h551.718l65.569-372.108L714.746,425.331c-8.253,6.946-18.964,9.986-29.677,8.544
		c-10.704-1.597-20.117-7.673-26.05-16.644L514.141,193.038L369.267,417.231c-5.94,9.116-15.346,15.195-26.057,16.644
		c-10.85,1.589-21.561-1.597-29.67-8.544L172.717,305.493L238.286,677.601L238.286,677.601 M238.286,677.601 M821.413,873.429
		H206.875c-20.699,0-37.488-16.787-37.488-37.486s16.789-37.486,37.488-37.486h614.539c20.698,0,37.488,16.787,37.488,37.486
		S842.11,873.429,821.413,873.429L821.413,873.429 M821.413,873.429 M67.894,105.234 M7.899,105.234 M515.913,9.762 M455.92,9.762
		 M960.735,101.816 M900.741,101.816"/>
</g>
</svg>
