<?xml version="1.0" encoding="utf-8"?>
<!-- Generator: Adobe Illustrator 18.0.0, SVG Export Plug-In . SVG Version: 6.00 Build 0)  -->
<!DOCTYPE svg PUBLIC "-//W3C//DTD SVG 1.1//EN" "http://www.w3.org/Graphics/SVG/1.1/DTD/svg11.dtd">
<svg version="1.1" id="图形" xmlns="http://www.w3.org/2000/svg" xmlns:xlink="http://www.w3.org/1999/xlink" x="0px" y="0px"
	 viewBox="0 0 500 500" style="enable-background:new 0 0 500 500;" xml:space="preserve">
<style type="text/css">
	.st0{fill:#D8D8D8;}
</style>
<path class="st0" d="M446.8,90.2L415.3,59c-16.1-16.1-27.6-24.5-41.4-24.5h-0.4c-15.2,0-27.8,11.1-41.5,24.9l-54.8,54.4l-4.7-4.7
	c-2.5-2.5-5.5-3.9-9.4-3.8c-3.5,0-6.9,1.5-9.3,4L74.4,295.2c-13.8,13.8-26.4,29.2-24.8,47.6C51,358,61.2,371,78.3,388.1l50.8,50.8
	c17.2,17.2,29.4,26.6,44,26.6c16.1,0,29.7-12.2,44.6-27.2l179.5-186.1c4.9-5.1,4.9-13.3-0.2-18.3l-7.5-7.5l54.8-54.8
	C477,139.2,481.2,124.7,446.8,90.2z M199.2,420c-9.6,9.6-20.1,19.4-26,19.4c-5.9,0-16.2-9.6-25.6-18.9l-50.8-50.8
	c-10.6-10.6-20.5-21.4-21.1-29.1c-0.5-6.1,4.8-14.3,17.4-26.9l170.3-176.5l106.3,106.3L199.2,420z M371.2,207.9l-75.5-75.5
	l54.8-54.5c5.3-5.3,17.6-17.2,23.3-17.2h0c5.1,0,15,8.8,23,16.8l31.5,31c4.1,4.1,16.7,16.7,16.4,21.5c-0.3,4.9-11.7,16.3-18.5,23.1
	L371.2,207.9z M383.4,81.4c-2.6-2.6-6.7-2.6-9.2,0l-48,48c-2.6,2.6-2.6,6.7,0,9.2c1.3,1.3,2.9,1.9,4.6,1.9c1.7,0,3.3-0.6,4.6-1.9
	l48-48C385.9,88.1,385.9,84,383.4,81.4z M401.8,99.9c-2.6-2.6-6.7-2.6-9.2,0l-50.8,50.8c-2.6,2.6-2.6,6.7,0,9.2
	c1.3,1.3,2.9,1.9,4.6,1.9c1.7,0,3.3-0.6,4.6-1.9l50.8-50.8C404.4,106.6,404.4,102.5,401.8,99.9z M411.1,118.4l-50.8,50.8
	c-2.6,2.6-2.6,6.7,0,9.2c1.3,1.3,2.9,1.9,4.6,1.9c1.7,0,3.3-0.6,4.6-1.9l50.8-50.8c2.6-2.6,2.6-6.7,0-9.2
	C417.8,115.9,413.6,115.9,411.1,118.4z"/>
</svg>
