<?xml version="1.0" encoding="utf-8"?>
<!-- Generator: Adobe Illustrator 18.0.0, SVG Export Plug-In . SVG Version: 6.00 Build 0)  -->
<!DOCTYPE svg PUBLIC "-//W3C//DTD SVG 1.1//EN" "http://www.w3.org/Graphics/SVG/1.1/DTD/svg11.dtd">
<svg version="1.1" id="图形" xmlns="http://www.w3.org/2000/svg" xmlns:xlink="http://www.w3.org/1999/xlink" x="0px" y="0px"
	 viewBox="0 0 500 500" style="enable-background:new 0 0 500 500;" xml:space="preserve">
<style type="text/css">
	.st0{fill:#DDDDDD;}
</style>
<path class="st0" d="M425.8,119.4h-50.2c-2.7-24.4-13.6-46.1-32.5-63.7c-20.3-20.3-48.8-31.2-78.6-31.2c-56.9,0-104.4,42-111.2,94.9
	h-50.2c-31.2,0-55.6,23-55.6,52.9v207.4c0,28.5,24.4,51.5,55.6,51.5h324c29.8,0,55.6-23,55.6-52.9V172.2
	C481.4,142.4,457,119.4,425.8,119.4L425.8,119.4z M264.5,48.9c43.4,0,78.6,29.8,84.1,69.1H180.4C185.9,80.1,221.1,48.9,264.5,48.9
	L264.5,48.9z M425.8,406.8H103.2c-16.3,0-28.5-12.2-28.5-27.1v-94.9c13.6,10.8,31.2,17.6,50.2,17.6h282c19,0,36.6-6.8,50.2-17.6
	v94.9C455.6,393.2,442.1,406.8,425.8,406.8L425.8,406.8z M440.7,261.7c-9.5,9.5-21.7,13.6-35.2,13.6h-282
	c-13.6,0-25.8-5.4-35.2-13.6c-9.5-9.5-14.9-20.3-14.9-32.5v-56.9c0-14.9,13.6-27.1,28.5-27.1h324c16.3,0,28.5,12.2,28.5,27.1v56.9
	C455.6,241.4,450.2,253.6,440.7,261.7L440.7,261.7z"/>
<path class="st0" d="M265.2,184.5c-25.8,0-46.1,19-46.1,43.4s20.3,43.4,46.1,43.4s46.1-19,46.1-43.4
	C311.3,203.4,290.9,184.5,265.2,184.5L265.2,184.5z M265.2,246.8c-10.8,0-19-8.1-19-19s8.1-19,19-19s19,8.1,19,19
	C284.1,238.7,276,246.8,265.2,246.8L265.2,246.8z"/>
</svg>
