<?xml version="1.0" encoding="utf-8"?>
<!-- Generator: Adobe Illustrator 18.0.0, SVG Export Plug-In . SVG Version: 6.00 Build 0)  -->
<!DOCTYPE svg PUBLIC "-//W3C//DTD SVG 1.1//EN" "http://www.w3.org/Graphics/SVG/1.1/DTD/svg11.dtd">
<svg version="1.1" id="图形" xmlns="http://www.w3.org/2000/svg" xmlns:xlink="http://www.w3.org/1999/xlink" x="0px" y="0px"
	 viewBox="0 0 500 500" style="enable-background:new 0 0 500 500;" xml:space="preserve">
<style type="text/css">
	.st0{fill:#E2E2E2;}
</style>
<path class="st0" d="M425.1,67.6H74.9c-16.1,0-29.2,13.1-29.2,29.2v233.5c0,16.1,13.1,29.2,29.2,29.2h145.9v43.8h-73
	c-8.1,0-14.6,6.5-14.6,14.6v14.6h233.5v-14.6c0-8.1-6.5-14.6-14.6-14.6h-73v-43.8h145.9c16.1,0,29.2-13.1,29.2-29.2V96.8
	C454.3,80.6,441.3,67.6,425.1,67.6L425.1,67.6z M235.4,330.3c0-8.1,6.5-14.6,14.6-14.6c8.1,0,14.6,6.5,14.6,14.6
	c0,8.1-6.5,14.6-14.6,14.6C241.9,344.9,235.4,338.3,235.4,330.3z M74.9,301.1V96.8h350.3v204.3L74.9,301.1L74.9,301.1z"/>
</svg>
