<?xml version="1.0" encoding="utf-8"?>
<!-- Generator: Adobe Illustrator 18.0.0, SVG Export Plug-In . SVG Version: 6.00 Build 0)  -->
<!DOCTYPE svg PUBLIC "-//W3C//DTD SVG 1.1//EN" "http://www.w3.org/Graphics/SVG/1.1/DTD/svg11.dtd">
<svg version="1.1" id="图形" xmlns="http://www.w3.org/2000/svg" xmlns:xlink="http://www.w3.org/1999/xlink" x="0px" y="0px"
	 viewBox="15.167 -16.333 1000.636 1000.678" enable-background="new 15.167 -16.333 1000.636 1000.678" xml:space="preserve">
<path fill="#CCCCCC" d="M823.737,596.421c56.67,0,102.755-46.094,102.755-102.752c0-56.66-46.084-102.754-102.755-102.754h-17.812
	c-3.609-10.257-7.748-20.284-12.366-30.001l12.544-12.569c19.341-19.341,30.004-45.141,30.004-72.648
	c0-27.509-10.663-53.305-30.004-72.65c-19.343-19.353-45.153-30.012-72.648-30.012c-27.495,0-53.308,10.658-72.648,30.012
	l-12.546,12.556c-9.733-4.629-19.738-8.752-30.027-12.378v-17.809c0-56.66-46.079-102.754-102.749-102.754
	c-56.673,0-102.752,46.094-102.752,102.754v17.809c-10.286,3.626-20.296,7.751-30.027,12.366l-12.543-12.543
	c-19.345-19.353-45.157-30.012-72.653-30.012c-27.493,0-53.302,10.658-72.648,30.012c-19.339,19.345-30.001,45.141-30.001,72.65
	c0,27.506,10.663,53.308,30.001,72.648l12.546,12.543c-4.616,9.723-8.758,19.745-12.369,30.027H207.23
	c-56.672,0-102.752,46.094-102.752,102.755c0,56.658,46.079,102.752,102.752,102.752h17.809
	c3.611,10.286,7.752,20.306,12.369,30.027l-12.546,12.544c-19.339,19.341-30.001,45.141-30.001,72.648
	c0,27.509,10.663,53.305,30.001,72.65c19.345,19.353,45.153,30.012,72.648,30.012c27.496,0,53.308-10.658,72.653-30.012
	l12.543-12.544c9.73,4.616,19.741,8.739,30.027,12.367v17.809c0,56.658,46.079,102.752,102.752,102.752
	c56.67,0,102.749-46.094,102.749-102.752v-17.809c10.289-3.626,20.293-7.751,30.027-12.379l12.546,12.556
	c19.341,19.353,45.153,30.012,72.648,30.012c27.493,0,53.305-10.658,72.648-30.012c19.341-19.345,30.004-45.141,30.004-72.65
	c0-27.506-10.663-53.308-30.004-72.648l-12.544-12.569c4.618-9.718,8.758-19.745,12.366-30.001L823.737,596.421L823.737,596.421
	L823.737,596.421z M769.779,675.316c9.656,9.643,14.948,22.538,14.948,36.323s-5.291,26.678-14.948,36.323
	c-19.314,19.294-53.333,19.294-72.65,0l-39.557-39.572l-16.958,9.498c-17.111,9.571-35.622,17.207-55.064,22.728l-18.688,5.291
	v56.015c0,28.334-23.057,51.375-51.375,51.375c-28.32,0-51.375-23.042-51.375-51.375v-56.015l-18.688-5.291
	c-19.471-5.535-38.005-13.17-55.064-22.716l-16.959-9.497l-39.559,39.559c-19.314,19.294-53.332,19.294-72.65,0
	c-9.657-9.645-14.948-22.538-14.948-36.323s5.291-26.678,14.948-36.323l39.562-39.562l-9.507-16.959
	c-9.535-17.044-17.159-35.57-22.703-55.072l-5.291-18.678h-56.017c-28.32,0-51.378-23.045-51.378-51.375
	c0-28.334,23.057-51.378,51.378-51.378h56.017l5.291-18.678c5.544-19.5,13.167-38.028,22.703-55.061l9.507-16.967l-39.562-39.565
	c-9.657-9.643-14.948-22.539-14.948-36.323c0-13.786,5.291-26.679,14.948-36.323c19.317-19.294,53.336-19.294,72.65,0l39.559,39.559
	l16.959-9.498c17.06-9.546,35.593-17.18,55.064-22.716l18.688-5.291v-56.015c0-28.336,23.055-51.375,51.375-51.375
	c28.319,0,51.375,23.04,51.375,51.375v56.015l18.688,5.291c19.443,5.523,37.953,13.157,55.064,22.728l16.958,9.498l39.557-39.572
	c19.317-19.294,53.335-19.294,72.65,0c9.656,9.643,14.948,22.536,14.948,36.323c0,13.784-5.291,26.679-14.948,36.323l-39.534,39.565
	l9.456,16.957c9.585,17.144,17.231,35.67,22.728,55.072l5.291,18.678h56.014c28.323,0,51.375,23.045,51.375,51.378
	c0,28.331-23.052,51.375-51.375,51.375h-56.014l-5.291,18.678c-5.497,19.402-13.145,37.928-22.728,55.072l-9.456,16.959
	L769.779,675.316z M515.486,339.54c-84.993,0-154.13,69.138-154.13,154.13c0,84.989,69.136,154.127,154.13,154.127
	c84.989,0,154.127-69.138,154.127-154.127C669.613,408.678,600.474,339.54,515.486,339.54z M515.486,596.421
	c-56.673,0-102.752-46.094-102.752-102.752c0-56.66,46.079-102.754,102.752-102.754c56.67,0,102.749,46.094,102.749,102.755
	C618.234,550.327,572.155,596.421,515.486,596.421z"/>
</svg>
