<?xml version="1.0" encoding="utf-8"?>
<!-- Generator: Adobe Illustrator 18.0.0, SVG Export Plug-In . SVG Version: 6.00 Build 0)  -->
<!DOCTYPE svg PUBLIC "-//W3C//DTD SVG 1.1//EN" "http://www.w3.org/Graphics/SVG/1.1/DTD/svg11.dtd">
<svg version="1.1" id="图形" xmlns="http://www.w3.org/2000/svg" xmlns:xlink="http://www.w3.org/1999/xlink" x="0px" y="0px"
	 viewBox="15.167 -16.333 1000.636 1000.678" enable-background="new 15.167 -16.333 1000.636 1000.678" xml:space="preserve">
<path fill="#D3D3D3" d="M393.458,926.154h0.011c-33.079,0-63.422-7.747-90.208-23.051c-28.611-16.344-50.931-41.531-69.833-70.516
	c-2.521-4.537-2.773-5.04-5.316-9.695c-28.533-52.218,3.524-134.864,81.581-196.334c42.546-33.494,89.58-52.7,129.061-52.7
	c29.342,0,53.093,10.76,67.474,30.436c3.079,2.015,8.216,4.647,12.429,4.647c1.209,0,3.724,0,7.491-4.264
	c0.246-0.255,0.489-0.511,0.735-0.788c21.978-28.505,42.291-59.197,60.419-91.247c16.651-29.46,31.39-59.92,43.818-90.609
	c1.719-9.702,0.425-14.539-0.68-15.898c-0.795-0.976-3.162-1.614-3.183-1.614c-21.513-0.508-40.731-10.187-56.024-27.975
	c-28.782-33.493-41.019-92.373-32.72-157.514c12.713-99.866,67.485-175.173,127.406-175.173c0.191,0,1.506,0.021,1.707,0.021
	c2.845,0.064,5.624,0.339,8.353,0.764c36.783-1.634,70.617,6.028,100.025,22.817c136.118,77.77,138.983,322.202,6.537,556.465
	C680.319,804.703,523.962,926.154,393.458,926.154z M438.754,623.482c-28.135,0-64.898,15.726-98.359,42.067
	c-58.348,45.932-84.093,106.309-70.925,130.998c2.016,3.78,3.43,6.149,4.537,8.065c13.105,22.682,32.716,43.305,53.876,55.404
	c19.187,10.975,41.251,16.513,65.575,16.513c111.422,0,253.641-113.914,345.876-277.032
	c114.861-203.148,120.381-427.054,12.045-488.947c-21.735-12.394-47.375-17.872-75.402-16.196c-2.058,0.106-4.118-0.02-6.133-0.404
	c-1.125-0.232-2.272-0.423-3.44-0.467c-29.471,0-69.055,56.376-78.66,131.831c-6.358,49.88,1.931,96.553,21.119,118.883
	c8.998,10.464,16.63,10.633,19.133,10.698c2.155,0,25.396,0.722,41.018,20.015c11.918,14.711,15.39,34.64,10.316,59.197
	c-0.299,1.442-0.723,2.866-1.273,4.246c-13.437,33.43-29.439,66.647-47.568,98.719c-19.781,34.978-42.036,68.452-66.159,99.503
	c-1.071,1.381-2.271,2.633-3.567,3.737c-11.738,11.95-26.223,18.252-42.11,18.252c-25.194,0-44.742-16.3-46.888-18.169
	c-1.857-1.612-3.482-3.5-4.786-5.604C461.134,625.434,448.4,623.482,438.754,623.482z"/>
<path fill="#D3D3D3" d="M360.474,456.353c-11.855,0-22.383-8.469-24.6-20.545c-4.191-22.86,0.775-45.996,13.977-65.142
	c13.213-19.125,33.08-31.985,55.95-36.167c13.628-2.484,26.648,6.516,29.142,20.122c2.496,13.604-6.516,26.658-20.12,29.14
	c-9.71,1.784-18.149,7.238-23.751,15.367c-5.614,8.108-7.715,17.935-5.944,27.657c2.505,13.604-6.505,26.637-20.111,29.142
	C363.498,456.203,361.969,456.353,360.474,456.353z"/>
<path fill="#D3D3D3" d="M275.858,454.548c-11.855,0-22.381-8.447-24.59-20.524c-15.219-82.95,39.883-162.798,122.831-177.997
	c13.562-2.482,26.648,6.517,29.143,20.12c2.493,13.585-6.517,26.641-20.111,29.122c-55.78,10.231-92.839,63.932-82.609,119.71
	c2.494,13.606-6.517,26.659-20.122,29.143C278.883,454.4,277.356,454.548,275.858,454.548z"/>
<path fill="#D3D3D3" d="M178.933,481.886c-11.854,0-22.382-8.445-24.599-20.524c-12.651-69.003,2.323-138.794,42.174-196.525
	c39.84-57.733,99.781-96.491,168.784-109.141c13.573-2.483,26.638,6.516,29.142,20.121c2.494,13.605-6.516,26.638-20.121,29.143
	c-55.833,10.229-104.343,41.6-136.596,88.318c-32.241,46.737-44.361,103.219-34.131,159.062c2.494,13.585-6.504,26.638-20.11,29.144
	C181.947,481.76,180.43,481.886,178.933,481.886z"/>
</svg>
