<?xml version="1.0" encoding="utf-8"?>
<!-- Generator: Adobe Illustrator 18.0.0, SVG Export Plug-In . SVG Version: 6.00 Build 0)  -->
<!DOCTYPE svg PUBLIC "-//W3C//DTD SVG 1.1//EN" "http://www.w3.org/Graphics/SVG/1.1/DTD/svg11.dtd">
<svg version="1.1" id="图形" xmlns="http://www.w3.org/2000/svg" xmlns:xlink="http://www.w3.org/1999/xlink" x="0px" y="0px"
	 viewBox="0 0 500 500" style="enable-background:new 0 0 500 500;" xml:space="preserve">
<style type="text/css">
	.st0{fill:#D3D3D3;}
</style>
<path class="st0" d="M204.2,454.6L204.2,454.6c-16.5,0-31.7-3.9-45.1-11.5c-14.3-8.2-25.4-20.8-34.9-35.2c-1.3-2.3-1.4-2.5-2.7-4.8
	c-14.3-26.1,1.8-67.4,40.8-98.1c21.3-16.7,44.8-26.3,64.5-26.3c14.7,0,26.5,5.4,33.7,15.2c1.5,1,4.1,2.3,6.2,2.3
	c0.6,0,1.9,0,3.7-2.1c0.1-0.1,0.2-0.3,0.4-0.4c11-14.2,21.1-29.6,30.2-45.6c8.3-14.7,15.7-29.9,21.9-45.3c0.9-4.8,0.2-7.3-0.3-7.9
	c-0.4-0.5-1.6-0.8-1.6-0.8c-10.7-0.3-20.4-5.1-28-14c-14.4-16.7-20.5-46.2-16.3-78.7c6.4-49.9,33.7-87.5,63.7-87.5
	c0.1,0,0.8,0,0.9,0c1.4,0,2.8,0.2,4.2,0.4c18.4-0.8,35.3,3,50,11.4c68,38.9,69.4,161,3.3,278C347.5,393.9,269.4,454.6,204.2,454.6z
	 M226.8,303.4c-14.1,0-32.4,7.9-49.1,21c-29.2,23-42,53.1-35.4,65.5c1,1.9,1.7,3.1,2.3,4c6.5,11.3,16.3,21.6,26.9,27.7
	c9.6,5.5,20.6,8.3,32.8,8.3c55.7,0,126.7-56.9,172.8-138.4c57.4-101.5,60.1-213.4,6-244.3c-10.9-6.2-23.7-8.9-37.7-8.1
	c-1,0.1-2.1,0-3.1-0.2c-0.6-0.1-1.1-0.2-1.7-0.2c-14.7,0-34.5,28.2-39.3,65.9c-3.2,24.9,1,48.2,10.6,59.4c4.5,5.2,8.3,5.3,9.6,5.3
	c1.1,0,12.7,0.4,20.5,10c6,7.4,7.7,17.3,5.2,29.6c-0.1,0.7-0.4,1.4-0.6,2.1c-6.7,16.7-14.7,33.3-23.8,49.3
	c-9.9,17.5-21,34.2-33.1,49.7c-0.5,0.7-1.1,1.3-1.8,1.9c-5.9,6-13.1,9.1-21,9.1c-12.6,0-22.4-8.1-23.4-9.1c-0.9-0.8-1.7-1.7-2.4-2.8
	C238,304.3,231.6,303.4,226.8,303.4z"/>
<path class="st0" d="M187.7,219.8c-5.9,0-11.2-4.2-12.3-10.3c-2.1-11.4,0.4-23,7-32.5c6.6-9.6,16.5-16,28-18.1
	c6.8-1.2,13.3,3.3,14.6,10.1c1.2,6.8-3.3,13.3-10.1,14.6c-4.9,0.9-9.1,3.6-11.9,7.7c-2.8,4.1-3.9,9-3,13.8c1.3,6.8-3.3,13.3-10,14.6
	C189.2,219.8,188.5,219.8,187.7,219.8z"/>
<path class="st0" d="M145.4,218.9c-5.9,0-11.2-4.2-12.3-10.3c-7.6-41.4,19.9-81.3,61.4-88.9c6.8-1.2,13.3,3.3,14.6,10.1
	c1.2,6.8-3.3,13.3-10,14.6c-27.9,5.1-46.4,31.9-41.3,59.8c1.2,6.8-3.3,13.3-10.1,14.6C146.9,218.9,146.2,218.9,145.4,218.9z"/>
<path class="st0" d="M97,232.6c-5.9,0-11.2-4.2-12.3-10.3c-6.3-34.5,1.2-69.3,21.1-98.2c19.9-28.8,49.9-48.2,84.3-54.5
	c6.8-1.2,13.3,3.3,14.6,10.1c1.2,6.8-3.3,13.3-10.1,14.6c-27.9,5.1-52.1,20.8-68.3,44.1c-16.1,23.4-22.2,51.6-17.1,79.5
	c1.2,6.8-3.2,13.3-10,14.6C98.5,232.5,97.8,232.6,97,232.6z"/>
</svg>
