<?xml version="1.0" encoding="utf-8"?>
<!-- Generator: Adobe Illustrator 18.0.0, SVG Export Plug-In . SVG Version: 6.00 Build 0)  -->
<!DOCTYPE svg PUBLIC "-//W3C//DTD SVG 1.1//EN" "http://www.w3.org/Graphics/SVG/1.1/DTD/svg11.dtd">
<svg version="1.1" id="图形" xmlns="http://www.w3.org/2000/svg" xmlns:xlink="http://www.w3.org/1999/xlink" x="0px" y="0px"
	 viewBox="15.167 -16.333 1000.636 1000.678" enable-background="new 15.167 -16.333 1000.636 1000.678" xml:space="preserve">
<path fill="#DDDDDD" d="M836.997,255.274H736.609c-5.426-48.837-27.132-92.248-65.116-127.52
	c-40.698-40.698-97.675-62.403-157.365-62.403c-113.954,0-208.915,84.109-222.481,189.923H191.259
	c-62.403,0-111.241,46.124-111.241,105.814v415.117c0,56.977,48.837,103.101,111.241,103.101H839.71
	c59.69,0,111.241-46.124,111.241-105.814V361.088C948.237,301.398,899.4,255.274,836.997,255.274L836.997,255.274z M514.128,114.189
	c86.822,0,157.365,59.69,168.217,138.372H345.91C356.763,176.592,427.306,114.189,514.128,114.189L514.128,114.189z
	 M836.997,830.469H191.259c-32.558,0-56.977-24.419-56.977-54.264V586.283c27.132,21.705,62.403,35.271,100.388,35.271h564.342
	c37.985,0,73.256-13.566,100.388-35.271v189.923C896.687,803.337,869.555,830.469,836.997,830.469L836.997,830.469z
	 M866.842,540.158c-18.992,18.992-43.411,27.132-70.543,27.132H231.956c-27.132,0-51.551-10.853-70.543-27.132
	c-18.992-18.992-29.845-40.698-29.845-65.116V361.088c0-29.845,27.132-54.264,56.977-54.264h648.451
	c32.558,0,56.977,24.419,56.977,54.264v113.954C896.687,499.461,885.834,523.879,866.842,540.158L866.842,540.158z"/>
<path fill="#DDDDDD" d="M515.485,385.507c-51.55,0-92.248,37.985-92.248,86.822s40.698,86.822,92.248,86.822
	s92.248-37.985,92.248-86.822C607.733,423.491,567.035,385.507,515.485,385.507L515.485,385.507z M515.485,510.313
	c-21.705,0-37.985-16.279-37.985-37.985c0-21.706,16.279-37.985,37.985-37.985c21.706,0,37.985,16.279,37.985,37.985
	C553.469,494.034,537.19,510.313,515.485,510.313L515.485,510.313z"/>
</svg>
