<?xml version="1.0" encoding="utf-8"?>
<!-- Generator: Adobe Illustrator 18.0.0, SVG Export Plug-In . SVG Version: 6.00 Build 0)  -->
<!DOCTYPE svg PUBLIC "-//W3C//DTD SVG 1.1//EN" "http://www.w3.org/Graphics/SVG/1.1/DTD/svg11.dtd">
<svg version="1.1" id="图形" xmlns="http://www.w3.org/2000/svg" xmlns:xlink="http://www.w3.org/1999/xlink" x="0px" y="0px"
	 viewBox="15.167 -16.333 1000.636 1000.678" enable-background="new 15.167 -16.333 1000.636 1000.678" xml:space="preserve">
<path fill="#D8D8D8" d="M888.918,164.171l-62.96-62.499c-32.279-32.273-55.143-48.938-82.956-48.938h-0.725
	c-30.367,0-55.604,22.286-83.1,49.792L549.439,211.484l-9.337-9.337c-4.952-4.952-11.094-7.768-18.721-7.661
	c-7.024,0.066-13.715,2.95-18.595,7.997L143.785,574.561c-27.712,27.712-52.896,58.426-49.613,95.231
	c2.721,30.459,23.115,56.283,57.428,90.583L253.305,862.09c34.491,34.491,58.743,53.187,88.141,53.187
	c32.295,0,59.408-24.495,89.315-54.402L790.1,488.464c9.896-10.266,9.755-26.561-0.329-36.654l-14.958-14.955l109.765-109.658
	C949.486,262.286,957.942,233.205,888.918,164.171z M393.45,824.223c-19.157,19.157-40.32,38.748-52.001,38.748
	c-11.709,0-32.44-19.145-51.16-37.866L188.583,723.391c-21.16-21.16-40.942-42.872-42.306-58.247
	c-1.086-12.12,9.553-28.657,34.824-53.931l340.844-353.253l212.669,212.679L393.45,824.223z M737.765,399.808L586.57,248.615
	L696.16,139.459c10.536-10.533,35.182-34.416,46.688-34.416h0.088c10.206,0,29.963,17.532,46.038,33.61l62.96,62.063
	c8.251,8.264,33.383,33.396,32.781,43.013c-0.612,9.742-23.472,32.603-37.121,46.267L737.765,399.808z M762.032,146.675
	c-5.109-5.107-13.386-5.107-18.495,0l-96.119,96.106c-5.107,5.107-5.107,13.386,0,18.492c2.555,2.552,5.9,3.832,9.246,3.832
	c3.345,0,6.691-1.277,9.246-3.832l96.119-96.104C767.138,160.057,767.138,151.785,762.032,146.675z M799.012,183.659
	c-5.107-5.109-13.383-5.109-18.492,0L678.803,285.373c-5.107,5.109-5.107,13.386,0,18.495c2.555,2.552,5.9,3.832,9.246,3.832
	c3.345,0,6.691-1.277,9.246-3.832L799.01,202.151C804.122,197.041,804.122,188.765,799.012,183.659z M817.505,220.639
	L715.799,322.357c-5.107,5.109-5.107,13.386,0,18.492c2.555,2.555,5.9,3.832,9.246,3.832c3.345,0,6.691-1.274,9.246-3.832
	l101.702-101.715c5.109-5.109,5.109-13.386,0-18.495C830.887,215.533,822.611,215.533,817.505,220.639z"/>
</svg>
