<?xml version="1.0" encoding="utf-8"?>
<!-- Generator: Adobe Illustrator 18.0.0, SVG Export Plug-In . SVG Version: 6.00 Build 0)  -->
<!DOCTYPE svg PUBLIC "-//W3C//DTD SVG 1.1//EN" "http://www.w3.org/Graphics/SVG/1.1/DTD/svg11.dtd">
<svg version="1.1" id="图形" xmlns="http://www.w3.org/2000/svg" xmlns:xlink="http://www.w3.org/1999/xlink" x="0px" y="0px"
	 viewBox="0 0 500 500" style="enable-background:new 0 0 500 500;" xml:space="preserve">
<style type="text/css">
	.st0{fill:none;stroke:#C4C4C4;stroke-width:40;stroke-linecap:round;stroke-linejoin:round;stroke-miterlimit:10;}
</style>
<path class="st0" d="M250,38.6c-116.7,0-211.3,82.8-211.3,184.9c0,58.4,31,110.3,79.2,144.2v93.5l92.6-56.2
	c12.8,2.1,26,3.3,39.5,3.3c116.7,0,211.3-82.8,211.3-184.9S366.7,38.6,250,38.6z M144.4,250c-14.6,0-26.4-11.8-26.4-26.4
	c0-14.6,11.8-26.4,26.4-26.4c14.6,0,26.4,11.8,26.4,26.4C170.8,238.2,158.9,250,144.4,250z M250,250c-14.6,0-26.4-11.8-26.4-26.4
	c0-14.6,11.8-26.4,26.4-26.4c14.6,0,26.4,11.8,26.4,26.4C276.4,238.2,264.6,250,250,250z M355.6,250c-14.6,0-26.4-11.8-26.4-26.4
	c0-14.6,11.8-26.4,26.4-26.4c14.6,0,26.4,11.8,26.4,26.4C382,238.2,370.2,250,355.6,250z"/>
</svg>
