<?xml version="1.0" encoding="utf-8"?>
<!-- Generator: Adobe Illustrator 18.0.0, SVG Export Plug-In . SVG Version: 6.00 Build 0)  -->
<!DOCTYPE svg PUBLIC "-//W3C//DTD SVG 1.1//EN" "http://www.w3.org/Graphics/SVG/1.1/DTD/svg11.dtd">
<svg version="1.1" id="图形" xmlns="http://www.w3.org/2000/svg" xmlns:xlink="http://www.w3.org/1999/xlink" x="0px" y="0px"
	 viewBox="0 0 500 500" style="enable-background:new 0 0 500 500;" xml:space="preserve">
<style type="text/css">
	.st0{fill:#B2B2B2;}
</style>
<path class="st0" d="M403.1,142.9c19,15.6,33.5,33.3,43.3,53.2c9.8,19.9,14.4,41.4,13.8,64.5c-0.6,23.9-5.3,46-14.3,66.2
	c-8.9,20.2-21.3,37.9-37.2,53c-15.9,15.1-34.8,27.3-56.9,36.3c-22.1,9.1-46.5,14.5-73.3,16.2c-26.8,1.7-52-0.9-75.5-7.8
	c-23.5-6.9-44.3-17.3-62.3-31.2c-18-13.8-32.5-30.6-43.3-50.4c-10.8-19.8-16.8-41.6-18-65.6c-0.9-17.6,1.2-33.9,6.3-48.9
	c5-15,11.8-28.8,20.3-41.3c8.5-12.5,17.9-23.8,28.1-33.7c10.2-10,20.1-18.5,29.6-25.7c16.4-12.4,21.5-28.8,15.1-49.3
	c-1.2-3.7-2.5-7.2-4.1-10.4c-1.6-3.2-3.1-6-4.5-8.4c-1.4-2.5-2.5-4.6-3.2-6.5s-0.6-3.2,0.2-4.1c0.9-1.2,3.4-1,7.6,0.4
	c4.2,1.4,8.9,3.5,14.3,6.1c5.3,2.6,10.9,5.4,16.7,8.4c5.8,3,10.7,5.8,14.7,8.4c5.2,3.2,10,5.8,14.5,8c4.5,2.2,9.2,4,14.1,5.4
	s10.3,2.9,16.2,4.3c5.9,1.4,12.9,3.2,21,5.2c10.1,2.6,20.3,5.3,30.7,8c10.4,2.7,20.6,6,30.5,9.7c10,3.7,19.6,8,29,12.8
	C385.9,130.6,394.8,136.3,403.1,142.9L403.1,142.9z M302.3,300.8c3.5-0.3,6.7-2.1,9.7-5.4c3-3.3,5.5-7.6,7.4-12.8
	c1.9-5.2,3.1-11.2,3.7-18.2c0.6-6.9,0.3-14.3-0.9-22.1c-2.9-18.2-7.8-32-14.7-41.5c-6.9-9.5-14.1-13.8-21.6-13
	c-5.8,0.9-10.3,4.9-13.6,12.1c-3.3,7.2-4.8,16.7-4.5,28.6c7.5,1.7,14.3,3.2,20.3,4.3c5.2,1.2,10,2.2,14.5,3c4.5,0.9,7,1.3,7.6,1.3
	c2.3,0.6,2.6,1.4,0.9,2.6l-6.1,6.1c-3.7,3.7-7.6,7.8-11.7,12.1l-16.4,17.3c3.2,8.4,7,14.9,11.5,19.5
	C292.7,299.4,297.4,301.4,302.3,300.8L302.3,300.8z M410.9,280.9c5.8-1.4,10.7-6.8,14.9-16c4.2-9.2,5.4-22.5,3.7-39.8
	c-0.9-7.2-2.2-14.1-3.9-20.6c-1.7-6.5-3.9-12.1-6.5-16.9c-2.6-4.8-5.5-8.4-8.7-11c-3.2-2.6-6.3-3.6-9.5-3
	c-6.1,1.2-10.5,5.9-13.4,14.3c-2.9,8.4-4.3,17.7-4.3,28.1c6.6,1.2,12.5,2.3,17.7,3.5c4.6,0.9,8.8,1.6,12.5,2.2
	c3.7,0.6,5.9,0.9,6.5,0.9c1.7,0.6,2,1.4,0.9,2.6c-0.6,0.6-2.5,2.4-5.6,5.4c-3.2,3-6.8,6.3-10.8,9.7c-4.6,4-9.7,8.7-15.1,13.8
	c2.6,8.7,5.7,15.6,9.3,20.8C402.2,280.1,406.3,282.1,410.9,280.9L410.9,280.9z"/>
</svg>
