<?xml version="1.0" encoding="utf-8"?>
<!-- Generator: Adobe Illustrator 18.0.0, SVG Export Plug-In . SVG Version: 6.00 Build 0)  -->
<!DOCTYPE svg PUBLIC "-//W3C//DTD SVG 1.1//EN" "http://www.w3.org/Graphics/SVG/1.1/DTD/svg11.dtd">
<svg version="1.1" id="图形" xmlns="http://www.w3.org/2000/svg" xmlns:xlink="http://www.w3.org/1999/xlink" x="0px" y="0px"
	 viewBox="0 0 500 500" style="enable-background:new 0 0 500 500;" xml:space="preserve">
<style type="text/css">
	.st0{fill:#C4C4C4;}
</style>
<path class="st0" d="M438.8,181.3l-0.5-0.1c-12.6-3.3-13.7-10-150.1-10c10.2-30.6,17.1-35.9,17.1-68.5c0-24.1-11.1-42.7-17.1-51.4
	c-9.4-13.5-14.1-17.1-34.2-17.1c-11.6,0-15.1,10.3-18.8,18.8c-13.6,31.1-30.5,67.8-54.8,99.9c-10.1,13.3-17.4,24.1-22.1,32.7h-51.4
	c-13.2,0-24,7.6-24,16.9v206c0,9.3,10.7,16.9,24,16.9h54.8c1.1,0,2.1-0.1,3.1-0.1c10.1,1.7,26.6,4.8,52.2,10.7l0.1,0
	c4.2,0.9,42.3,9.3,80.5,9.3h78.5c15,0,24.2-4.5,29.9-14.6c1.5-2.1,12.6-18.7,24.5-51.5c11.4-31.6,25.7-85.1,28.8-160.2
	c0.1-1.8,0.3-6,0.3-9.2C459.5,199.3,455.2,187.7,438.8,181.3z M117.1,219.8h34.1L151.1,391h-34L117.1,219.8L117.1,219.8z M425,215.3
	l-0.1,2.1c-2.9,70.8-16.2,120.6-26.8,150c-10.1,28-19.4,42.1-20.3,43.5c-0.5,0-1.1,0.1-1.9,0.1h-78.5c-35.1,0-71.4-8.1-72.8-8.4
	c-16.2-3.7-29-6.4-39-8.4V207.3c1.3-3.2,5.9-12.3,22.1-33.8c24.2-32,41.2-67.1,55.1-98.4c4.2,7.1,8.3,16.7,8.3,27.6
	c0,17.1-1.8,21.7-7.2,35.4c-2.3,5.8-5.1,13-8.2,22.3c-3.5,10.4-1.7,21.9,4.7,30.8c6.4,8.9,16.8,14.2,27.8,14.2
	c114.1,0,128.7,4.8,134.9,6.9c0.7,0.2,1.3,0.4,2,0.6C425.1,213.8,425,214.6,425,215.3z"/>
</svg>
