<?xml version="1.0" encoding="utf-8"?>
<!-- Generator: Adobe Illustrator 18.0.0, SVG Export Plug-In . SVG Version: 6.00 Build 0)  -->
<!DOCTYPE svg PUBLIC "-//W3C//DTD SVG 1.1//EN" "http://www.w3.org/Graphics/SVG/1.1/DTD/svg11.dtd">
<svg version="1.1" id="图形" xmlns="http://www.w3.org/2000/svg" xmlns:xlink="http://www.w3.org/1999/xlink" x="0px" y="0px"
	 viewBox="15.167 -16.333 1000.636 1000.678" enable-background="new 15.167 -16.333 1000.636 1000.678" xml:space="preserve">
<g>
	<polygon fill="#EDEDED" points="214.818,40.682 816.424,484.006 214.818,927.33 	"/>
	<path fill="#EDEDED" d="M214.817,936.093c-1.348,0-2.702-0.311-3.951-0.941c-2.95-1.491-4.811-4.516-4.811-7.821V40.681
		c0-3.306,1.86-6.33,4.811-7.821c2.951-1.491,6.488-1.195,9.15,0.767l601.606,443.325c2.241,1.652,3.564,4.27,3.564,7.054
		s-1.323,5.402-3.564,7.054L220.016,934.384C218.481,935.516,216.654,936.093,214.817,936.093z M223.581,58.023v851.965
		l578.073-425.982L223.581,58.023z"/>
</g>
</svg>
