<?xml version="1.0" encoding="utf-8"?>
<!-- Generator: Adobe Illustrator 18.0.0, SVG Export Plug-In . SVG Version: 6.00 Build 0)  -->
<!DOCTYPE svg PUBLIC "-//W3C//DTD SVG 1.1//EN" "http://www.w3.org/Graphics/SVG/1.1/DTD/svg11.dtd">
<svg version="1.1" id="图形" xmlns="http://www.w3.org/2000/svg" xmlns:xlink="http://www.w3.org/1999/xlink" x="0px" y="0px"
	 viewBox="15.167 -16.333 1000.636 1000.678" enable-background="new 15.167 -16.333 1000.636 1000.678" xml:space="preserve">
<g>
	<path fill-rule="evenodd" clip-rule="evenodd" fill="#C1C1C1" d="M752.502,137.225H638.099V72.385
		c0-21.054-17.126-38.18-38.18-38.18H431.049c-21.054,0-38.18,17.126-38.18,38.18v64.841H278.466
		c-35.496,0-64.54,29.043-64.54,64.54v584.81c0,35.498,29.043,64.54,64.54,64.54h55.155c-3.394,7.402-5.3,15.629-5.3,24.304
		c0,32.246,26.14,58.386,58.386,58.386c32.247,0,58.387-26.14,58.387-58.386c0-8.675-1.906-16.902-5.3-24.304h151.382
		c-3.394,7.402-5.3,15.629-5.3,24.304c0,32.246,26.14,58.386,58.386,58.386c32.247,0,58.387-26.14,58.387-58.386
		c0-8.675-1.906-16.902-5.3-24.304h55.153c35.498,0,64.542-29.043,64.542-64.54v-584.81
		C817.043,166.268,787.999,137.225,752.502,137.225L752.502,137.225z M657.01,295.755L657.01,295.755
		c11.283,0,20.515,9.231,20.515,20.515v326.855c0,11.283-9.231,20.515-20.515,20.515l0,0c-11.283,0-20.515-9.231-20.515-20.515
		V316.269C636.496,304.986,645.728,295.755,657.01,295.755L657.01,295.755z M451.606,92.943h127.754v44.283H451.606V92.943
		L451.606,92.943z M353.442,316.269c0-11.283,9.231-20.515,20.515-20.515l0,0c11.283,0,20.515,9.231,20.515,20.515v326.855
		c0,11.283-9.231,20.515-20.515,20.515l0,0c-11.283,0-20.515-9.231-20.515-20.515V316.269L353.442,316.269z M535.999,643.124
		c0,11.283-9.231,20.515-20.515,20.515l0,0c-11.283,0-20.515-9.231-20.515-20.515V316.269c0-11.283,9.231-20.515,20.515-20.515l0,0
		c11.283,0,20.515,9.231,20.515,20.515V643.124L535.999,643.124z"/>
</g>
</svg>
