<?xml version="1.0" encoding="utf-8"?>
<!-- Generator: Adobe Illustrator 18.0.0, SVG Export Plug-In . SVG Version: 6.00 Build 0)  -->
<!DOCTYPE svg PUBLIC "-//W3C//DTD SVG 1.1//EN" "http://www.w3.org/Graphics/SVG/1.1/DTD/svg11.dtd">
<svg version="1.1" id="图形" xmlns="http://www.w3.org/2000/svg" xmlns:xlink="http://www.w3.org/1999/xlink" x="0px" y="0px"
	 viewBox="15.167 -16.333 1000.636 1000.678" enable-background="new 15.167 -16.333 1000.636 1000.678" xml:space="preserve">
<g>
	<path fill-rule="evenodd" clip-rule="evenodd" fill="#272536" d="M811.235,218.681C736.306,141.576,631.491,93.667,515.484,93.667
		c-11.449,0-22.788,0.472-33.999,1.386c-13.753,8.939-86.054,64.211-113.77,252.831
		C490.878,307.166,635.934,221.119,811.235,218.681L811.235,218.681z M301.733,364.98c19.99-155.378,71.294-226.845,99.426-255.255
		C287.671,142.4,194.295,222.503,143.83,327.185C192.125,367.382,244.417,374.717,301.733,364.98L301.733,364.98z M361.371,402.356
		c-1.975,22.407-3.359,46.364-4.026,71.986h569.304c-5.309-69.865-28.029-134.865-63.83-190.672
		C681.686,246.6,512.67,360.082,361.371,402.356L361.371,402.356z M296.628,415.581c-59.953,6.948-116.781-3.54-170.099-46.795
		c-11.793,33.422-19.417,68.812-22.208,105.556h189.463C294.258,453.699,295.234,434.144,296.628,415.581L296.628,415.581z
		 M363.335,637.248c144.512,45.36,305.641,159.983,478.149,120.997c0.022,0.081,0.046,0.161,0.069,0.243
		c48.021-61.934,78.792-137.915,85.093-220.739H357.164C357.895,574.203,360.065,607.265,363.335,637.248L363.335,637.248z
		 M481.207,916.984c11.303,0.929,22.733,1.409,34.277,1.409c98.848,0,189.568-34.784,260.6-92.774
		c-158.569-6.959-291.123-88.668-404.534-130.732C401.363,861.468,467.415,908.773,481.207,916.984L481.207,916.984z
		 M155.404,707.115c52.593,93.98,140.895,165.266,246.561,195.454c-25.976-26.698-72.804-91.625-95.491-227.089
		C251.692,664.171,201.651,669.474,155.404,707.115L155.404,707.115z M299.283,622.236c-2.722-25.977-4.601-54.072-5.4-84.487
		H104.321c3.455,45.418,14.28,88.771,31.259,128.886C186.921,623.725,241.611,614.174,299.283,622.236L299.283,622.236z"/>
</g>
</svg>
