<?xml version="1.0" encoding="utf-8"?>
<!-- Generator: Adobe Illustrator 18.0.0, SVG Export Plug-In . SVG Version: 6.00 Build 0)  -->
<!DOCTYPE svg PUBLIC "-//W3C//DTD SVG 1.1//EN" "http://www.w3.org/Graphics/SVG/1.1/DTD/svg11.dtd">
<svg version="1.1" id="图形" xmlns="http://www.w3.org/2000/svg" xmlns:xlink="http://www.w3.org/1999/xlink" x="0px" y="0px"
	 viewBox="15.167 -16.333 1000.636 1000.678" enable-background="new 15.167 -16.333 1000.636 1000.678" xml:space="preserve">
<g>
	<path fill-rule="evenodd" clip-rule="evenodd" fill="#272536" d="M72.518,238.832l308.828-0.339
		c5.265-0.312,9.058-2.576,10.36-7.841l28.42-93.158c11.804-24.089,29.722-37.139,56.614-34.138l202.62-1.189l-0.085,39.714
		l-192.09,0.623c-13.361,1.727-22.334,8.407-26.891,20.07l-18.796,63.379c-2.18,9.058,0.113,13.191,6.992,12.427l64.596,0.028
		L477.278,841.74l-364.423,0L72.518,238.832L72.518,238.832L72.518,238.832z M166.61,921.367l722.051-3.51
		c52.622-5.633,77.617,5.746,80.703-56.189l-907.093,3.51C63.262,921.848,106.572,920.32,166.61,921.367L166.61,921.367
		L166.61,921.367z M584.9,840.891l285.531-1.84c52.651-5.661,62.473-33.685,65.587-95.621l-417.441,0.481
		C516.313,804.714,526.73,832.908,584.9,840.891L584.9,840.891L584.9,840.891z M563.84,600.764
		c-33.006,2.349-54.179,18.909-56.359,58.227c2.774,38.129,25.25,52.905,56.614,57.123c15.653-1.076,31.166-7.275,42.573-17.918
		c12.965,10.728,26.92,16.984,44.159,18.145c16.248,0.084,29.439-4.162,38.271-14.72c8.039,9.454,21.032,14.323,39.403,14.182
		c18.484-0.029,33.26-5.945,41.328-14.012c10.19,10.275,23.721,14.804,39.488,15.427c15.484-2.18,27.854-7.784,37.761-14.72
		c12.965,12.031,28.42,15.654,45.404,14.069c36.743-7.954,52.312-29.977,50.273-63.747c-5.435-36.431-25.447-50.754-53.952-52.085
		c-15.994-1.924-30.289,4.558-43.65,15.739c-10.728-11.521-24.287-16.22-40.733-14.097c-13.05-2.746-25.589,2.576-37.79,13.474
		c-8.039-8.973-20.182-13.417-35.638-14.323c-12.625-0.623-27.571,3.255-38.554,13.87c-1.359,1.302-2.632,0.963-3.651,0.368
		c-11.323-12.37-25.873-15.512-42.291-15.427c-15.993-0.17-28.42,6.85-38.356,18.796
		C594.864,604.755,580.088,598.612,563.84,600.764L563.84,600.764L563.84,600.764z M609.98,473.185
		c-63.068,6.737-93.469,40.563-91.205,101.367h416.366c-3.114-61.936-30.968-95.706-83.619-101.367H609.98L609.98,473.185
		L609.98,473.185z M117.045,286.303l5.746,114.048c1.84,5.86,5.463,9.143,11.861,8.606l201.488-2.293
		c4.67-0.057,7.614-2.35,9.086-6.483l30.204-111.585c-0.623-4.133-2.435-6.935-6.398-7.247l-246.071,0.283
		C119.423,281.689,117.441,283.274,117.045,286.303L117.045,286.303L117.045,286.303z M465.049,400.125l5.746-111.274
		c-1.811-5.832-3.453-7.615-8.718-7.36l-29.949-0.595c-4.727,0.114-7.643,2.406-9.115,6.539l-31.081,110.793
		c0.623,4.19,2.407,6.935,6.37,7.275l60.803-0.651C462.671,404.795,464.624,403.182,465.049,400.125L465.049,400.125z"/>
</g>
</svg>
