<?xml version="1.0" encoding="utf-8"?>
<!-- Generator: Adobe Illustrator 18.0.0, SVG Export Plug-In . SVG Version: 6.00 Build 0)  -->
<!DOCTYPE svg PUBLIC "-//W3C//DTD SVG 1.1//EN" "http://www.w3.org/Graphics/SVG/1.1/DTD/svg11.dtd">
<svg version="1.1" id="图形" xmlns="http://www.w3.org/2000/svg" xmlns:xlink="http://www.w3.org/1999/xlink" x="0px" y="0px"
	 viewBox="15.167 -16.333 1000.636 1000.678" enable-background="new 15.167 -16.333 1000.636 1000.678" xml:space="preserve">
<g>
	<path fill-rule="evenodd" clip-rule="evenodd" fill="#CCCCCC" d="M706.935,46.906h-382.9c-45.128,0-82.05,36.923-82.05,82.05v711.1
		c0,45.128,36.923,82.05,82.05,82.05h382.9c45.128,0,82.05-36.922,82.05-82.05v-711.1C788.985,83.828,752.062,46.906,706.935,46.906
		L706.935,46.906 M406.085,87.931h218.8v27.35h-218.8V87.931L406.085,87.931 M515.485,867.406c-30.194,0-54.7-24.451-54.7-54.7
		c0-30.194,24.506-54.7,54.7-54.7c30.194,0,54.7,24.506,54.7,54.7C570.185,842.955,545.679,867.406,515.485,867.406L515.485,867.406
		 M734.285,703.306h-437.6v-547h437.6V703.306L734.285,703.306 M734.285,703.306"/>
</g>
</svg>
