<?xml version="1.0" encoding="utf-8"?>
<!-- Generator: Adobe Illustrator 18.0.0, SVG Export Plug-In . SVG Version: 6.00 Build 0)  -->
<!DOCTYPE svg PUBLIC "-//W3C//DTD SVG 1.1//EN" "http://www.w3.org/Graphics/SVG/1.1/DTD/svg11.dtd">
<svg version="1.1" id="图形" xmlns="http://www.w3.org/2000/svg" xmlns:xlink="http://www.w3.org/1999/xlink" x="0px" y="0px"
	 viewBox="15.167 -16.333 1000.636 1000.678" enable-background="new 15.167 -16.333 1000.636 1000.678" xml:space="preserve">
<g>
	<path fill-rule="evenodd" clip-rule="evenodd" fill="#DBDBDB" d="M879.206,920.646h-221.76c-19.736,0-35.804-16.155-35.804-35.934
		V461.408c0-19.823,16.068-35.891,35.804-35.891h17.334v-186.83c1.266-20.522,14.452-59.425,55.975-85.709
		c13.927-8.907,27.07-19.43,38.816-28.861c23.708-18.95,40.868-32.703,59.948-32.703c14.584,0,38.903,7.335,38.903,56.455v277.648
		h10.785c19.735,0,35.804,16.068,35.804,35.891v423.305C915.01,904.578,898.942,920.646,879.206,920.646L879.206,920.646z
		 M832.051,551.133c0-14.278-11.526-25.892-25.891-25.892c-14.321,0-25.936,11.527-25.936,25.892v234.422
		c0,14.277,11.614,25.891,25.936,25.891c14.278,0,25.891-11.571,25.891-25.891V551.133L832.051,551.133z M444.549,472.629
		c-0.393,0.611-1.179,0.829-1.703,1.353c10.261,88.11,42.92,371.696,42.92,395.23c0,35.366-33.314,51.434-64.227,51.434H305.311
		c-29.385,0-50.299-7.554-62.263-22.617c-9.78-12.269-11.046-26.59-8.82-35.89l42.92-386.236c-1.179-0.961-2.576-1.528-3.624-2.751
		L91.802,259.295c-7.423-8.776-8.252-21.394-1.965-31c3.668-5.545,91.254-136.881,262.846-136.881
		c171.156,0,262.366,129.415,266.253,134.873c6.462,9.43,5.981,22.049-1.224,31L444.549,472.629L444.549,472.629z M401.629,569.471
		l-5.982-51.827h-71.169l-5.72,51.827H401.629L401.629,569.471z M330.285,320.772c-3.362-13.928-17.421-22.399-31.262-19.081
		c-13.928,3.405-22.442,17.377-19.124,31.349l22.967,94.747l53.399,0.48L330.285,320.772L330.285,320.772z M408.659,301.385
		c-14.104-2.663-27.551,6.768-30.215,20.827l-19.342,106.056h52.701l17.727-96.711C432.062,317.453,422.762,303.962,408.659,301.385
		L408.659,301.385z"/>
</g>
</svg>
