<?xml version="1.0" encoding="utf-8"?>
<!-- Generator: Adobe Illustrator 18.0.0, SVG Export Plug-In . SVG Version: 6.00 Build 0)  -->
<!DOCTYPE svg PUBLIC "-//W3C//DTD SVG 1.1//EN" "http://www.w3.org/Graphics/SVG/1.1/DTD/svg11.dtd">
<svg version="1.1" id="图形" xmlns="http://www.w3.org/2000/svg" xmlns:xlink="http://www.w3.org/1999/xlink" x="0px" y="0px"
	 viewBox="15.167 -16.333 1000.636 1000.678" enable-background="new 15.167 -16.333 1000.636 1000.678" xml:space="preserve">
<g>
	<path fill-rule="evenodd" clip-rule="evenodd" fill="#272536" d="M951.215,248.309c0-19.66-15.865-35.621-35.552-35.621H258.187
		l-18.609-87.639c-0.738-3.454-1.953-6.676-3.55-9.653c-4.588-14.376-18.036-24.821-33.887-24.821h-89.154
		c-19.633,0-35.566,15.824-35.566,35.648c0,19.674,15.96,35.621,35.566,35.621h61.575l113.826,535.717
		c3.345,15.769,16.575,26.884,31.893,28.125c3.208,0.956,6.595,1.475,10.117,1.475h463.329c19.592,0,35.47-15.811,35.47-35.634
		c0-19.66-16.001-35.621-35.47-35.621H352.365l-19.387-91.271h480.601c8.438,0,16.207-2.949,22.296-7.878
		c5.884-4.028,10.581-9.844,13.188-16.998l97.565-268.2c1.202-3.318,1.885-6.69,2.076-10.035
		C950.327,257.457,951.215,252.993,951.215,248.309L951.215,248.309L951.215,248.309L951.215,248.309z M790.123,493.381h-472.3
		l-44.481-209.424h592.979L790.123,493.381L790.123,493.381L790.123,493.381z M317.413,838.489c0-39.375,31.88-71.283,71.228-71.283
		s71.241,31.908,71.241,71.283c0,39.362-31.893,71.269-71.241,71.269S317.413,877.851,317.413,838.489L317.413,838.489
		L317.413,838.489z M655.763,838.489c0-39.375,31.894-71.283,71.241-71.283c39.349,0,71.228,31.908,71.228,71.283
		c0,39.362-31.88,71.269-71.228,71.269C687.657,909.758,655.763,877.851,655.763,838.489L655.763,838.489z"/>
</g>
</svg>
